<svg xmlns="http://www.w3.org/2000/svg" viewBox="0 0 85.19 12.62"><defs><style>.cls-1{fill:#000d21;}.cls-2{fill:#00bfce;}.cls-3,.cls-4{fill:#fff;}.cls-4{opacity:0.9;}.cls-5{fill:#00809e;}</style></defs><title>DOMUS в сайт</title><g id="Layer_1" data-name="Layer 1"><polygon class="cls-1" points="82.19 12.59 11.39 12.59 13.81 6.35 11.54 0.11 82.35 0.11 84.62 6.57 82.19 12.59"/><path class="cls-2" d="M82.19,12.59A8.12,8.12,0,0,0,82.35.11L81,1.67A6.08,6.08,0,0,1,80.9,11Z"/><path class="cls-3" d="M18.13,3.4a2.61,2.61,0,0,1,1.19.23.5.5,0,0,1-.16.4,2.65,2.65,0,0,0-1-.18c-.89,0-1.49.48-1.49,2.18s.6,2.15,1.49,2.15a3,3,0,0,0,1-.18.58.58,0,0,1,.16.4,2.83,2.83,0,0,1-1.27.24c-1.32,0-2-.87-2-2.62S16.81,3.4,18.13,3.4Z"/><path class="cls-3" d="M21.53,4.78c1,0,1.52.53,1.52,1.94s-.57,1.94-1.52,1.94S20,8.12,20,6.71,20.58,4.78,21.53,4.78Zm0,.41c-.61,0-1,.35-1,1.53s.38,1.53,1,1.53,1-.35,1-1.53S22.14,5.18,21.53,5.18Z"/><path class="cls-3" d="M23.83,8.62a.89.89,0,0,1-.26,0,.39.39,0,0,1,0-.18.54.54,0,0,1,0-.19.7.7,0,0,0,.21,0c.28,0,.49-.45.59-1.72l.13-1.65h2.24v3.7a.85.85,0,0,1-.25,0,.79.79,0,0,1-.26,0V5.26H24.93l-.1,1.26C24.67,8.37,24.3,8.62,23.83,8.62Z"/><path class="cls-3" d="M28.38,8.54a.92.92,0,0,1-.51,0V4.88a.95.95,0,0,1,.51,0V6.44H30.2V4.88a.79.79,0,0,1,.26,0,.73.73,0,0,1,.25,0V8.54a.73.73,0,0,1-.26,0,.7.7,0,0,1-.25,0V6.87H28.38Z"/><path class="cls-3" d="M32.21,6.88c0,1,.41,1.32,1.1,1.32A1.67,1.67,0,0,0,34.19,8a.52.52,0,0,1,.17.38,1.93,1.93,0,0,1-1.15.31c-1,0-1.53-.67-1.53-2s.62-1.92,1.53-1.92a1.25,1.25,0,0,1,1.35,1.38,3,3,0,0,1-.08.72Zm1-1.68c-.57,0-1,.38-1,1.3H34a2.47,2.47,0,0,0,0-.4A.78.78,0,0,0,33.21,5.2Z"/><path class="cls-3" d="M38.06,8.54a.73.73,0,0,1-.26,0,.65.65,0,0,1-.25,0V7a2,2,0,0,1-1,.2c-.89,0-1.31-.39-1.31-1.16V4.88a.73.73,0,0,1,.25,0,.79.79,0,0,1,.26,0V6c0,.5.25.74.85.74a1.8,1.8,0,0,0,.89-.22V4.88a.67.67,0,0,1,.25,0,.75.75,0,0,1,.26,0Z"/><path class="cls-3" d="M39.7,8.54a.92.92,0,0,1-.51,0V4.88a.95.95,0,0,1,.51,0V6.44h1.82V4.88a.79.79,0,0,1,.26,0,.73.73,0,0,1,.25,0V8.54a.73.73,0,0,1-.26,0,.7.7,0,0,1-.25,0V6.87H39.7Z"/><path class="cls-3" d="M43.43,4.85a1,1,0,0,1,.25,0V6.4h1.09a1,1,0,0,1,1.11,1.09,1,1,0,0,1-1.11,1.09h-1.6V4.88A1.08,1.08,0,0,1,43.43,4.85Zm.25,3.34h1a.62.62,0,0,0,.67-.7.62.62,0,0,0-.67-.7h-1Zm3.19-3.34a.92.92,0,0,1,.25,0V8.54a.88.88,0,0,1-.25,0,1,1,0,0,1-.26,0V4.88A1,1,0,0,1,46.87,4.85Z"/><path class="cls-3" d="M48.63,6.88c0,1,.41,1.32,1.1,1.32A1.67,1.67,0,0,0,50.61,8a.52.52,0,0,1,.17.38,1.93,1.93,0,0,1-1.15.31c-1,0-1.53-.67-1.53-2s.62-1.92,1.53-1.92A1.25,1.25,0,0,1,51,6.15a3,3,0,0,1-.08.72Zm1-1.68c-.57,0-1,.38-1,1.3h1.79a2.47,2.47,0,0,0,0-.4A.78.78,0,0,0,49.62,5.2Z"/><path class="cls-3" d="M55.73,3.46c.26,0,.33-.08.43-.25a.45.45,0,0,1,.35.18c-.09.32-.25.45-.66.52-1.34.26-1.85.38-1.94,1.75h0a1.24,1.24,0,0,1,1.24-.72c.9,0,1.48.54,1.48,1.86s-.58,1.86-1.54,1.86-1.6-.43-1.6-2.56S54.19,3.74,55.73,3.46ZM54.11,6.79c0,1.15.43,1.45,1,1.45s1-.3,1-1.45-.43-1.46-1-1.46S54.11,5.62,54.11,6.79Z"/><path class="cls-3" d="M58.89,4.78c1,0,1.28.49,1.28,1.43V8.54a.45.45,0,0,1-.21,0,.53.53,0,0,1-.21,0L59.68,8a1.23,1.23,0,0,1-1.19.64,1,1,0,0,1-1.1-1.13c0-.72.45-1.11,1.34-1.11a8,8,0,0,1,.93.06v-.4c0-.59-.25-.85-.84-.85a3.11,3.11,0,0,0-1,.18.34.34,0,0,1-.12-.16.54.54,0,0,1,0-.22A3.29,3.29,0,0,1,58.89,4.78Zm-.08,2c-.59,0-.88.23-.88.74a.65.65,0,0,0,.73.72,1,1,0,0,0,1-1.12V6.83C59.5,6.82,59.14,6.78,58.8,6.78Z"/><path class="cls-3" d="M63.6,4.85a.59.59,0,0,1,0,.44H62.49V8.54a.71.71,0,0,1-.26,0,.62.62,0,0,1-.25,0V5.29H60.88a.51.51,0,0,1,0-.44Z"/><path class="cls-3" d="M65.6,4.78c1,0,1.28.49,1.28,1.43V8.54a.45.45,0,0,1-.21,0,.53.53,0,0,1-.21,0L66.39,8a1.23,1.23,0,0,1-1.19.64,1,1,0,0,1-1.1-1.13c0-.72.45-1.11,1.34-1.11a8,8,0,0,1,.93.06v-.4c0-.59-.25-.85-.84-.85a3.11,3.11,0,0,0-1,.18.34.34,0,0,1-.12-.16.54.54,0,0,1,0-.22A3.29,3.29,0,0,1,65.6,4.78Zm-.08,2c-.59,0-.88.23-.88.74a.65.65,0,0,0,.73.72,1,1,0,0,0,1-1.12V6.83C66.21,6.82,65.85,6.78,65.51,6.78Z"/><path class="cls-3" d="M69.6,4.78c.83,0,1.36.49,1.36,1.94s-.53,1.94-1.36,1.94a1.16,1.16,0,0,1-1.09-.55v2.14a.95.95,0,0,1-.51,0V4.88a.95.95,0,0,1,.51,0v.45A1.16,1.16,0,0,1,69.6,4.78Zm-.17.43a1,1,0,0,0-.92,1v.92a1,1,0,0,0,.92,1.06c.7,0,1-.38,1-1.5S70.13,5.21,69.43,5.21Z"/><path class="cls-3" d="M72.3,6.88c0,1,.41,1.32,1.1,1.32A1.67,1.67,0,0,0,74.28,8a.52.52,0,0,1,.17.38,1.93,1.93,0,0,1-1.15.31c-1,0-1.53-.67-1.53-2s.62-1.92,1.53-1.92a1.25,1.25,0,0,1,1.35,1.38,3,3,0,0,1-.08.72Zm1-1.68c-.57,0-1,.38-1,1.3H74.1a2.47,2.47,0,0,0,0-.4A.78.78,0,0,0,73.3,5.2Z"/><path class="cls-3" d="M78.27,4.85a.82.82,0,0,1,.27,0V8.54a.76.76,0,0,1-.26,0,.89.89,0,0,1-.26,0v-2c0-.59,0-1,0-1h0a6.68,6.68,0,0,1-.48.84L76.12,8.54a.88.88,0,0,1-.28,0,.79.79,0,0,1-.26,0V4.88a.79.79,0,0,1,.26,0,.73.73,0,0,1,.25,0V6.93c0,.48,0,1,0,1h0a4.83,4.83,0,0,1,.32-.57L78,4.88A.82.82,0,0,1,78.27,4.85Z"/><circle class="cls-4" cx="7.2" cy="6.31" r="6.31"/><path class="cls-1" d="M3,12.58A8.13,8.13,0,0,1,2.84.1l.82,1A6.87,6.87,0,0,0,3.8,11.6Z"/><path class="cls-1" d="M11.39,12.58A8.13,8.13,0,0,0,11.55.1l-.82,1a6.87,6.87,0,0,1-.14,10.55Z"/><path class="cls-5" d="M4,8.74a2.78,2.78,0,0,1-1.27-.26A.91.91,0,0,1,3,7.82,3.53,3.53,0,0,0,4,8c.62,0,1-.16,1-.74s-.26-.72-.85-.72h-.6a1,1,0,0,1,0-.71h.6c.52,0,.7-.26.7-.62S4.49,4.52,4,4.52a2.45,2.45,0,0,0-.87.15A.67.67,0,0,1,2.83,4a2.69,2.69,0,0,1,1.23-.25c1,0,1.64.43,1.64,1.3a1.05,1.05,0,0,1-.57,1.06,1.17,1.17,0,0,1,.74,1.21C5.86,8.23,5.35,8.74,4,8.74Z"/><path class="cls-5" d="M7.55,8.61a1.43,1.43,0,0,1-.45.06,1.28,1.28,0,0,1-.45-.06V7.79a1.28,1.28,0,0,1,.45-.06,1.43,1.43,0,0,1,.45.06Z"/><path class="cls-5" d="M8.47,4A3.61,3.61,0,0,1,9.8,3.77c.89,0,1.62.38,1.62,1.34s-.51,1.23-1.36,1.74c-.39.24-.91.47-.91.91a.57.57,0,0,0,0,.11h2.11a.81.81,0,0,1,.08.4,1,1,0,0,1-.08.4H8.33a2.9,2.9,0,0,1,0-.48,2.29,2.29,0,0,1,1.37-2c.62-.43.84-.62.84-1.07s-.33-.62-.84-.62a3.19,3.19,0,0,0-.93.16A.7.7,0,0,1,8.47,4Z"/></g></svg>