<svg xmlns="http://www.w3.org/2000/svg" viewBox="0 0 107.32 12.62"><defs><style>.cls-1{fill:#000d21;}.cls-2,.cls-4{fill:#fff;}.cls-3{fill:#00bfce;}.cls-4{opacity:0.9;}.cls-5{fill:#00809e;}</style></defs><title>DOMUS в сайт</title><g id="Layer_1" data-name="Layer 1"><polygon class="cls-1" points="104.32 12.58 11.39 12.58 13.81 6.34 11.55 0.1 104.48 0.1 106.75 6.56 104.32 12.58"/><path class="cls-2" d="M18.13,3.39a2.61,2.61,0,0,1,1.19.23.5.5,0,0,1-.16.4,2.65,2.65,0,0,0-1-.18c-.89,0-1.49.48-1.49,2.18s.6,2.15,1.49,2.15a3,3,0,0,0,1-.18.58.58,0,0,1,.16.4,2.83,2.83,0,0,1-1.27.24c-1.32,0-2-.87-2-2.62S16.81,3.39,18.13,3.39Z"/><path class="cls-2" d="M22.79,5.81a.87.87,0,0,1-.46.84.9.9,0,0,1,.6.9c0,.65-.41,1-1.13,1H20.23V4.84h1.53A.92.92,0,0,1,22.79,5.81Zm-1.15.68a.58.58,0,0,0,.65-.64.57.57,0,0,0-.65-.62h-.9V6.49Zm.06,1.69c.45,0,.7-.22.7-.64a.61.61,0,0,0-.7-.67h-1V8.18Z"/><path class="cls-2" d="M24.25,6.87c0,1,.41,1.32,1.1,1.32A1.67,1.67,0,0,0,26.23,8a.52.52,0,0,1,.17.38,1.93,1.93,0,0,1-1.15.31c-1,0-1.53-.67-1.53-2s.62-1.92,1.53-1.92a1.25,1.25,0,0,1,1.35,1.38,3,3,0,0,1-.08.72Zm1-1.68c-.57,0-1,.38-1,1.3H26a2.47,2.47,0,0,0,0-.4A.78.78,0,0,0,25.24,5.18Z"/><path class="cls-2" d="M29.87,4.84a.58.58,0,0,1,0,.44H28.77V8.53a.72.72,0,0,1-.26,0,.63.63,0,0,1-.25,0V5.28H27.15a.51.51,0,0,1,0-.44Z"/><path class="cls-2" d="M31.9,4.77c1,0,1.52.53,1.52,1.94s-.57,1.94-1.52,1.94-1.52-.53-1.52-1.94S31,4.77,31.9,4.77Zm0,.4c-.61,0-1,.35-1,1.53s.38,1.53,1,1.53,1-.35,1-1.53S32.51,5.17,31.9,5.17Z"/><path class="cls-2" d="M37,5.81a.87.87,0,0,1-.46.84.9.9,0,0,1,.6.9c0,.65-.41,1-1.13,1H34.4V4.84h1.53A.92.92,0,0,1,37,5.81Zm-1.15.68a.58.58,0,0,0,.65-.64.57.57,0,0,0-.65-.62h-.9V6.49Zm.06,1.69c.45,0,.7-.22.7-.64a.61.61,0,0,0-.7-.67h-1V8.18Z"/><path class="cls-2" d="M38.31,4.84a.94.94,0,0,1,.25,0V6.39h1.09a1,1,0,0,1,1.11,1.09,1,1,0,0,1-1.11,1.09h-1.6V4.87A1.05,1.05,0,0,1,38.31,4.84Zm.25,3.34h1a.62.62,0,0,0,.67-.7.62.62,0,0,0-.67-.7h-1Zm3.19-3.34a.9.9,0,0,1,.25,0V8.53a.9.9,0,0,1-.25,0,1,1,0,0,1-.26,0V4.87A1,1,0,0,1,41.75,4.84Z"/><path class="cls-2" d="M43.51,6.87c0,1,.41,1.32,1.1,1.32A1.67,1.67,0,0,0,45.49,8a.52.52,0,0,1,.17.38,1.93,1.93,0,0,1-1.15.31c-1,0-1.53-.67-1.53-2s.62-1.92,1.53-1.92a1.25,1.25,0,0,1,1.35,1.38,3,3,0,0,1-.08.72Zm1-1.68c-.57,0-1,.38-1,1.3H45.3a2.47,2.47,0,0,0,0-.4A.78.78,0,0,0,44.5,5.18Z"/><path class="cls-2" d="M48.83,6.7c0,1,.35,1.48,1.11,1.48a1.71,1.71,0,0,0,.69-.13.51.51,0,0,1,.16.38,1.89,1.89,0,0,1-1,.21c-1,0-1.53-.67-1.53-1.94s.53-1.94,1.53-1.94a1.83,1.83,0,0,1,.89.17.5.5,0,0,1-.16.38,1.61,1.61,0,0,0-.65-.12C49.16,5.2,48.83,5.7,48.83,6.7Z"/><path class="cls-2" d="M54.15,4.84a.79.79,0,0,1,.26,0V8.14h.45V9.44a.72.72,0,0,1-.23,0,.79.79,0,0,1-.24,0V8.57H51.63V4.87a.94.94,0,0,1,.51,0V8.14h1.75V4.87A.78.78,0,0,1,54.15,4.84Z"/><path class="cls-2" d="M56,6.87c0,1,.41,1.32,1.1,1.32A1.67,1.67,0,0,0,58,8a.52.52,0,0,1,.17.38A1.93,1.93,0,0,1,57,8.64c-1,0-1.53-.67-1.53-2S56.11,4.77,57,4.77a1.25,1.25,0,0,1,1.35,1.38,3,3,0,0,1-.08.72Zm1-1.68c-.57,0-1,.38-1,1.3h1.79a2.47,2.47,0,0,0,0-.4A.78.78,0,0,0,57,5.18Z"/><path class="cls-2" d="M59.81,8.53a.93.93,0,0,1-.51,0V4.87a.95.95,0,0,1,.51,0V6.43h1.82V4.87a.79.79,0,0,1,.26,0,.74.74,0,0,1,.26,0V8.53a.75.75,0,0,1-.26,0,.71.71,0,0,1-.25,0V6.86H59.81Z"/><path class="cls-2" d="M64.53,4.77c1,0,1.28.49,1.28,1.43V8.53a.45.45,0,0,1-.21,0,.54.54,0,0,1-.21,0L65.32,8a1.23,1.23,0,0,1-1.19.64A1,1,0,0,1,63,7.5c0-.72.45-1.11,1.34-1.11a8,8,0,0,1,.93.06v-.4c0-.59-.25-.85-.84-.85a3.1,3.1,0,0,0-1,.18.34.34,0,0,1-.12-.16.54.54,0,0,1,0-.22A3.29,3.29,0,0,1,64.53,4.77Zm-.08,2c-.59,0-.88.23-.88.74a.65.65,0,0,0,.73.72,1,1,0,0,0,1-1.12V6.82C65.14,6.81,64.79,6.77,64.44,6.77Z"/><path class="cls-2" d="M68.54,4.77c.83,0,1.36.49,1.36,1.94s-.53,1.94-1.36,1.94a1.16,1.16,0,0,1-1.09-.55v2.14a.93.93,0,0,1-.51,0V4.87a.95.95,0,0,1,.51,0v.45A1.16,1.16,0,0,1,68.54,4.77Zm-.17.43a1,1,0,0,0-.92,1v.92a1,1,0,0,0,.92,1.06c.7,0,1-.38,1-1.5S69.06,5.2,68.37,5.2Z"/><path class="cls-2" d="M73.56,4.84a.82.82,0,0,1,.27,0V8.53a.77.77,0,0,1-.26,0,.9.9,0,0,1-.26,0v-2c0-.59,0-1,0-1h0a6.67,6.67,0,0,1-.48.84L71.41,8.53a.89.89,0,0,1-.28,0,.8.8,0,0,1-.26,0V4.87a.79.79,0,0,1,.26,0,.73.73,0,0,1,.25,0V6.92c0,.48,0,1,0,1h0a4.88,4.88,0,0,1,.32-.57l1.6-2.44A.82.82,0,0,1,73.56,4.84Z"/><path class="cls-2" d="M77.66,4.84a.82.82,0,0,1,.27,0V8.53a.77.77,0,0,1-.26,0,.9.9,0,0,1-.26,0v-2c0-.59,0-1,0-1h0a6.67,6.67,0,0,1-.48.84L75.51,8.53a.89.89,0,0,1-.28,0,.8.8,0,0,1-.26,0V4.87a.79.79,0,0,1,.26,0,.73.73,0,0,1,.25,0V6.92c0,.48,0,1,0,1h0a4.88,4.88,0,0,1,.32-.57l1.6-2.44A.82.82,0,0,1,77.66,4.84Z"/><path class="cls-2" d="M83.31,5.81a.87.87,0,0,1-.46.84.9.9,0,0,1,.6.9c0,.65-.41,1-1.13,1H80.75V4.84h1.53A.92.92,0,0,1,83.31,5.81Zm-1.15.68a.58.58,0,0,0,.65-.64.57.57,0,0,0-.65-.62h-.9V6.49Zm.06,1.69c.46,0,.7-.22.7-.64a.61.61,0,0,0-.7-.67h-1V8.18Z"/><path class="cls-2" d="M86,8.17c.2-.2.35-.6.43-1.65l.13-1.69h2.3V8.17h.45V9.44a.71.71,0,0,1-.22,0,1,1,0,0,1-.25,0V8.57H86.18v.87a.76.76,0,0,1-.23,0,.69.69,0,0,1-.23,0V8.17Zm.89-1.62a4.39,4.39,0,0,1-.33,1.62h1.79V5.25H87Z"/><path class="cls-2" d="M91.47,4.77c1,0,1.52.53,1.52,1.94s-.57,1.94-1.52,1.94S90,8.11,90,6.7,90.52,4.77,91.47,4.77Zm0,.4c-.61,0-1,.35-1,1.53s.38,1.53,1,1.53,1-.35,1-1.53S92.09,5.17,91.47,5.17Z"/><path class="cls-2" d="M97.3,4.84a1.09,1.09,0,0,1,.28,0V8.53a.63.63,0,0,1-.24,0,.72.72,0,0,1-.25,0V6.37a7.58,7.58,0,0,1,0-.84h0a5.15,5.15,0,0,1-.27.55l-1,1.63a.29.29,0,0,1-.13,0,.29.29,0,0,1-.13,0l-.91-1.6a4.79,4.79,0,0,1-.28-.59h0a5.47,5.47,0,0,1,0,.85V8.53a.73.73,0,0,1-.24,0,.71.71,0,0,1-.23,0V4.87a1.06,1.06,0,0,1,.28,0,.9.9,0,0,1,.28,0l1,1.77c.1.18.17.34.22.45h0A4.22,4.22,0,0,1,96,6.65l1-1.77A1.08,1.08,0,0,1,97.3,4.84Z"/><path class="cls-2" d="M99.08,6.87c0,1,.41,1.32,1.1,1.32a1.67,1.67,0,0,0,.88-.23.52.52,0,0,1,.17.38,1.93,1.93,0,0,1-1.15.31c-1,0-1.53-.67-1.53-2s.62-1.92,1.53-1.92a1.25,1.25,0,0,1,1.35,1.38,3,3,0,0,1-.08.72Zm1-1.68c-.57,0-1,.38-1,1.3h1.79a2.47,2.47,0,0,0,0-.4A.78.78,0,0,0,100.08,5.18Z"/><path class="cls-3" d="M104.32,12.58A8.12,8.12,0,0,0,104.48.1l-1.33,1.56A6.08,6.08,0,0,1,103,11Z"/><circle class="cls-4" cx="7.2" cy="6.31" r="6.31"/><path class="cls-1" d="M3,12.58A8.13,8.13,0,0,1,2.84.1l.82,1A6.87,6.87,0,0,0,3.8,11.6Z"/><path class="cls-1" d="M11.39,12.58A8.13,8.13,0,0,0,11.55.1l-.82,1a6.87,6.87,0,0,1-.14,10.55Z"/><path class="cls-5" d="M4.83,3.95a1.12,1.12,0,0,1,.44-.06,1.23,1.23,0,0,1,.45.06v4.7a1.2,1.2,0,0,1-.45.06,1.49,1.49,0,0,1-.46-.06V5.93c0-.35,0-.65,0-.89a2.82,2.82,0,0,1-1.11.52.85.85,0,0,1-.21-.74A2.2,2.2,0,0,0,4.83,3.95Z"/><path class="cls-5" d="M7.66,8.65a1.43,1.43,0,0,1-.45.06,1.28,1.28,0,0,1-.45-.06V7.83a1.28,1.28,0,0,1,.45-.06,1.43,1.43,0,0,1,.45.06Z"/><path class="cls-5" d="M9.25,3.95a1.12,1.12,0,0,1,.44-.06,1.23,1.23,0,0,1,.45.06v4.7a1.2,1.2,0,0,1-.45.06,1.49,1.49,0,0,1-.46-.06V5.93c0-.35,0-.65,0-.89a2.82,2.82,0,0,1-1.11.52.85.85,0,0,1-.21-.74A2.2,2.2,0,0,0,9.25,3.95Z"/></g></svg>