<svg xmlns="http://www.w3.org/2000/svg" viewBox="0 0 73.91 12.62"><defs><style>.cls-1{fill:#000d21;}.cls-2{fill:#00bfce;}.cls-3,.cls-5{fill:#fff;}.cls-3{opacity:0.9;}.cls-4{fill:#00809e;}</style></defs><title>DOMUS в сайт</title><g id="Layer_1" data-name="Layer 1"><polygon class="cls-1" points="70.9 12.59 11.39 12.59 13.81 6.35 11.55 0.1 71.06 0.1 73.34 6.57 70.9 12.59"/><path class="cls-2" d="M70.9,12.58A8.12,8.12,0,0,0,71.06.1L69.73,1.66A6.08,6.08,0,0,1,69.61,11Z"/><circle class="cls-3" cx="7.2" cy="6.31" r="6.31"/><path class="cls-1" d="M3,12.58A8.13,8.13,0,0,1,2.84.1l.82,1A6.87,6.87,0,0,0,3.8,11.6Z"/><path class="cls-1" d="M11.39,12.58A8.13,8.13,0,0,0,11.55.1l-.82,1a6.87,6.87,0,0,1-.14,10.55Z"/><path class="cls-4" d="M6.65,3.84a1.46,1.46,0,0,1,0,.5C6.63,5.95,5,6.44,5,8.62a2,2,0,0,1-.43,0,2.09,2.09,0,0,1-.43,0c0-2.33,1.39-2.85,1.67-4H3.68a1.17,1.17,0,0,1-.06-.4,1,1,0,0,1,.06-.39Z"/><path class="cls-4" d="M7.77,8.61a1.43,1.43,0,0,1-.45.06,1.28,1.28,0,0,1-.45-.06V7.79a1.28,1.28,0,0,1,.45-.06,1.43,1.43,0,0,1,.45.06Z"/><path class="cls-4" d="M9.36,3.91a1.12,1.12,0,0,1,.44-.06,1.23,1.23,0,0,1,.45.06V8.6a1.2,1.2,0,0,1-.45.06,1.49,1.49,0,0,1-.46-.06V5.89c0-.35,0-.65,0-.89a2.82,2.82,0,0,1-1.11.52A.85.85,0,0,1,8,4.79,2.2,2.2,0,0,0,9.36,3.91Z"/><path class="cls-5" d="M16.36,3.51a.59.59,0,0,1,.26,0,.64.64,0,0,1,.26,0v4.6H18.8V3.51a.53.53,0,0,1,.26,0,.6.6,0,0,1,.26,0v4.6h1.92V3.51a.56.56,0,0,1,.26,0,.64.64,0,0,1,.26,0V8.57H16.36Z"/><path class="cls-5" d="M25.37,4.84a.58.58,0,0,1,0,.44H24.27V8.54a.72.72,0,0,1-.26,0,.63.63,0,0,1-.25,0V5.28H22.65a.51.51,0,0,1,0-.44Z"/><path class="cls-5" d="M27.41,4.77c1,0,1.52.53,1.52,1.94s-.57,1.94-1.52,1.94-1.52-.53-1.52-1.94S26.45,4.77,27.41,4.77Zm0,.4c-.61,0-1,.35-1,1.53s.38,1.53,1,1.53,1-.35,1-1.53S28,5.18,27.41,5.18Z"/><path class="cls-5" d="M31.5,4.77c.83,0,1.36.49,1.36,1.94s-.53,1.94-1.36,1.94a1.16,1.16,0,0,1-1.09-.55v2.14a.93.93,0,0,1-.51,0V4.88a.95.95,0,0,1,.51,0v.45A1.16,1.16,0,0,1,31.5,4.77Zm-.17.43a1,1,0,0,0-.92,1v.92a1,1,0,0,0,.92,1.06c.7,0,1-.38,1-1.5S32,5.2,31.33,5.2Z"/><path class="cls-5" d="M34.1,4.84a.94.94,0,0,1,.25,0V6.4h1.09a1,1,0,0,1,1.11,1.09,1,1,0,0,1-1.11,1.09h-1.6V4.88A1.05,1.05,0,0,1,34.1,4.84Zm.25,3.34h1a.62.62,0,0,0,.67-.7.62.62,0,0,0-.67-.7h-1Zm3.19-3.34a.9.9,0,0,1,.25,0V8.54a.9.9,0,0,1-.25,0,1,1,0,0,1-.26,0V4.88A1,1,0,0,1,37.54,4.84Z"/><path class="cls-5" d="M38.81,9.23a1.12,1.12,0,0,0,.25-.66.52.52,0,0,1-.18,0V8a.92.92,0,0,1,.28,0,1,1,0,0,1,.29,0v.35a1.29,1.29,0,0,1-.44,1Z"/><path class="cls-5" d="M46.52,4.84a.78.78,0,0,1,.26,0l-1,1.71,1.22,1.94a.75.75,0,0,1-.29,0,.85.85,0,0,1-.29,0l-1.08-1.7h-.66V8.54a.78.78,0,0,1-.26,0,.73.73,0,0,1-.26,0V6.83h-.67l-1.08,1.7a.85.85,0,0,1-.29,0,.72.72,0,0,1-.29,0L43,6.59,42,4.88a.88.88,0,0,1,.27,0,.83.83,0,0,1,.27,0l1,1.55h.67V4.88a.74.74,0,0,1,.26,0,.84.84,0,0,1,.26,0V6.43h.67l1-1.55A.91.91,0,0,1,46.52,4.84Z"/><path class="cls-5" d="M48.91,4.77c1,0,1.28.49,1.28,1.43V8.54a.45.45,0,0,1-.21,0,.54.54,0,0,1-.21,0L49.7,8a1.23,1.23,0,0,1-1.19.64,1,1,0,0,1-1.1-1.14c0-.72.45-1.11,1.34-1.11a8,8,0,0,1,.93.06v-.4c0-.59-.25-.85-.84-.85a3.1,3.1,0,0,0-1,.18.34.34,0,0,1-.12-.16.54.54,0,0,1,0-.22A3.29,3.29,0,0,1,48.91,4.77Zm-.08,2c-.59,0-.88.23-.88.74a.65.65,0,0,0,.73.72,1,1,0,0,0,1-1.12V6.83C49.52,6.82,49.17,6.77,48.82,6.77Z"/><path class="cls-5" d="M51.18,8.62a.88.88,0,0,1-.26,0,.39.39,0,0,1,0-.18.55.55,0,0,1,0-.19.71.71,0,0,0,.21,0c.28,0,.49-.45.59-1.72l.13-1.65h2.24v3.7a.86.86,0,0,1-.25,0,.8.8,0,0,1-.26,0V5.25H52.29l-.1,1.26C52,8.36,51.66,8.62,51.18,8.62Z"/><path class="cls-5" d="M58.25,4.77c1,0,1.54.53,1.54,1.94s-.58,1.94-1.54,1.94S56.79,8.18,56.72,7h-1V8.54a.89.89,0,0,1-.25,0,1,1,0,0,1-.26,0V4.88a1,1,0,0,1,.26,0,.9.9,0,0,1,.25,0V6.52h1C56.77,5.26,57.34,4.77,58.25,4.77Zm0,.4c-.61,0-1,.35-1,1.53s.4,1.53,1,1.53,1-.35,1-1.53S58.86,5.18,58.25,5.18Z"/><path class="cls-5" d="M61.56,4.77c.92,0,1.3.4,1.3,1a.83.83,0,0,1-.52.87h0a.86.86,0,0,1,.62.88c0,.62-.35,1.09-1.5,1.09a2.5,2.5,0,0,1-1.08-.21.49.49,0,0,1,.15-.36,2.64,2.64,0,0,0,.92.14c.7,0,1-.23,1-.69s-.33-.65-.92-.65h-.45a.57.57,0,0,1,0-.21.5.5,0,0,1,0-.19h.45c.5,0,.82-.16.82-.65s-.28-.65-.87-.65a2.85,2.85,0,0,0-.85.12.46.46,0,0,1-.13-.36A2.68,2.68,0,0,1,61.56,4.77Z"/><path class="cls-5" d="M66.61,4.84a.82.82,0,0,1,.27,0V8.54a.77.77,0,0,1-.26,0,.9.9,0,0,1-.26,0v-2c0-.59,0-1,0-1h0a6.67,6.67,0,0,1-.48.84L64.46,8.54a.89.89,0,0,1-.28,0,.8.8,0,0,1-.26,0V4.88a.79.79,0,0,1,.26,0,.73.73,0,0,1,.25,0V6.93c0,.48,0,1,0,1h0a4.88,4.88,0,0,1,.32-.57l1.6-2.44A.82.82,0,0,1,66.61,4.84Z"/></g></svg>