<svg xmlns="http://www.w3.org/2000/svg" viewBox="0 0 106 12.62"><defs><style>.cls-1{fill:#000d21;}.cls-2{fill:#00bfce;}.cls-3,.cls-5{fill:#fff;}.cls-3{opacity:0.9;}.cls-4{fill:#00809e;}</style></defs><title>DOMUS в сайт</title><g id="Layer_1" data-name="Layer 1"><polygon class="cls-1" points="103 12.58 11.4 12.58 13.82 6.34 11.55 0.1 103.16 0.1 105.43 6.56 103 12.58"/><path class="cls-2" d="M103,12.58A8.12,8.12,0,0,0,103.16.1l-1.33,1.56A6.08,6.08,0,0,1,101.7,11Z"/><circle class="cls-3" cx="7.2" cy="6.31" r="6.31"/><path class="cls-1" d="M3,12.58A8.13,8.13,0,0,1,2.84.1l.82,1A6.87,6.87,0,0,0,3.8,11.6Z"/><path class="cls-1" d="M11.39,12.58A8.13,8.13,0,0,0,11.55.1l-.82,1a6.87,6.87,0,0,1-.14,10.55Z"/><path class="cls-4" d="M6.07,3.84a1.46,1.46,0,0,1,0,.5C6,5.95,4.4,6.44,4.4,8.62a2,2,0,0,1-.43,0,2.09,2.09,0,0,1-.43,0c0-2.33,1.39-2.85,1.67-4H3.09A1.17,1.17,0,0,1,3,4.23a1,1,0,0,1,.06-.39Z"/><path class="cls-4" d="M7.18,8.61a1.43,1.43,0,0,1-.45.06,1.28,1.28,0,0,1-.45-.06V7.79a1.28,1.28,0,0,1,.45-.06,1.43,1.43,0,0,1,.45.06Z"/><path class="cls-4" d="M9.19,8.74a2.78,2.78,0,0,1-1.27-.26.91.91,0,0,1,.22-.66,3.53,3.53,0,0,0,1,.15c.62,0,1-.16,1-.74s-.26-.72-.85-.72h-.6a1,1,0,0,1,0-.71h.6c.52,0,.7-.26.7-.62s-.29-.66-.82-.66a2.45,2.45,0,0,0-.87.15A.67.67,0,0,1,8,4,2.69,2.69,0,0,1,9.2,3.77c1,0,1.64.43,1.64,1.3a1.05,1.05,0,0,1-.57,1.06A1.17,1.17,0,0,1,11,7.34C11,8.23,10.5,8.74,9.19,8.74Z"/><path class="cls-5" d="M16.9,8.53a.83.83,0,0,1-.52,0V3.46h1.79A1.4,1.4,0,0,1,19.64,5,1.4,1.4,0,0,1,18.17,6.5H16.9ZM18.12,6a.93.93,0,0,0,1-1.06c0-.67-.35-1.08-1-1.08H16.9V6Z"/><path class="cls-5" d="M21.68,4.76c1,0,1.28.49,1.28,1.43V8.53a.45.45,0,0,1-.21,0,.54.54,0,0,1-.21,0L22.48,8a1.23,1.23,0,0,1-1.19.64,1,1,0,0,1-1.1-1.14c0-.72.45-1.11,1.34-1.11a8,8,0,0,1,.93.06v-.4c0-.59-.25-.85-.84-.85a3.1,3.1,0,0,0-1,.18.34.34,0,0,1-.12-.16.54.54,0,0,1,0-.22A3.29,3.29,0,0,1,21.68,4.76Zm-.08,2c-.59,0-.88.23-.88.74a.65.65,0,0,0,.73.72,1,1,0,0,0,1-1.12V6.82C22.29,6.81,21.94,6.77,21.6,6.77Z"/><path class="cls-5" d="M25,4.76c.92,0,1.3.4,1.3,1a.83.83,0,0,1-.52.87h0a.86.86,0,0,1,.62.88c0,.62-.35,1.09-1.5,1.09a2.5,2.5,0,0,1-1.08-.21.49.49,0,0,1,.15-.36,2.64,2.64,0,0,0,.92.14c.7,0,1-.23,1-.69s-.33-.65-.92-.65h-.45a.57.57,0,0,1,0-.21.5.5,0,0,1,0-.19h.45c.5,0,.82-.16.82-.65s-.28-.65-.87-.65A2.85,2.85,0,0,0,24,5.3a.46.46,0,0,1-.13-.36A2.68,2.68,0,0,1,25,4.76Z"/><path class="cls-5" d="M27.24,8.17c.2-.2.35-.6.43-1.65l.13-1.69h2.3V8.17h.45V9.44a.71.71,0,0,1-.22,0,1,1,0,0,1-.25,0V8.57H27.41v.87a.76.76,0,0,1-.23,0,.69.69,0,0,1-.23,0V8.17Zm.89-1.62a4.39,4.39,0,0,1-.33,1.62h1.79V5.25H28.23Z"/><path class="cls-5" d="M31.72,6.86c0,1,.41,1.32,1.1,1.32A1.67,1.67,0,0,0,33.7,8a.52.52,0,0,1,.17.38,1.93,1.93,0,0,1-1.15.31c-1,0-1.53-.67-1.53-2s.62-1.92,1.53-1.92a1.25,1.25,0,0,1,1.35,1.38,3,3,0,0,1-.08.72Zm1-1.68c-.57,0-1,.38-1,1.3h1.79a2.47,2.47,0,0,0,0-.4A.78.78,0,0,0,32.71,5.18Z"/><path class="cls-5" d="M34.86,8.61a.88.88,0,0,1-.26,0,.39.39,0,0,1,0-.18.55.55,0,0,1,0-.19.71.71,0,0,0,.21,0c.28,0,.49-.45.59-1.72l.13-1.65h2.24v3.7a.86.86,0,0,1-.25,0,.8.8,0,0,1-.26,0V5.25H36l-.1,1.26C35.71,8.36,35.34,8.61,34.86,8.61Z"/><path class="cls-5" d="M40.51,6.39a1,1,0,0,1,1.11,1.09,1,1,0,0,1-1.11,1.09h-1.6V4.87a1.05,1.05,0,0,1,.26,0,.94.94,0,0,1,.25,0V6.39Zm-.09,1.79a.62.62,0,0,0,.67-.7.62.62,0,0,0-.67-.7h-1v1.4Z"/><path class="cls-5" d="M43,8.53a.93.93,0,0,1-.51,0V4.87a.95.95,0,0,1,.51,0V6.43h1.82V4.87a.79.79,0,0,1,.26,0,.74.74,0,0,1,.26,0V8.53a.75.75,0,0,1-.26,0,.71.71,0,0,1-.25,0V6.86H43Z"/><path class="cls-5" d="M46.73,4.84a.94.94,0,0,1,.25,0V6.39h1.09a1,1,0,0,1,1.11,1.09,1,1,0,0,1-1.11,1.09h-1.6V4.87A1.05,1.05,0,0,1,46.73,4.84ZM47,8.18h1a.62.62,0,0,0,.67-.7.62.62,0,0,0-.67-.7H47Zm3.19-3.34a.9.9,0,0,1,.25,0V8.53a.9.9,0,0,1-.25,0,1,1,0,0,1-.26,0V4.87A1,1,0,0,1,50.17,4.84Z"/><path class="cls-5" d="M54.25,4.84a.82.82,0,0,1,.27,0V8.53a.77.77,0,0,1-.26,0,.9.9,0,0,1-.26,0v-2c0-.59,0-1,0-1h0a5.37,5.37,0,0,1-.33.6L52.1,8.53a.89.89,0,0,1-.28,0,.8.8,0,0,1-.26,0V4.87a.79.79,0,0,1,.26,0,.73.73,0,0,1,.25,0V6.92c0,.49,0,1,0,1h0a4.88,4.88,0,0,1,.32-.57L54,4.87A.82.82,0,0,1,54.25,4.84Zm-.43-1.35a.37.37,0,0,1,.23.26,1.31,1.31,0,0,1-1,.43,1.33,1.33,0,0,1-1-.43.38.38,0,0,1,.23-.26,1.27,1.27,0,0,0,1.55,0Z"/><path class="cls-5" d="M60.68,4.84a1.09,1.09,0,0,1,.28,0V8.53a.63.63,0,0,1-.24,0,.72.72,0,0,1-.25,0V6.37a7.58,7.58,0,0,1,0-.84h0a5.15,5.15,0,0,1-.27.55l-1,1.63a.29.29,0,0,1-.13,0,.29.29,0,0,1-.13,0l-.91-1.6a4.79,4.79,0,0,1-.28-.59h0a5.47,5.47,0,0,1,0,.85V8.53a.73.73,0,0,1-.24,0,.71.71,0,0,1-.23,0V4.87a1.05,1.05,0,0,1,.28,0,.9.9,0,0,1,.28,0l1,1.77c.1.18.17.34.22.45h0a4.22,4.22,0,0,1,.22-.45l1-1.77A1.08,1.08,0,0,1,60.68,4.84Z"/><path class="cls-5" d="M64.78,4.84a.82.82,0,0,1,.27,0V8.53a.77.77,0,0,1-.26,0,.9.9,0,0,1-.26,0v-2c0-.59,0-1,0-1h0a6.67,6.67,0,0,1-.48.84L62.63,8.53a.89.89,0,0,1-.28,0,.8.8,0,0,1-.26,0V4.87a.79.79,0,0,1,.26,0,.73.73,0,0,1,.25,0V6.92c0,.48,0,1,0,1h0a4.88,4.88,0,0,1,.32-.57l1.6-2.44A.82.82,0,0,1,64.78,4.84Z"/><path class="cls-5" d="M68.34,4.87a1,1,0,0,1,.28,0,.84.84,0,0,1,.26,0L67.72,6.58,69,8.53a.83.83,0,0,1-.3,0,.79.79,0,0,1-.28,0l-1.16-1.7H66.7V8.53a.75.75,0,0,1-.25,0,.8.8,0,0,1-.26,0V4.87a.81.81,0,0,1,.26,0,.76.76,0,0,1,.25,0V6.42h.6Z"/><path class="cls-5" d="M71.34,4.76c.83,0,1.36.49,1.36,1.94s-.53,1.94-1.36,1.94a1.16,1.16,0,0,1-1.09-.55v2.14a.93.93,0,0,1-.51,0V4.87a.95.95,0,0,1,.51,0v.45A1.16,1.16,0,0,1,71.34,4.76Zm-.17.43a1,1,0,0,0-.92,1v.92a1,1,0,0,0,.92,1.06c.7,0,1-.38,1-1.5S71.86,5.2,71.17,5.2Z"/><path class="cls-5" d="M75,4.76c1,0,1.52.53,1.52,1.94S76,8.64,75,8.64s-1.52-.53-1.52-1.94S74.08,4.76,75,4.76Zm0,.4c-.61,0-1,.35-1,1.53s.38,1.53,1,1.53,1-.35,1-1.53S75.64,5.17,75,5.17Z"/><path class="cls-5" d="M79.68,4.87a1,1,0,0,1,.28,0,.84.84,0,0,1,.26,0L79.06,6.58l1.31,1.94a.83.83,0,0,1-.3,0,.79.79,0,0,1-.28,0l-1.16-1.7H78V8.53a.75.75,0,0,1-.25,0,.8.8,0,0,1-.26,0V4.87a.81.81,0,0,1,.26,0,.76.76,0,0,1,.25,0V6.42h.6Z"/><path class="cls-5" d="M80.94,8.61a.88.88,0,0,1-.26,0,.39.39,0,0,1,0-.18.55.55,0,0,1,0-.19.71.71,0,0,0,.21,0c.28,0,.49-.45.59-1.72l.13-1.65h2.24v3.7a.86.86,0,0,1-.25,0,.8.8,0,0,1-.26,0V5.25H82l-.1,1.26C81.79,8.36,81.42,8.61,80.94,8.61Z"/><path class="cls-5" d="M87.68,4.84a.82.82,0,0,1,.27,0V8.53a.77.77,0,0,1-.26,0,.9.9,0,0,1-.26,0v-2c0-.59,0-1,0-1h0a6.67,6.67,0,0,1-.48.84L85.53,8.53a.89.89,0,0,1-.28,0,.8.8,0,0,1-.26,0V4.87a.79.79,0,0,1,.26,0,.73.73,0,0,1,.25,0V6.92c0,.48,0,1,0,1h0a4.88,4.88,0,0,1,.32-.57l1.6-2.44A.82.82,0,0,1,87.68,4.84Z"/><path class="cls-5" d="M92.42,4.84a1.09,1.09,0,0,1,.28,0V8.53a.63.63,0,0,1-.24,0,.72.72,0,0,1-.25,0V6.37a7.58,7.58,0,0,1,0-.84h0a5.15,5.15,0,0,1-.27.55L91,7.71a.29.29,0,0,1-.13,0,.29.29,0,0,1-.13,0l-.91-1.6a4.79,4.79,0,0,1-.28-.59h0a5.47,5.47,0,0,1,0,.85V8.53a.73.73,0,0,1-.24,0,.71.71,0,0,1-.23,0V4.87a1.06,1.06,0,0,1,.28,0,.9.9,0,0,1,.28,0l1,1.77c.1.18.17.34.22.45h0a4.22,4.22,0,0,1,.22-.45l1-1.77A1.08,1.08,0,0,1,92.42,4.84Z"/><path class="cls-5" d="M95.09,4.76c1,0,1.28.49,1.28,1.43V8.53a.45.45,0,0,1-.21,0,.54.54,0,0,1-.21,0L95.89,8a1.23,1.23,0,0,1-1.19.64A1,1,0,0,1,93.6,7.5c0-.72.45-1.11,1.34-1.11a8,8,0,0,1,.93.06v-.4c0-.59-.25-.85-.84-.85a3.1,3.1,0,0,0-1,.18.34.34,0,0,1-.12-.16.54.54,0,0,1,0-.22A3.29,3.29,0,0,1,95.09,4.76Zm-.08,2c-.59,0-.88.23-.88.74a.65.65,0,0,0,.73.72,1,1,0,0,0,1-1.12V6.82C95.7,6.81,95.35,6.77,95,6.77Z"/><path class="cls-5" d="M99.81,4.84a.58.58,0,0,1,0,.44H98.7V8.53a.72.72,0,0,1-.26,0,.63.63,0,0,1-.25,0V5.28H97.08a.51.51,0,0,1,0-.44Z"/></g></svg>