<svg xmlns="http://www.w3.org/2000/svg" viewBox="0 0 70.76 12.62"><defs><style>.cls-1{fill:#000d21;}.cls-2,.cls-4{fill:#fff;}.cls-3{fill:#00bfce;}.cls-4{opacity:0.9;}.cls-5{fill:#00809e;}</style></defs><title>DOMUS в сайт</title><g id="Layer_1" data-name="Layer 1"><polygon class="cls-1" points="67.75 12.57 11.39 12.57 13.81 6.33 11.55 0.09 67.91 0.09 70.19 6.55 67.75 12.57"/><path class="cls-2" d="M18.13,3.38a2.61,2.61,0,0,1,1.19.23.5.5,0,0,1-.16.4,2.65,2.65,0,0,0-1-.18c-.89,0-1.49.48-1.49,2.18s.6,2.15,1.49,2.15a3,3,0,0,0,1-.18.58.58,0,0,1,.16.4,2.83,2.83,0,0,1-1.27.24c-1.32,0-2-.87-2-2.62S16.81,3.38,18.13,3.38Z"/><path class="cls-2" d="M20.1,8.6a.88.88,0,0,1-.26,0,.39.39,0,0,1,0-.18.55.55,0,0,1,0-.19.71.71,0,0,0,.21,0c.28,0,.49-.45.59-1.72l.13-1.65H23v3.7a.86.86,0,0,1-.25,0,.8.8,0,0,1-.26,0V5.24H21.21l-.1,1.26C20.95,8.35,20.58,8.6,20.1,8.6Z"/><path class="cls-2" d="M24.51,6.86c0,1,.41,1.32,1.1,1.32a1.67,1.67,0,0,0,.88-.23.52.52,0,0,1,.17.38,1.93,1.93,0,0,1-1.15.31c-1,0-1.53-.67-1.53-2s.62-1.92,1.53-1.92a1.25,1.25,0,0,1,1.35,1.38,3,3,0,0,1-.08.72Zm1-1.68c-.57,0-1,.38-1,1.3h1.79a2.47,2.47,0,0,0,0-.4A.78.78,0,0,0,25.5,5.18Z"/><path class="cls-2" d="M27.69,8.16c.2-.2.35-.6.43-1.65l.13-1.69h2.3V8.16H31V9.43a.71.71,0,0,1-.22,0,1,1,0,0,1-.25,0V8.56H27.87v.87a.76.76,0,0,1-.23,0,.69.69,0,0,1-.23,0V8.16Zm.89-1.62a4.39,4.39,0,0,1-.33,1.62H30V5.24H28.69Z"/><path class="cls-2" d="M32.17,8.53a1.22,1.22,0,0,1-.31,0,1,1,0,0,1-.28,0L32.45,7a1,1,0,0,1-.7-1,1.07,1.07,0,0,1,1.18-1.12h1.5v3.7a1,1,0,0,1-.25,0,.9.9,0,0,1-.26,0V7.06H33ZM32.27,6a.67.67,0,0,0,.75.72h.89V5.22H33A.66.66,0,0,0,32.27,6Z"/><path class="cls-2" d="M40.38,9.43a.79.79,0,0,1-.47,0V8.56H35.56V4.87a.64.64,0,0,1,.26,0,.68.68,0,0,1,.25,0V8.13h1.42V4.87a.62.62,0,0,1,.25,0,.76.76,0,0,1,.26,0V8.13h1.42V4.87a.63.63,0,0,1,.25,0,.73.73,0,0,1,.26,0V8.13h.45Z"/><path class="cls-2" d="M43.93,4.83a.82.82,0,0,1,.27,0V8.53a.77.77,0,0,1-.26,0,.9.9,0,0,1-.26,0v-2c0-.59,0-1,0-1h0a6.67,6.67,0,0,1-.48.84L41.78,8.53a.89.89,0,0,1-.28,0,.8.8,0,0,1-.26,0V4.87a.79.79,0,0,1,.26,0,.73.73,0,0,1,.25,0V6.92c0,.48,0,1,0,1h0a4.88,4.88,0,0,1,.32-.57l1.6-2.44A.82.82,0,0,1,43.93,4.83Z"/><path class="cls-2" d="M48,4.83a.82.82,0,0,1,.27,0V8.53a.77.77,0,0,1-.26,0,.9.9,0,0,1-.26,0v-2c0-.59,0-1,0-1h0a5.37,5.37,0,0,1-.33.6L45.88,8.53a.89.89,0,0,1-.28,0,.8.8,0,0,1-.26,0V4.87a.79.79,0,0,1,.26,0,.73.73,0,0,1,.25,0V6.92c0,.49,0,1,0,1h0a4.88,4.88,0,0,1,.32-.57l1.6-2.44A.82.82,0,0,1,48,4.83ZM47.6,3.48a.37.37,0,0,1,.23.26,1.31,1.31,0,0,1-1,.43,1.33,1.33,0,0,1-1-.43.38.38,0,0,1,.23-.26,1.27,1.27,0,0,0,1.55,0Z"/><path class="cls-2" d="M52,4.76c.92,0,1.3.4,1.3,1a.83.83,0,0,1-.52.87h0a.86.86,0,0,1,.62.88c0,.62-.35,1.09-1.5,1.09a2.5,2.5,0,0,1-1.08-.21A.49.49,0,0,1,51,8.07a2.64,2.64,0,0,0,.92.14c.7,0,1-.23,1-.69s-.33-.65-.92-.65h-.45a.57.57,0,0,1,0-.21.5.5,0,0,1,0-.19H52c.5,0,.82-.16.82-.65s-.28-.65-.87-.65a2.85,2.85,0,0,0-.85.12.46.46,0,0,1-.13-.36A2.68,2.68,0,0,1,52,4.76Z"/><path class="cls-2" d="M56.93,5.8a.87.87,0,0,1-.46.84.9.9,0,0,1,.6.9c0,.65-.41,1-1.13,1H54.37V4.83H55.9A.92.92,0,0,1,56.93,5.8Zm-1.15.68a.58.58,0,0,0,.65-.64.57.57,0,0,0-.65-.62h-.9V6.48Zm.06,1.69c.45,0,.7-.22.7-.64a.61.61,0,0,0-.7-.67h-1V8.17Z"/><path class="cls-2" d="M59.4,9.25c-.23.68-.46,1.09-1.1,1.09a1.12,1.12,0,0,1-.36-.06.51.51,0,0,1,0-.2.43.43,0,0,1,0-.21,1.34,1.34,0,0,0,.31,0c.3,0,.47-.13.68-.75l.21-.6a.49.49,0,0,1-.17,0L57.56,4.87a1.05,1.05,0,0,1,.54,0l1,2.43c.17.44.25.76.25.76h0s.08-.31.23-.76l.84-2.43a.68.68,0,0,1,.25,0,.78.78,0,0,1,.26,0Z"/><path class="cls-2" d="M63.81,4.87a1,1,0,0,1,.28,0,.84.84,0,0,1,.26,0L63.19,6.58l1.31,1.94a.83.83,0,0,1-.3,0,.79.79,0,0,1-.28,0l-1.16-1.7h-.59V8.53a.75.75,0,0,1-.25,0,.8.8,0,0,1-.26,0V4.87a.81.81,0,0,1,.26,0,.76.76,0,0,1,.25,0V6.41h.6Z"/><path class="cls-3" d="M67.75,12.57A8.12,8.12,0,0,0,67.91.09L66.58,1.65A6.08,6.08,0,0,1,66.46,11Z"/><circle class="cls-4" cx="7.2" cy="6.31" r="6.31"/><path class="cls-1" d="M3,12.58A8.13,8.13,0,0,1,2.84.1l.82,1A6.87,6.87,0,0,0,3.8,11.6Z"/><path class="cls-1" d="M11.39,12.58A8.13,8.13,0,0,0,11.55.1l-.82,1a6.87,6.87,0,0,1-.14,10.55Z"/><path class="cls-5" d="M5,3.95a1.3,1.3,0,0,1,.45-.06,1.1,1.1,0,0,1,.43.06V6.83h.58a1,1,0,0,1,0,.71H5.85V8.64a1.18,1.18,0,0,1-.41.06A1.37,1.37,0,0,1,5,8.64V7.54H2.84a.92.92,0,0,1,0-.71ZM3.72,6.83H5V5.1Z"/><path class="cls-5" d="M8,8.65a1.43,1.43,0,0,1-.45.06,1.28,1.28,0,0,1-.45-.06V7.83a1.28,1.28,0,0,1,.45-.06A1.43,1.43,0,0,1,8,7.83Z"/><path class="cls-5" d="M9.63,3.95a1.12,1.12,0,0,1,.44-.06,1.23,1.23,0,0,1,.45.06v4.7a1.2,1.2,0,0,1-.45.06,1.49,1.49,0,0,1-.46-.06V5.93c0-.35,0-.65,0-.89a2.82,2.82,0,0,1-1.11.52.85.85,0,0,1-.21-.74A2.2,2.2,0,0,0,9.63,3.95Z"/></g></svg>