<svg xmlns="http://www.w3.org/2000/svg" viewBox="0 0 86.76 12.62"><defs><style>.cls-1{fill:#000d21;}.cls-2{fill:#00bfce;}.cls-3,.cls-5{fill:#fff;}.cls-3{opacity:0.9;}.cls-4{fill:#00809e;}</style></defs><title>DOMUS в сайт</title><g id="Layer_1" data-name="Layer 1"><polygon class="cls-1" points="83.76 12.58 11.39 12.58 13.81 6.34 11.55 0.1 83.92 0.1 86.19 6.56 83.76 12.58"/><path class="cls-2" d="M83.76,12.58A8.12,8.12,0,0,0,83.92.1L82.58,1.65A6.08,6.08,0,0,1,82.46,11Z"/><circle class="cls-3" cx="7.2" cy="6.31" r="6.31"/><path class="cls-1" d="M3,12.58A8.13,8.13,0,0,1,2.84.1l.82,1A6.87,6.87,0,0,0,3.8,11.6Z"/><path class="cls-1" d="M11.39,12.58A8.13,8.13,0,0,0,11.55.1l-.82,1a6.87,6.87,0,0,1-.14,10.55Z"/><path class="cls-4" d="M3.92,5.76h.26c1.06,0,1.65.44,1.65,1.48S5.23,8.74,4,8.74a2.23,2.23,0,0,1-1.23-.26A.91.91,0,0,1,3,7.82,2.68,2.68,0,0,0,3.9,8c.64,0,1-.2,1-.74s-.33-.75-1.07-.75c-.27,0-.53,0-.8,0V3.84H5.63a1.14,1.14,0,0,1,0,.78H3.92Z"/><path class="cls-4" d="M7.51,8.61a1.43,1.43,0,0,1-.45.06,1.28,1.28,0,0,1-.45-.06V7.79a1.28,1.28,0,0,1,.45-.06,1.43,1.43,0,0,1,.45.06Z"/><path class="cls-4" d="M9.51,8.74a2.78,2.78,0,0,1-1.27-.26.91.91,0,0,1,.22-.66,3.53,3.53,0,0,0,1,.15c.62,0,1-.16,1-.74s-.26-.72-.85-.72H9A1,1,0,0,1,9,5.8h.6c.52,0,.7-.26.7-.62s-.29-.66-.82-.66a2.45,2.45,0,0,0-.87.15A.67.67,0,0,1,8.3,4a2.69,2.69,0,0,1,1.23-.25c1,0,1.64.43,1.64,1.3a1.05,1.05,0,0,1-.57,1.06,1.17,1.17,0,0,1,.74,1.21C11.34,8.23,10.83,8.74,9.51,8.74Z"/><path class="cls-5" d="M18,3.46a.85.85,0,0,1,.29,0l1.88,5a.76.76,0,0,1-.29,0,.62.62,0,0,1-.25,0l-.51-1.36H16.83l-.52,1.36a.62.62,0,0,1-.26,0,.56.56,0,0,1-.25,0l1.88-5A.9.9,0,0,1,18,3.46Zm0,.61a4,4,0,0,1-.14.49L17,6.73h2l-.82-2.17A4.13,4.13,0,0,1,18,4.07Z"/><path class="cls-5" d="M23.41,5.81a.87.87,0,0,1-.46.84.9.9,0,0,1,.6.9c0,.65-.41,1-1.13,1H20.85V4.84h1.53A.92.92,0,0,1,23.41,5.81Zm-1.15.68a.58.58,0,0,0,.65-.64.57.57,0,0,0-.65-.62h-.9V6.49Zm.06,1.69c.46,0,.7-.22.7-.64a.61.61,0,0,0-.7-.67h-1V8.18Z"/><path class="cls-5" d="M26.83,4.84a.58.58,0,0,1,0,.44H25.72V8.53a.72.72,0,0,1-.26,0,.63.63,0,0,1-.25,0V5.28H24.1a.51.51,0,0,1,0-.44Z"/><path class="cls-5" d="M28.86,4.76c1,0,1.52.53,1.52,1.94s-.57,1.94-1.52,1.94-1.52-.53-1.52-1.94S27.91,4.76,28.86,4.76Zm0,.4c-.61,0-1,.35-1,1.53s.38,1.53,1,1.53,1-.35,1-1.53S29.47,5.17,28.86,5.17Z"/><path class="cls-5" d="M31.87,8.53a.77.77,0,0,1-.25,0,.78.78,0,0,1-.26,0V4.84h2.76v3.7a.73.73,0,0,1-.26,0,.83.83,0,0,1-.26,0V5.27H31.87Z"/><path class="cls-5" d="M36.61,4.76c1,0,1.52.53,1.52,1.94s-.57,1.94-1.52,1.94-1.52-.53-1.52-1.94S35.66,4.76,36.61,4.76Zm0,.4c-.61,0-1,.35-1,1.53s.38,1.53,1,1.53,1-.35,1-1.53S37.22,5.17,36.61,5.17Z"/><path class="cls-5" d="M38.9,8.61a.88.88,0,0,1-.26,0,.39.39,0,0,1,0-.18.55.55,0,0,1,0-.19.71.71,0,0,0,.21,0c.28,0,.49-.45.59-1.72l.13-1.65h2.24v3.7a.86.86,0,0,1-.25,0,.8.8,0,0,1-.26,0V5.25H40l-.1,1.26C39.75,8.36,39.38,8.61,38.9,8.61Z"/><path class="cls-5" d="M45.64,4.84a.82.82,0,0,1,.27,0V8.53a.77.77,0,0,1-.26,0,.9.9,0,0,1-.26,0v-2c0-.59,0-1,0-1h0a6.67,6.67,0,0,1-.48.84L43.49,8.53a.89.89,0,0,1-.28,0,.8.8,0,0,1-.26,0V4.87a.79.79,0,0,1,.26,0,.73.73,0,0,1,.25,0V6.92c0,.48,0,1,0,1h0a4.88,4.88,0,0,1,.32-.57l1.6-2.44A.82.82,0,0,1,45.64,4.84Z"/><path class="cls-5" d="M49.61,5.81a.87.87,0,0,1-.46.84.9.9,0,0,1,.6.9c0,.65-.41,1-1.13,1H47V4.84h1.53A.92.92,0,0,1,49.61,5.81Zm-1.15.68a.58.58,0,0,0,.65-.64.57.57,0,0,0-.65-.62h-.9V6.49Zm.06,1.69c.46,0,.7-.22.7-.64a.61.61,0,0,0-.7-.67h-1V8.18Z"/><path class="cls-5" d="M54,4.76c.83,0,1.36.49,1.36,1.94S54.82,8.64,54,8.64a1.16,1.16,0,0,1-1.09-.55v2.14a.93.93,0,0,1-.51,0V4.87a.95.95,0,0,1,.51,0v.45A1.16,1.16,0,0,1,54,4.76Zm-.17.43a1,1,0,0,0-.92,1v.92a1,1,0,0,0,.92,1.06c.7,0,1-.38,1-1.5S54.52,5.2,53.82,5.2Z"/><path class="cls-5" d="M57.59,4.76c1,0,1.28.49,1.28,1.43V8.53a.45.45,0,0,1-.21,0,.54.54,0,0,1-.21,0L58.38,8a1.23,1.23,0,0,1-1.19.64,1,1,0,0,1-1.1-1.14c0-.72.45-1.11,1.34-1.11a8,8,0,0,1,.93.06v-.4c0-.59-.25-.85-.84-.85a3.1,3.1,0,0,0-1,.18.34.34,0,0,1-.12-.16.54.54,0,0,1,0-.22A3.29,3.29,0,0,1,57.59,4.76Zm-.08,2c-.59,0-.88.23-.88.74a.65.65,0,0,0,.73.72,1,1,0,0,0,1-1.12V6.82C58.2,6.81,57.84,6.77,57.5,6.77Z"/><path class="cls-5" d="M60.35,6.7c0,1,.35,1.48,1.11,1.48A1.7,1.7,0,0,0,62.15,8a.51.51,0,0,1,.16.38,1.89,1.89,0,0,1-1,.21c-1,0-1.53-.67-1.53-1.94s.53-1.94,1.53-1.94a1.83,1.83,0,0,1,.89.17.5.5,0,0,1-.16.38,1.61,1.61,0,0,0-.65-.12C60.68,5.2,60.35,5.69,60.35,6.7Z"/><path class="cls-5" d="M65.53,4.84a.58.58,0,0,1,0,.44H64.43V8.53a.72.72,0,0,1-.26,0,.63.63,0,0,1-.25,0V5.28H62.81a.51.51,0,0,1,0-.44Z"/><path class="cls-5" d="M66.57,6.86c0,1,.41,1.32,1.1,1.32A1.67,1.67,0,0,0,68.55,8a.52.52,0,0,1,.17.38,1.93,1.93,0,0,1-1.15.31c-1,0-1.53-.67-1.53-2s.62-1.92,1.53-1.92a1.25,1.25,0,0,1,1.35,1.38,3,3,0,0,1-.08.72Zm1-1.68c-.57,0-1,.38-1,1.3h1.79a2.47,2.47,0,0,0,0-.4A.78.78,0,0,0,67.57,5.18Z"/><path class="cls-5" d="M70.36,8.53a.93.93,0,0,1-.51,0V4.87a.95.95,0,0,1,.51,0V6.43h1.82V4.87a.79.79,0,0,1,.26,0,.73.73,0,0,1,.25,0V8.53a.74.74,0,0,1-.26,0,.71.71,0,0,1-.25,0V6.86H70.36Z"/><path class="cls-5" d="M76.51,4.84a.82.82,0,0,1,.27,0V8.53a.77.77,0,0,1-.26,0,.9.9,0,0,1-.26,0v-2c0-.59,0-1,0-1h0a6.67,6.67,0,0,1-.48.84L74.36,8.53a.89.89,0,0,1-.28,0,.8.8,0,0,1-.26,0V4.87a.79.79,0,0,1,.26,0,.73.73,0,0,1,.25,0V6.92c0,.48,0,1,0,1h0a4.88,4.88,0,0,1,.32-.57l1.6-2.44A.82.82,0,0,1,76.51,4.84Z"/><path class="cls-5" d="M80.61,4.84a.82.82,0,0,1,.27,0V8.53a.77.77,0,0,1-.26,0,.9.9,0,0,1-.26,0v-2c0-.59,0-1,0-1h0a5.37,5.37,0,0,1-.33.6L78.46,8.53a.89.89,0,0,1-.28,0,.8.8,0,0,1-.26,0V4.87a.79.79,0,0,1,.26,0,.73.73,0,0,1,.25,0V6.92c0,.49,0,1,0,1h0a4.88,4.88,0,0,1,.32-.57l1.6-2.44A.82.82,0,0,1,80.61,4.84Zm-.43-1.35a.37.37,0,0,1,.23.26,1.31,1.31,0,0,1-1,.43,1.33,1.33,0,0,1-1-.43.38.38,0,0,1,.23-.26,1.27,1.27,0,0,0,1.55,0Z"/></g></svg>