<svg xmlns="http://www.w3.org/2000/svg" viewBox="0 0 124.56 12.62"><defs><style>.cls-1{fill:#000d21;}.cls-2{fill:#00bfce;}.cls-3,.cls-5{fill:#fff;}.cls-3{opacity:0.9;}.cls-4{fill:#00809e;}</style></defs><title>DOMUS в сайт</title><g id="Layer_1" data-name="Layer 1"><polygon class="cls-1" points="121.55 12.58 11.38 12.58 13.8 6.34 11.54 0.1 121.71 0.1 123.99 6.56 121.55 12.58"/><path class="cls-2" d="M121.55,12.58A8.12,8.12,0,0,0,121.71.1l-1.33,1.56a6.08,6.08,0,0,1-.12,9.33Z"/><circle class="cls-3" cx="7.2" cy="6.31" r="6.31"/><path class="cls-1" d="M3,12.58A8.13,8.13,0,0,1,2.84.1l.82,1A6.87,6.87,0,0,0,3.8,11.6Z"/><path class="cls-1" d="M11.39,12.58A8.13,8.13,0,0,0,11.55.1l-.82,1a6.87,6.87,0,0,1-.14,10.55Z"/><path class="cls-4" d="M3.92,5.76h.26c1.06,0,1.65.44,1.65,1.48S5.23,8.74,4,8.74a2.23,2.23,0,0,1-1.23-.26A.91.91,0,0,1,3,7.82,2.68,2.68,0,0,0,3.9,8c.64,0,1-.2,1-.74s-.33-.75-1.07-.75c-.27,0-.53,0-.8,0V3.84H5.63a1.14,1.14,0,0,1,0,.78H3.92Z"/><path class="cls-4" d="M7.51,8.61a1.43,1.43,0,0,1-.45.06,1.28,1.28,0,0,1-.45-.06V7.79a1.28,1.28,0,0,1,.45-.06,1.43,1.43,0,0,1,.45.06Z"/><path class="cls-4" d="M8.43,4a3.61,3.61,0,0,1,1.33-.25c.89,0,1.62.38,1.62,1.34S10.86,6.34,10,6.85c-.39.24-.91.47-.91.91a.57.57,0,0,0,0,.11h2.11a.81.81,0,0,1,.08.4,1,1,0,0,1-.08.4H8.29a2.9,2.9,0,0,1,0-.48,2.29,2.29,0,0,1,1.37-2c.62-.43.84-.62.84-1.07s-.33-.62-.84-.62a3.19,3.19,0,0,0-.93.16A.7.7,0,0,1,8.43,4Z"/><path class="cls-5" d="M19.14,3.5a.78.78,0,0,1,.27,0,.88.88,0,0,1,.28,0L18,5.86l1.85,2.67a.85.85,0,0,1-.3,0,1,1,0,0,1-.31,0L17.61,6.13h-.73V8.52a.6.6,0,0,1-.26,0,.68.68,0,0,1-.26,0v-5a.7.7,0,0,1,.27,0,.62.62,0,0,1,.25,0V5.69h.72Z"/><path class="cls-5" d="M21.78,4.76c1,0,1.52.53,1.52,1.94s-.57,1.94-1.52,1.94-1.52-.53-1.52-1.94S20.83,4.76,21.78,4.76Zm0,.4c-.61,0-1,.35-1,1.53s.38,1.53,1,1.53,1-.35,1-1.53S22.39,5.17,21.78,5.17Z"/><path class="cls-5" d="M24.78,8.53a.93.93,0,0,1-.51,0V4.87a.95.95,0,0,1,.51,0V6.43H26.6V4.87a.79.79,0,0,1,.26,0,.73.73,0,0,1,.25,0V8.53a.74.74,0,0,1-.26,0,.71.71,0,0,1-.25,0V6.86H24.78Z"/><path class="cls-5" d="M30.63,4.84a.58.58,0,0,1,0,.44H29.52V8.53a.72.72,0,0,1-.26,0,.63.63,0,0,1-.25,0V5.27H27.9a.51.51,0,0,1,0-.44Z"/><path class="cls-5" d="M33,4.76c.83,0,1.36.49,1.36,1.94S33.84,8.64,33,8.64a1.16,1.16,0,0,1-1.09-.55v2.14a.93.93,0,0,1-.51,0V4.87a.95.95,0,0,1,.51,0v.45A1.16,1.16,0,0,1,33,4.76Zm-.17.43a1,1,0,0,0-.92,1v.92a1,1,0,0,0,.92,1.06c.7,0,1-.38,1-1.5S33.54,5.2,32.84,5.2Z"/><path class="cls-5" d="M36.71,4.76c1,0,1.52.53,1.52,1.94s-.57,1.94-1.52,1.94-1.52-.53-1.52-1.94S35.76,4.76,36.71,4.76Zm0,.4c-.61,0-1,.35-1,1.53s.38,1.53,1,1.53,1-.35,1-1.53S37.32,5.17,36.71,5.17Z"/><path class="cls-5" d="M39,8.61a.88.88,0,0,1-.26,0,.39.39,0,0,1,0-.18.55.55,0,0,1,0-.19.71.71,0,0,0,.21,0c.28,0,.49-.45.59-1.72l.13-1.65h2.24v3.7a.86.86,0,0,1-.25,0,.8.8,0,0,1-.26,0V5.25H40.11L40,6.51C39.85,8.35,39.48,8.61,39,8.61Z"/><path class="cls-5" d="M44.65,6.39a1,1,0,0,1,1.11,1.09,1,1,0,0,1-1.11,1.09h-1.6V4.87a1.05,1.05,0,0,1,.26,0,.94.94,0,0,1,.25,0V6.39Zm-.09,1.79a.62.62,0,0,0,.67-.7.62.62,0,0,0-.67-.7h-1v1.4Z"/><path class="cls-5" d="M50.46,3.44c.26,0,.33-.08.43-.25a.45.45,0,0,1,.35.18c-.08.32-.25.45-.66.52-1.34.26-1.85.38-1.94,1.75h0a1.24,1.24,0,0,1,1.24-.72c.9,0,1.48.54,1.48,1.86s-.58,1.86-1.54,1.86-1.6-.43-1.6-2.56S48.92,3.73,50.46,3.44ZM48.84,6.78c0,1.15.43,1.45,1,1.45s1-.31,1-1.45-.43-1.45-1-1.45S48.84,5.61,48.84,6.78Z"/><path class="cls-5" d="M53.62,4.76c1,0,1.28.49,1.28,1.43V8.53a.45.45,0,0,1-.21,0,.54.54,0,0,1-.21,0L54.41,8a1.23,1.23,0,0,1-1.19.64,1,1,0,0,1-1.1-1.14c0-.72.45-1.11,1.34-1.11a8,8,0,0,1,.93.06v-.4c0-.59-.25-.85-.84-.85a3.1,3.1,0,0,0-1,.18.34.34,0,0,1-.12-.16.54.54,0,0,1,0-.22A3.29,3.29,0,0,1,53.62,4.76Zm-.08,2c-.59,0-.88.23-.88.74a.65.65,0,0,0,.73.72,1,1,0,0,0,1-1.12V6.82C54.23,6.81,53.87,6.76,53.53,6.76Z"/><path class="cls-5" d="M56.38,6.7c0,1,.35,1.48,1.11,1.48A1.7,1.7,0,0,0,58.18,8a.51.51,0,0,1,.16.38,1.89,1.89,0,0,1-1,.21c-1,0-1.53-.67-1.53-1.94s.53-1.94,1.53-1.94a1.83,1.83,0,0,1,.89.17.5.5,0,0,1-.16.38,1.61,1.61,0,0,0-.65-.12C56.71,5.2,56.38,5.69,56.38,6.7Z"/><path class="cls-5" d="M59.46,6.7c0,1,.35,1.48,1.11,1.48A1.71,1.71,0,0,0,61.26,8a.51.51,0,0,1,.16.38,1.89,1.89,0,0,1-1,.21c-1,0-1.53-.67-1.53-1.94s.53-1.94,1.53-1.94a1.83,1.83,0,0,1,.89.17.5.5,0,0,1-.16.38,1.61,1.61,0,0,0-.65-.12C59.78,5.2,59.46,5.69,59.46,6.7Z"/><path class="cls-5" d="M62.53,6.86c0,1,.41,1.32,1.1,1.32a1.67,1.67,0,0,0,.88-.23.52.52,0,0,1,.17.38,1.93,1.93,0,0,1-1.15.31c-1,0-1.53-.67-1.53-2s.62-1.92,1.53-1.92a1.25,1.25,0,0,1,1.35,1.38,3,3,0,0,1-.08.72Zm1-1.68c-.57,0-1,.38-1,1.3h1.79a2.47,2.47,0,0,0,0-.4A.78.78,0,0,0,63.52,5.18Z"/><path class="cls-5" d="M68.49,4.84a.82.82,0,0,1,.27,0V8.53a.77.77,0,0,1-.26,0,.9.9,0,0,1-.26,0v-2c0-.59,0-1,0-1h0a5.37,5.37,0,0,1-.33.6L66.34,8.53a.89.89,0,0,1-.28,0,.8.8,0,0,1-.26,0V4.87a.79.79,0,0,1,.26,0,.73.73,0,0,1,.25,0V6.92c0,.49,0,1,0,1h0a4.88,4.88,0,0,1,.32-.57l1.6-2.44A.82.82,0,0,1,68.49,4.84Zm-.43-1.35a.37.37,0,0,1,.23.26,1.31,1.31,0,0,1-1,.43,1.33,1.33,0,0,1-1-.43.38.38,0,0,1,.23-.26,1.27,1.27,0,0,0,1.55,0Z"/><path class="cls-5" d="M70.41,8.53a.93.93,0,0,1-.51,0V4.87a.95.95,0,0,1,.51,0V6.43h1.82V4.87a.79.79,0,0,1,.26,0,.74.74,0,0,1,.26,0V8.53a.75.75,0,0,1-.26,0,.71.71,0,0,1-.25,0V6.86H70.41Z"/><path class="cls-5" d="M75.14,4.76c1,0,1.28.49,1.28,1.43V8.53a.45.45,0,0,1-.21,0,.54.54,0,0,1-.21,0L75.93,8a1.23,1.23,0,0,1-1.19.64,1,1,0,0,1-1.1-1.14c0-.72.45-1.11,1.34-1.11a8,8,0,0,1,.93.06v-.4c0-.59-.25-.85-.84-.85a3.1,3.1,0,0,0-1,.18A.34.34,0,0,1,74,5.23a.54.54,0,0,1,0-.22A3.29,3.29,0,0,1,75.14,4.76Zm-.08,2c-.59,0-.88.23-.88.74a.65.65,0,0,0,.73.72,1,1,0,0,0,1-1.12V6.82C75.75,6.81,75.39,6.76,75.05,6.76Z"/><path class="cls-5" d="M81.91,4.84a.82.82,0,0,1,.27,0V8.53a.77.77,0,0,1-.26,0,.9.9,0,0,1-.26,0v-2c0-.59,0-1,0-1h0a6.67,6.67,0,0,1-.48.84L79.76,8.53a.89.89,0,0,1-.28,0,.8.8,0,0,1-.26,0V4.87a.79.79,0,0,1,.26,0,.73.73,0,0,1,.25,0V6.92c0,.48,0,1,0,1h0A4.88,4.88,0,0,1,80,7.31l1.6-2.44A.82.82,0,0,1,81.91,4.84Z"/><path class="cls-5" d="M86.26,4.76c1,0,1.28.49,1.28,1.43V8.53a.45.45,0,0,1-.21,0,.54.54,0,0,1-.21,0L87.05,8a1.23,1.23,0,0,1-1.19.64,1,1,0,0,1-1.1-1.14c0-.72.45-1.11,1.34-1.11a8,8,0,0,1,.93.06v-.4c0-.59-.25-.85-.84-.85a3.1,3.1,0,0,0-1,.18.34.34,0,0,1-.12-.16A.54.54,0,0,1,85,5,3.29,3.29,0,0,1,86.26,4.76Zm-.08,2c-.59,0-.88.23-.88.74a.65.65,0,0,0,.73.72,1,1,0,0,0,1-1.12V6.82C86.87,6.81,86.51,6.76,86.17,6.76Z"/><path class="cls-5" d="M90.81,4.87a1,1,0,0,1,.28,0,.84.84,0,0,1,.26,0L90.19,6.58l1.31,1.94a.83.83,0,0,1-.3,0,.79.79,0,0,1-.28,0l-1.16-1.7h-.59V8.53a.75.75,0,0,1-.25,0,.8.8,0,0,1-.26,0V4.87a.81.81,0,0,1,.26,0,.76.76,0,0,1,.25,0V6.42h.6Z"/><path class="cls-5" d="M94.77,5.81a.87.87,0,0,1-.46.84.9.9,0,0,1,.6.9c0,.65-.41,1-1.13,1H92.2V4.84h1.53A.92.92,0,0,1,94.77,5.81Zm-1.15.68a.58.58,0,0,0,.65-.64.57.57,0,0,0-.65-.62h-.9V6.49Zm.06,1.69c.46,0,.7-.22.7-.64a.61.61,0,0,0-.7-.67h-1V8.18Z"/><path class="cls-5" d="M97.12,4.76c1,0,1.28.49,1.28,1.43V8.53a.45.45,0,0,1-.21,0,.54.54,0,0,1-.21,0L97.91,8a1.23,1.23,0,0,1-1.19.64,1,1,0,0,1-1.1-1.14c0-.72.45-1.11,1.34-1.11a8,8,0,0,1,.93.06v-.4c0-.59-.25-.85-.84-.85a3.1,3.1,0,0,0-1,.18.34.34,0,0,1-.12-.16.54.54,0,0,1,0-.22A3.29,3.29,0,0,1,97.12,4.76Zm-.08,2c-.59,0-.88.23-.88.74a.65.65,0,0,0,.73.72,1,1,0,0,0,1-1.12V6.82C97.73,6.81,97.37,6.76,97,6.76Z"/><path class="cls-5" d="M101.12,4.76c.83,0,1.36.49,1.36,1.94s-.53,1.94-1.36,1.94A1.16,1.16,0,0,1,100,8.08v2.14a.93.93,0,0,1-.51,0V4.87a.95.95,0,0,1,.51,0v.45A1.16,1.16,0,0,1,101.12,4.76ZM101,5.2a1,1,0,0,0-.92,1v.92A1,1,0,0,0,101,8.21c.7,0,1-.38,1-1.5S101.65,5.2,101,5.2Z"/><path class="cls-5" d="M106.15,4.84a.82.82,0,0,1,.27,0V8.53a.77.77,0,0,1-.26,0,.9.9,0,0,1-.26,0v-2c0-.59,0-1,0-1h0a6.67,6.67,0,0,1-.48.84L104,8.53a.89.89,0,0,1-.28,0,.8.8,0,0,1-.26,0V4.87a.79.79,0,0,1,.26,0,.73.73,0,0,1,.25,0V6.92c0,.48,0,1,0,1h0a4.88,4.88,0,0,1,.32-.57l1.6-2.44A.82.82,0,0,1,106.15,4.84Z"/><path class="cls-5" d="M109,9.26c-.23.68-.46,1.09-1.1,1.09a1.12,1.12,0,0,1-.36-.06.51.51,0,0,1,0-.2.43.43,0,0,1,0-.21,1.34,1.34,0,0,0,.31,0c.3,0,.47-.13.68-.75l.21-.6a.49.49,0,0,1-.17,0l-1.42-3.65a1.05,1.05,0,0,1,.54,0l1,2.43c.17.44.25.76.25.76h0s.08-.31.23-.76L110,4.87a.68.68,0,0,1,.25,0,.78.78,0,0,1,.26,0Z"/><path class="cls-5" d="M114.61,4.84a1.09,1.09,0,0,1,.28,0V8.53a.63.63,0,0,1-.24,0,.72.72,0,0,1-.25,0V6.37a7.58,7.58,0,0,1,0-.84h0a5.15,5.15,0,0,1-.27.55l-1,1.63a.29.29,0,0,1-.13,0,.29.29,0,0,1-.13,0L112,6.11a4.79,4.79,0,0,1-.28-.59h0a5.47,5.47,0,0,1,0,.85V8.53a.73.73,0,0,1-.24,0,.71.71,0,0,1-.23,0V4.87a1.06,1.06,0,0,1,.28,0,.9.9,0,0,1,.28,0l1,1.77c.1.18.17.34.22.45h0a4.22,4.22,0,0,1,.22-.45l1-1.77A1.08,1.08,0,0,1,114.61,4.84Z"/><path class="cls-5" d="M117.28,4.76c1,0,1.28.49,1.28,1.43V8.53a.45.45,0,0,1-.21,0,.54.54,0,0,1-.21,0L118.07,8a1.23,1.23,0,0,1-1.19.64,1,1,0,0,1-1.1-1.14c0-.72.45-1.11,1.34-1.11a8,8,0,0,1,.93.06v-.4c0-.59-.25-.85-.84-.85a3.1,3.1,0,0,0-1,.18.34.34,0,0,1-.12-.16.54.54,0,0,1,0-.22A3.29,3.29,0,0,1,117.28,4.76Zm-.08,2c-.59,0-.88.23-.88.74a.65.65,0,0,0,.73.72,1,1,0,0,0,1-1.12V6.82C117.89,6.81,117.53,6.76,117.19,6.76Z"/></g></svg>