<svg xmlns="http://www.w3.org/2000/svg" viewBox="0 0 71.2 12.62"><defs><style>.cls-1{fill:#000d21;}.cls-2,.cls-4{fill:#fff;}.cls-3{fill:#00bfce;}.cls-4{opacity:0.9;}.cls-5{fill:#00809e;}</style></defs><title>DOMUS в сайт</title><g id="Layer_1" data-name="Layer 1"><polygon class="cls-1" points="68.2 12.58 11.38 12.58 13.8 6.34 11.54 0.1 68.36 0.1 70.63 6.56 68.2 12.58"/><path class="cls-2" d="M18.16,3.46a1.26,1.26,0,0,1,1.38,1.37A1.22,1.22,0,0,1,18.92,6a1.22,1.22,0,0,1,.77,1.21,1.33,1.33,0,0,1-1.51,1.4H16.36V3.46ZM18,5.78a.84.84,0,0,0,1-1,.84.84,0,0,0-1-.94H16.88V5.78Zm0,2.36c.77,0,1.06-.36,1.06-1s-.33-1-1.06-1H16.88v2Z"/><path class="cls-2" d="M22,4.76c1,0,1.52.53,1.52,1.94S23,8.64,22,8.64s-1.52-.53-1.52-1.94S21.1,4.76,22,4.76Zm0,.4c-.61,0-1,.35-1,1.53s.38,1.53,1,1.53,1-.35,1-1.53S22.66,5.17,22,5.17Z"/><path class="cls-2" d="M26.15,4.76c.83,0,1.36.49,1.36,1.94S27,8.64,26.15,8.64a1.16,1.16,0,0,1-1.09-.55v2.14a.93.93,0,0,1-.51,0V4.87a.95.95,0,0,1,.51,0v.45A1.16,1.16,0,0,1,26.15,4.76ZM26,5.2a1,1,0,0,0-.92,1v.92A1,1,0,0,0,26,8.21c.7,0,1-.38,1-1.5S26.67,5.2,26,5.2Z"/><path class="cls-2" d="M29.84,4.76c1,0,1.52.53,1.52,1.94s-.57,1.94-1.52,1.94-1.52-.53-1.52-1.94S28.89,4.76,29.84,4.76Zm0,.4c-.61,0-1,.35-1,1.53s.38,1.53,1,1.53,1-.35,1-1.53S30.45,5.17,29.84,5.17Z"/><path class="cls-2" d="M34.6,4.84a.58.58,0,0,1,0,.44H33.5V8.53a.72.72,0,0,1-.26,0,.63.63,0,0,1-.25,0V5.28H31.88a.51.51,0,0,1,0-.44Z"/><path class="cls-2" d="M36.6,4.76c1,0,1.28.49,1.28,1.43V8.53a.45.45,0,0,1-.21,0,.54.54,0,0,1-.21,0L37.4,8a1.23,1.23,0,0,1-1.19.64A1,1,0,0,1,35.1,7.5c0-.72.45-1.11,1.34-1.11a8,8,0,0,1,.93.06v-.4c0-.59-.25-.85-.84-.85a3.1,3.1,0,0,0-1,.18.34.34,0,0,1-.12-.16.54.54,0,0,1,0-.22A3.29,3.29,0,0,1,36.6,4.76Zm-.08,2c-.59,0-.88.23-.88.74a.65.65,0,0,0,.73.72,1,1,0,0,0,1-1.12V6.82C37.21,6.81,36.86,6.76,36.52,6.76Z"/><path class="cls-2" d="M43.25,5.81a.87.87,0,0,1-.46.84.9.9,0,0,1,.6.9c0,.65-.41,1-1.13,1H40.69V4.84h1.53A.92.92,0,0,1,43.25,5.81Zm-1.15.68a.58.58,0,0,0,.65-.64.57.57,0,0,0-.65-.62h-.9V6.49Zm.06,1.69c.45,0,.7-.22.7-.64a.61.61,0,0,0-.7-.67h-1V8.18Z"/><path class="cls-2" d="M48.11,4.84a.53.53,0,0,1,0,.22.51.51,0,0,1,0,.21H46.54V8.53a.93.93,0,0,1-.51,0V4.84Z"/><path class="cls-2" d="M50.09,4.76c1,0,1.28.49,1.28,1.43V8.53a.45.45,0,0,1-.21,0,.54.54,0,0,1-.21,0L50.89,8a1.23,1.23,0,0,1-1.19.64A1,1,0,0,1,48.6,7.5c0-.72.45-1.11,1.34-1.11a8,8,0,0,1,.93.06v-.4c0-.59-.25-.85-.84-.85a3.1,3.1,0,0,0-1,.18.34.34,0,0,1-.12-.16.54.54,0,0,1,0-.22A3.29,3.29,0,0,1,50.09,4.76Zm-.08,2c-.59,0-.88.23-.88.74a.65.65,0,0,0,.73.72,1,1,0,0,0,1-1.12V6.82C50.7,6.81,50.35,6.76,50,6.76Z"/><path class="cls-2" d="M54.1,4.76c.83,0,1.36.49,1.36,1.94s-.53,1.94-1.36,1.94A1.16,1.16,0,0,1,53,8.08v2.14a.93.93,0,0,1-.51,0V4.87a.95.95,0,0,1,.51,0v.45A1.16,1.16,0,0,1,54.1,4.76Zm-.17.43a1,1,0,0,0-.92,1v.92a1,1,0,0,0,.92,1.06c.7,0,1-.38,1-1.5S54.63,5.2,53.93,5.2Z"/><path class="cls-2" d="M57.69,4.76c1,0,1.28.49,1.28,1.43V8.53a.45.45,0,0,1-.21,0,.54.54,0,0,1-.21,0L58.49,8a1.23,1.23,0,0,1-1.19.64A1,1,0,0,1,56.2,7.5c0-.72.45-1.11,1.34-1.11a8,8,0,0,1,.93.06v-.4c0-.59-.25-.85-.84-.85a3.1,3.1,0,0,0-1,.18.34.34,0,0,1-.12-.16.54.54,0,0,1,0-.22A3.29,3.29,0,0,1,57.69,4.76Zm-.08,2c-.59,0-.88.23-.88.74a.65.65,0,0,0,.73.72,1,1,0,0,0,1-1.12V6.82C58.3,6.81,58,6.76,57.61,6.76Z"/><path class="cls-2" d="M64.4,4.84a.78.78,0,0,1,.26,0l-1,1.71,1.22,1.94a.75.75,0,0,1-.29,0,.85.85,0,0,1-.29,0l-1.08-1.7h-.66V8.53a.78.78,0,0,1-.26,0,.73.73,0,0,1-.26,0V6.82h-.67l-1.08,1.7a.85.85,0,0,1-.29,0,.72.72,0,0,1-.29,0L60.9,6.58,59.84,4.87a.88.88,0,0,1,.27,0,.83.83,0,0,1,.27,0l1,1.55H62V4.87a.74.74,0,0,1,.26,0,.84.84,0,0,1,.26,0V6.42h.67l1-1.55A.91.91,0,0,1,64.4,4.84Z"/><path class="cls-3" d="M68.2,12.58A8.12,8.12,0,0,0,68.36.1L67,1.65A6.08,6.08,0,0,1,66.91,11Z"/><circle class="cls-4" cx="7.2" cy="6.31" r="6.31"/><path class="cls-1" d="M3,12.58A8.13,8.13,0,0,1,2.84.1l.82,1A6.87,6.87,0,0,0,3.8,11.6Z"/><path class="cls-1" d="M11.39,12.58A8.13,8.13,0,0,0,11.55.1l-.82,1a6.87,6.87,0,0,1-.14,10.55Z"/><path class="cls-5" d="M6.23,3.84a1.46,1.46,0,0,1,0,.5c-.07,1.61-1.72,2.1-1.72,4.29a2,2,0,0,1-.43,0,2.09,2.09,0,0,1-.43,0c0-2.33,1.39-2.85,1.67-4H3.26a1.17,1.17,0,0,1-.06-.4,1,1,0,0,1,.06-.39Z"/><path class="cls-5" d="M7.35,8.61a1.43,1.43,0,0,1-.45.06,1.28,1.28,0,0,1-.45-.06V7.79a1.28,1.28,0,0,1,.45-.06,1.43,1.43,0,0,1,.45.06Z"/><path class="cls-5" d="M8.27,4a3.61,3.61,0,0,1,1.33-.25c.89,0,1.62.38,1.62,1.34S10.7,6.34,9.86,6.85c-.39.24-.91.47-.91.91a.57.57,0,0,0,0,.11h2.11a.81.81,0,0,1,.08.4,1,1,0,0,1-.08.4H8.12a2.9,2.9,0,0,1,0-.48,2.29,2.29,0,0,1,1.37-2c.62-.43.84-.62.84-1.07s-.33-.62-.84-.62a3.19,3.19,0,0,0-.93.16A.7.7,0,0,1,8.27,4Z"/></g></svg>