<svg xmlns="http://www.w3.org/2000/svg" viewBox="0 0 95.31 12.62"><defs><style>.cls-1{fill:#000d21;}.cls-2,.cls-4{fill:#fff;}.cls-3{fill:#00bfce;}.cls-4{opacity:0.9;}.cls-5{fill:#00809e;}</style></defs><title>DOMUS в сайт</title><g id="Layer_1" data-name="Layer 1"><polygon class="cls-1" points="92.31 12.61 11.38 12.61 13.81 6.37 11.54 0.13 92.47 0.13 94.74 6.59 92.31 12.61"/><path class="cls-2" d="M19,3.49a.55.55,0,0,1,0,.23.71.71,0,0,1,0,.23H16.89v4.6a.83.83,0,0,1-.52,0V3.49Z"/><path class="cls-2" d="M20,4.79c1,0,1.52.53,1.52,1.94S21,8.67,20,8.67s-1.52-.53-1.52-1.94S19.07,4.79,20,4.79Zm0,.4c-.61,0-1,.35-1,1.53s.38,1.53,1,1.53,1-.35,1-1.53S20.63,5.2,20,5.2Z"/><path class="cls-2" d="M22.32,8.64a.88.88,0,0,1-.26,0,.39.39,0,0,1,0-.18.55.55,0,0,1,0-.19.71.71,0,0,0,.21,0c.28,0,.49-.45.59-1.72L23,4.87h2.24v3.7a.86.86,0,0,1-.25,0,.8.8,0,0,1-.26,0V5.28H23.43l-.1,1.26C23.16,8.38,22.79,8.64,22.32,8.64Z"/><path class="cls-2" d="M27.72,4.79c1,0,1.52.53,1.52,1.94s-.57,1.94-1.52,1.94S26.2,8.14,26.2,6.73,26.77,4.79,27.72,4.79Zm0,.4c-.61,0-1,.35-1,1.53s.38,1.53,1,1.53,1-.35,1-1.53S28.33,5.2,27.72,5.2Z"/><path class="cls-2" d="M30.58,6.73c0,1,.35,1.48,1.11,1.48a1.7,1.7,0,0,0,.69-.13.51.51,0,0,1,.16.38,1.89,1.89,0,0,1-1,.21C30.58,8.67,30,8,30,6.73s.53-1.94,1.53-1.94a1.83,1.83,0,0,1,.89.17.5.5,0,0,1-.16.38,1.61,1.61,0,0,0-.65-.12C30.9,5.23,30.58,5.72,30.58,6.73Z"/><path class="cls-2" d="M34.65,4.79c1,0,1.52.53,1.52,1.94s-.57,1.94-1.52,1.94-1.52-.53-1.52-1.94S33.7,4.79,34.65,4.79Zm0,.4c-.61,0-1,.35-1,1.53s.38,1.53,1,1.53,1-.35,1-1.53S35.26,5.2,34.65,5.2Z"/><path class="cls-2" d="M39.7,5.84a.87.87,0,0,1-.46.84.9.9,0,0,1,.6.9c0,.65-.41,1-1.13,1H37.14V4.87h1.53A.92.92,0,0,1,39.7,5.84Zm-1.15.68a.58.58,0,0,0,.65-.64.57.57,0,0,0-.65-.62h-.9V6.52Zm.06,1.69c.45,0,.7-.22.7-.64a.61.61,0,0,0-.7-.67h-1V8.21Z"/><path class="cls-2" d="M42.15,4.79c1,0,1.52.53,1.52,1.94s-.57,1.94-1.52,1.94-1.52-.53-1.52-1.94S41.2,4.79,42.15,4.79Zm0,.4c-.61,0-1,.35-1,1.53s.38,1.53,1,1.53,1-.35,1-1.53S42.76,5.2,42.15,5.2Z"/><path class="cls-2" d="M45,6.89c0,1,.41,1.32,1.1,1.32A1.67,1.67,0,0,0,47,8a.52.52,0,0,1,.17.38A1.93,1.93,0,0,1,46,8.67c-1,0-1.53-.67-1.53-2S45.09,4.79,46,4.79a1.25,1.25,0,0,1,1.35,1.38,3,3,0,0,1-.08.72Zm1-1.68c-.57,0-1,.38-1,1.3H46.8a2.47,2.47,0,0,0,0-.4A.78.78,0,0,0,46,5.21Z"/><path class="cls-2" d="M51.32,4.79c1,0,1.52.53,1.52,1.94s-.57,1.94-1.52,1.94S49.8,8.14,49.8,6.73,50.37,4.79,51.32,4.79Zm0,.4c-.61,0-1,.35-1,1.53s.38,1.53,1,1.53,1-.35,1-1.53S51.93,5.2,51.32,5.2Z"/><path class="cls-2" d="M54.33,8.56a.77.77,0,0,1-.25,0,.78.78,0,0,1-.26,0V4.87h2.76v3.7a.73.73,0,0,1-.26,0,.83.83,0,0,1-.26,0V5.3H54.33Z"/><path class="cls-2" d="M59.07,4.79c1,0,1.52.53,1.52,1.94S60,8.67,59.07,8.67s-1.52-.53-1.52-1.94S58.12,4.79,59.07,4.79Zm0,.4c-.61,0-1,.35-1,1.53s.38,1.53,1,1.53,1-.35,1-1.53S59.68,5.2,59.07,5.2Z"/><path class="cls-2" d="M64.13,5.84a.87.87,0,0,1-.46.84.9.9,0,0,1,.6.9c0,.65-.41,1-1.13,1H61.56V4.87H63.1A.92.92,0,0,1,64.13,5.84ZM63,6.52a.58.58,0,0,0,.65-.64A.57.57,0,0,0,63,5.26h-.9V6.52ZM63,8.21c.45,0,.7-.22.7-.64A.61.61,0,0,0,63,6.9h-1V8.21Z"/><path class="cls-2" d="M65.58,6.89c0,1,.41,1.32,1.1,1.32A1.67,1.67,0,0,0,67.56,8a.52.52,0,0,1,.17.38,1.93,1.93,0,0,1-1.15.31c-1,0-1.53-.67-1.53-2s.62-1.92,1.53-1.92a1.25,1.25,0,0,1,1.35,1.38,3,3,0,0,1-.08.72Zm1-1.68c-.57,0-1,.38-1,1.3h1.79a2.47,2.47,0,0,0,0-.4A.78.78,0,0,0,66.58,5.21Z"/><path class="cls-2" d="M73.68,9.47a.79.79,0,0,1-.47,0V8.6H68.86V4.9a.64.64,0,0,1,.26,0,.68.68,0,0,1,.25,0V8.16h1.42V4.9a.61.61,0,0,1,.25,0,.76.76,0,0,1,.26,0V8.16h1.42V4.9a.63.63,0,0,1,.25,0,.73.73,0,0,1,.26,0V8.16h.45Z"/><path class="cls-2" d="M74.85,6.89c0,1,.41,1.32,1.1,1.32A1.67,1.67,0,0,0,76.83,8a.52.52,0,0,1,.17.38,1.93,1.93,0,0,1-1.15.31c-1,0-1.53-.67-1.53-2s.62-1.92,1.53-1.92a1.25,1.25,0,0,1,1.35,1.38,3,3,0,0,1-.08.72Zm1-1.68c-.57,0-1,.38-1,1.3h1.79a2.47,2.47,0,0,0,0-.4A.78.78,0,0,0,75.85,5.21Z"/><path class="cls-2" d="M78.64,8.56a.93.93,0,0,1-.51,0V4.9a.95.95,0,0,1,.51,0V6.46h1.82V4.9a.79.79,0,0,1,.26,0,.74.74,0,0,1,.26,0V8.56a.75.75,0,0,1-.26,0,.71.71,0,0,1-.25,0V6.89H78.64Z"/><path class="cls-2" d="M84.79,4.87a.82.82,0,0,1,.27,0V8.56a.77.77,0,0,1-.26,0,.9.9,0,0,1-.26,0v-2c0-.59,0-1,0-1h0a6.67,6.67,0,0,1-.48.84L82.64,8.56a.89.89,0,0,1-.28,0,.8.8,0,0,1-.26,0V4.9a.79.79,0,0,1,.26,0,.73.73,0,0,1,.25,0V7c0,.48,0,1,0,1h0a4.88,4.88,0,0,1,.32-.57l1.6-2.44A.82.82,0,0,1,84.79,4.87Z"/><path class="cls-2" d="M86.56,6.89c0,1,.41,1.32,1.1,1.32A1.67,1.67,0,0,0,88.54,8a.52.52,0,0,1,.17.38,1.93,1.93,0,0,1-1.15.31c-1,0-1.53-.67-1.53-2s.62-1.92,1.53-1.92A1.25,1.25,0,0,1,88.9,6.17a3,3,0,0,1-.08.72Zm1-1.68c-.57,0-1,.38-1,1.3h1.79a2.47,2.47,0,0,0,0-.4A.78.78,0,0,0,87.56,5.21Z"/><path class="cls-3" d="M92.31,12.61A8.12,8.12,0,0,0,92.47.13L91.14,1.68A6.08,6.08,0,0,1,91,11Z"/><circle class="cls-4" cx="7.2" cy="6.31" r="6.31"/><path class="cls-1" d="M3,12.58A8.13,8.13,0,0,1,2.84.1l.82,1A6.87,6.87,0,0,0,3.8,11.6Z"/><path class="cls-1" d="M11.39,12.58A8.13,8.13,0,0,0,11.55.1l-.82,1a6.87,6.87,0,0,1-.14,10.55Z"/><path class="cls-5" d="M4.45,3.91a1.3,1.3,0,0,1,.45-.06,1.1,1.1,0,0,1,.43.06V6.79h.58a1,1,0,0,1,0,.71H5.34V8.6a1.18,1.18,0,0,1-.41.06,1.37,1.37,0,0,1-.44-.06V7.49H2.33a.92.92,0,0,1,0-.71ZM3.21,6.79H4.49V5.05Z"/><path class="cls-5" d="M7.53,8.61a1.43,1.43,0,0,1-.45.06,1.28,1.28,0,0,1-.45-.06V7.79a1.28,1.28,0,0,1,.45-.06,1.43,1.43,0,0,1,.45.06Z"/><path class="cls-5" d="M8.44,4a3.61,3.61,0,0,1,1.33-.25c.89,0,1.62.38,1.62,1.34S10.88,6.34,10,6.85c-.39.24-.91.47-.91.91a.57.57,0,0,0,0,.11h2.11a.81.81,0,0,1,.08.4,1,1,0,0,1-.08.4H8.3a2.9,2.9,0,0,1,0-.48,2.29,2.29,0,0,1,1.37-2c.62-.43.84-.62.84-1.07s-.33-.62-.84-.62a3.19,3.19,0,0,0-.93.16A.7.7,0,0,1,8.44,4Z"/></g></svg>