<svg xmlns="http://www.w3.org/2000/svg" viewBox="0 0 123.31 12.62"><defs><style>.cls-1{fill:#000d21;}.cls-2{fill:#00bfce;}.cls-3,.cls-4{fill:#fff;}.cls-4{opacity:0.9;}.cls-5{fill:#00809e;}</style></defs><title>DOMUS в сайт</title><g id="Layer_1" data-name="Layer 1"><polygon class="cls-1" points="120.31 12.6 11.38 12.6 13.8 6.35 11.54 0.11 120.47 0.11 122.74 6.58 120.31 12.6"/><path class="cls-2" d="M120.31,12.59A8.12,8.12,0,0,0,120.47.11l-1.33,1.56A6.08,6.08,0,0,1,119,11Z"/><path class="cls-3" d="M19.17,3.47a.56.56,0,0,1,0,.23.59.59,0,0,1,0,.23H16.88V5.65h1.35A1.37,1.37,0,0,1,19.7,7.11a1.38,1.38,0,0,1-1.47,1.48H16.35V3.47ZM16.88,8.16h1.26a1,1,0,0,0,1-1.05.94.94,0,0,0-1-1H16.88Z"/><path class="cls-3" d="M21,6.88c0,1,.41,1.32,1.1,1.32A1.67,1.67,0,0,0,22.95,8a.52.52,0,0,1,.17.38A1.93,1.93,0,0,1,22,8.65c-1,0-1.53-.67-1.53-2S21.06,4.78,22,4.78a1.25,1.25,0,0,1,1.35,1.38,3,3,0,0,1-.08.72ZM22,5.2c-.57,0-1,.38-1,1.3h1.79a2.47,2.47,0,0,0,0-.4A.78.78,0,0,0,22,5.2Z"/><path class="cls-3" d="M24.61,6.72c0,1,.35,1.48,1.11,1.48a1.71,1.71,0,0,0,.69-.13.51.51,0,0,1,.16.38,1.89,1.89,0,0,1-1,.21c-1,0-1.53-.67-1.53-1.94s.53-1.94,1.53-1.94a1.83,1.83,0,0,1,.89.17.5.5,0,0,1-.16.38,1.61,1.61,0,0,0-.65-.12C24.93,5.21,24.61,5.71,24.61,6.72Z"/><path class="cls-3" d="M27.92,8.55a.77.77,0,0,1-.25,0,.78.78,0,0,1-.26,0V4.85h2.76v3.7a.73.73,0,0,1-.26,0,.83.83,0,0,1-.26,0V5.28H27.92Z"/><path class="cls-3" d="M31.67,6.88c0,1,.41,1.32,1.1,1.32A1.67,1.67,0,0,0,33.65,8a.52.52,0,0,1,.17.38,1.93,1.93,0,0,1-1.15.31c-1,0-1.53-.67-1.53-2s.62-1.92,1.53-1.92A1.25,1.25,0,0,1,34,6.16a3,3,0,0,1-.08.72Zm1-1.68c-.57,0-1,.38-1,1.3h1.79a2.47,2.47,0,0,0,0-.4A.78.78,0,0,0,32.67,5.2Z"/><path class="cls-3" d="M36.55,4.78c.83,0,1.36.49,1.36,1.94s-.53,1.94-1.36,1.94a1.16,1.16,0,0,1-1.09-.55v2.14a.93.93,0,0,1-.51,0V4.89a.95.95,0,0,1,.51,0v.45A1.16,1.16,0,0,1,36.55,4.78Zm-.17.43a1,1,0,0,0-.92,1v.92a1,1,0,0,0,.92,1.06c.7,0,1-.38,1-1.5S37.08,5.21,36.38,5.21Z"/><path class="cls-3" d="M39.25,6.88c0,1,.41,1.32,1.1,1.32A1.67,1.67,0,0,0,41.23,8a.52.52,0,0,1,.17.38,1.93,1.93,0,0,1-1.15.31c-1,0-1.53-.67-1.53-2s.62-1.92,1.53-1.92a1.25,1.25,0,0,1,1.35,1.38,3,3,0,0,1-.08.72Zm1-1.68c-.57,0-1,.38-1,1.3H41a2.47,2.47,0,0,0,0-.4A.78.78,0,0,0,40.24,5.2Z"/><path class="cls-3" d="M44.67,3.46c.26,0,.33-.08.43-.25a.45.45,0,0,1,.35.18c-.09.32-.25.45-.66.52-1.34.26-1.85.38-1.94,1.75h0a1.24,1.24,0,0,1,1.24-.72c.9,0,1.48.54,1.48,1.86S45,8.65,44.06,8.65s-1.6-.43-1.6-2.56S43.13,3.74,44.67,3.46ZM43.05,6.8c0,1.15.43,1.45,1,1.45s1-.31,1-1.45-.43-1.45-1-1.45S43.05,5.62,43.05,6.8Z"/><path class="cls-3" d="M47.93,4.78c1,0,1.52.53,1.52,1.94s-.57,1.94-1.52,1.94-1.52-.53-1.52-1.94S47,4.78,47.93,4.78Zm0,.4c-.61,0-1,.35-1,1.53s.38,1.53,1,1.53,1-.35,1-1.53S48.54,5.18,47.93,5.18Z"/><path class="cls-3" d="M53.11,4.85a.82.82,0,0,1,.27,0V8.55a.77.77,0,0,1-.26,0,.9.9,0,0,1-.26,0v-2c0-.59,0-1,0-1h0a5.37,5.37,0,0,1-.33.6L51,8.55a.89.89,0,0,1-.28,0,.8.8,0,0,1-.26,0V4.89a.79.79,0,0,1,.26,0,.73.73,0,0,1,.25,0V6.94c0,.49,0,1,0,1h0a4.88,4.88,0,0,1,.32-.57l1.6-2.44A.82.82,0,0,1,53.11,4.85ZM52.68,3.5a.37.37,0,0,1,.23.26,1.31,1.31,0,0,1-1,.43,1.33,1.33,0,0,1-1-.43.38.38,0,0,1,.23-.26,1.27,1.27,0,0,0,1.55,0Z"/><path class="cls-3" d="M55,8.55a.93.93,0,0,1-.51,0V4.89a.95.95,0,0,1,.51,0V6.45h1.82V4.89a.79.79,0,0,1,.26,0,.74.74,0,0,1,.26,0V8.55a.75.75,0,0,1-.26,0,.71.71,0,0,1-.25,0V6.87H55Z"/><path class="cls-3" d="M59.75,4.78c1,0,1.28.49,1.28,1.43V8.55a.45.45,0,0,1-.21,0,.54.54,0,0,1-.21,0L60.55,8a1.23,1.23,0,0,1-1.19.64,1,1,0,0,1-1.1-1.14c0-.72.45-1.11,1.34-1.11a8,8,0,0,1,.93.06v-.4c0-.59-.25-.85-.84-.85a3.1,3.1,0,0,0-1,.18.34.34,0,0,1-.12-.16.54.54,0,0,1,0-.22A3.29,3.29,0,0,1,59.75,4.78Zm-.08,2c-.59,0-.88.23-.88.74a.65.65,0,0,0,.73.72,1,1,0,0,0,1-1.12V6.84C60.36,6.82,60,6.78,59.67,6.78Z"/><path class="cls-3" d="M62.46,8.55a1.22,1.22,0,0,1-.31,0,1,1,0,0,1-.28,0L62.74,7A1,1,0,0,1,62,6a1.07,1.07,0,0,1,1.18-1.12h1.5v3.7a1,1,0,0,1-.25,0,.9.9,0,0,1-.26,0V7.09h-.94ZM62.57,6a.67.67,0,0,0,.75.72h.89V5.24h-.89A.66.66,0,0,0,62.57,6Z"/><path class="cls-3" d="M67.83,6.9a.55.55,0,0,1,0-.21.57.57,0,0,1,0-.2h1.43c0-.86-.4-1.31-1.1-1.31a2.12,2.12,0,0,0-.7.11A.48.48,0,0,1,67.32,5a2.16,2.16,0,0,1,.94-.17c1,0,1.54.67,1.54,1.94s-.55,1.94-1.55,1.94a2.18,2.18,0,0,1-1-.21.49.49,0,0,1,.16-.35,2.09,2.09,0,0,0,.74.13c.72,0,1.1-.43,1.13-1.32Z"/><path class="cls-3" d="M70.57,8.63a.88.88,0,0,1-.26,0,.39.39,0,0,1,0-.18.55.55,0,0,1,0-.19.71.71,0,0,0,.21,0c.28,0,.49-.45.59-1.72l.13-1.65h2.24v3.7a.86.86,0,0,1-.25,0,.8.8,0,0,1-.26,0V5.26H71.68l-.1,1.26C71.41,8.37,71,8.63,70.57,8.63Z"/><path class="cls-3" d="M75,6.88c0,1,.41,1.32,1.1,1.32A1.67,1.67,0,0,0,77,8a.52.52,0,0,1,.17.38A1.93,1.93,0,0,1,76,8.65c-1,0-1.53-.67-1.53-2S75.07,4.78,76,4.78a1.25,1.25,0,0,1,1.35,1.38,3,3,0,0,1-.08.72ZM76,5.2c-.57,0-1,.38-1,1.3h1.79a2.47,2.47,0,0,0,0-.4A.78.78,0,0,0,76,5.2Z"/><path class="cls-3" d="M80.4,4.89a1,1,0,0,1,.28,0,.84.84,0,0,1,.26,0L79.79,6.6,81.1,8.54a.83.83,0,0,1-.3,0,.79.79,0,0,1-.28,0l-1.16-1.7h-.59V8.55a.75.75,0,0,1-.25,0,.8.8,0,0,1-.26,0V4.89a.81.81,0,0,1,.26,0,.76.76,0,0,1,.25,0V6.43h.6Z"/><path class="cls-3" d="M84.18,4.85a.58.58,0,0,1,0,.44H83.07V8.55a.72.72,0,0,1-.26,0,.63.63,0,0,1-.25,0V5.29H81.45a.51.51,0,0,1,0-.44Z"/><path class="cls-3" d="M86.56,4.78c.83,0,1.36.49,1.36,1.94s-.53,1.94-1.36,1.94a1.16,1.16,0,0,1-1.09-.55v2.14a.93.93,0,0,1-.51,0V4.89a.95.95,0,0,1,.51,0v.45A1.16,1.16,0,0,1,86.56,4.78Zm-.17.43a1,1,0,0,0-.92,1v.92a1,1,0,0,0,.92,1.06c.7,0,1-.38,1-1.5S87.09,5.21,86.39,5.21Z"/><path class="cls-3" d="M90.26,4.78c1,0,1.52.53,1.52,1.94s-.57,1.94-1.52,1.94-1.52-.53-1.52-1.94S89.3,4.78,90.26,4.78Zm0,.4c-.61,0-1,.35-1,1.53s.38,1.53,1,1.53,1-.35,1-1.53S90.87,5.18,90.26,5.18Z"/><path class="cls-3" d="M93,6.9a.55.55,0,0,1,0-.21.57.57,0,0,1,0-.2H94.4c0-.86-.4-1.31-1.1-1.31a2.12,2.12,0,0,0-.7.11A.48.48,0,0,1,92.45,5a2.16,2.16,0,0,1,.94-.17c1,0,1.54.67,1.54,1.94s-.55,1.94-1.55,1.94a2.18,2.18,0,0,1-1-.21.49.49,0,0,1,.16-.35,2.09,2.09,0,0,0,.74.13c.72,0,1.1-.43,1.13-1.32Z"/><path class="cls-3" d="M96.41,8.55a.93.93,0,0,1-.51,0V4.89a.95.95,0,0,1,.51,0V6.45h1.82V4.89a.79.79,0,0,1,.26,0,.74.74,0,0,1,.26,0V8.55a.75.75,0,0,1-.26,0,.71.71,0,0,1-.25,0V6.87H96.41Z"/><path class="cls-3" d="M100.24,6.88c0,1,.41,1.32,1.1,1.32a1.67,1.67,0,0,0,.88-.23.52.52,0,0,1,.17.38,1.93,1.93,0,0,1-1.15.31c-1,0-1.53-.67-1.53-2s.62-1.92,1.53-1.92a1.25,1.25,0,0,1,1.35,1.38,3,3,0,0,1-.08.72Zm1-1.68c-.57,0-1,.38-1,1.3H102a2.47,2.47,0,0,0,0-.4A.78.78,0,0,0,101.23,5.2Z"/><path class="cls-3" d="M105.12,4.78c.83,0,1.36.49,1.36,1.94s-.53,1.94-1.36,1.94A1.16,1.16,0,0,1,104,8.1v2.14a.93.93,0,0,1-.51,0V4.89a.95.95,0,0,1,.51,0v.45A1.16,1.16,0,0,1,105.12,4.78Zm-.17.43a1,1,0,0,0-.92,1v.92a1,1,0,0,0,.92,1.06c.7,0,1-.38,1-1.5S105.64,5.21,104.95,5.21Z"/><path class="cls-3" d="M109.54,4.85a.53.53,0,0,1,0,.22.51.51,0,0,1,0,.21H108V8.55a.93.93,0,0,1-.51,0V4.85Z"/><path class="cls-3" d="M113,4.85a.82.82,0,0,1,.27,0V8.55a.77.77,0,0,1-.26,0,.9.9,0,0,1-.26,0v-2c0-.59,0-1,0-1h0a6.67,6.67,0,0,1-.48.84l-1.43,2.16a.89.89,0,0,1-.28,0,.8.8,0,0,1-.26,0V4.89a.79.79,0,0,1,.26,0,.73.73,0,0,1,.25,0V6.94c0,.48,0,1,0,1h0a4.88,4.88,0,0,1,.32-.57l1.6-2.44A.82.82,0,0,1,113,4.85Z"/><path class="cls-3" d="M114.72,8.55a1.22,1.22,0,0,1-.31,0,1,1,0,0,1-.28,0L115,7a1,1,0,0,1-.7-1,1.07,1.07,0,0,1,1.18-1.12H117v3.7a1,1,0,0,1-.25,0,.9.9,0,0,1-.26,0V7.09h-.94ZM114.83,6a.67.67,0,0,0,.75.72h.89V5.24h-.89A.66.66,0,0,0,114.83,6Z"/><circle class="cls-4" cx="7.2" cy="6.31" r="6.31"/><path class="cls-1" d="M3,12.58A8.13,8.13,0,0,1,2.84.1l.82,1A6.87,6.87,0,0,0,3.8,11.6Z"/><path class="cls-1" d="M11.39,12.58A8.13,8.13,0,0,0,11.55.1l-.82,1a6.87,6.87,0,0,1-.14,10.55Z"/><path class="cls-5" d="M4.76,8.74a2.78,2.78,0,0,1-1.27-.26.91.91,0,0,1,.22-.66,3.53,3.53,0,0,0,1,.15c.62,0,1-.16,1-.74s-.26-.72-.85-.72H4.2a1,1,0,0,1,0-.71h.6c.52,0,.7-.26.7-.62s-.29-.66-.82-.66a2.45,2.45,0,0,0-.87.15A.67.67,0,0,1,3.54,4a2.69,2.69,0,0,1,1.23-.25c1,0,1.64.43,1.64,1.3a1.05,1.05,0,0,1-.57,1.06,1.17,1.17,0,0,1,.74,1.21C6.58,8.23,6.07,8.74,4.76,8.74Z"/><path class="cls-5" d="M8.27,8.61a1.43,1.43,0,0,1-.45.06,1.28,1.28,0,0,1-.45-.06V7.79a1.28,1.28,0,0,1,.45-.06,1.43,1.43,0,0,1,.45.06Z"/><path class="cls-5" d="M9.86,3.91a1.12,1.12,0,0,1,.44-.06,1.23,1.23,0,0,1,.45.06V8.6a1.2,1.2,0,0,1-.45.06,1.49,1.49,0,0,1-.46-.06V5.88c0-.35,0-.65,0-.89a2.82,2.82,0,0,1-1.11.52.85.85,0,0,1-.21-.74A2.2,2.2,0,0,0,9.86,3.91Z"/></g></svg>