<svg xmlns="http://www.w3.org/2000/svg" viewBox="0 0 103.82 12.62"><defs><style>.cls-1{fill:#000d21;}.cls-2,.cls-4{fill:#fff;}.cls-3{fill:#00bfce;}.cls-4{opacity:0.9;}.cls-5{fill:#00809e;}</style></defs><title>DOMUS в сайт</title><g id="Layer_1" data-name="Layer 1"><polygon class="cls-1" points="100.82 12.61 11.39 12.61 13.81 6.37 11.55 0.13 100.98 0.13 103.25 6.59 100.82 12.61"/><path class="cls-2" d="M15.86,8.59a.45.45,0,0,1,0-.19.52.52,0,0,1,0-.21h.2c.26,0,.69-.18.86-2.41l.18-2.29h2.62V8.55a.68.68,0,0,1-.26,0,.56.56,0,0,1-.26,0V3.91H17.56l-.14,1.88c-.2,2.6-.83,2.85-1.28,2.85A.77.77,0,0,1,15.86,8.59Z"/><path class="cls-2" d="M22.18,4.79c1,0,1.28.49,1.28,1.43V8.56a.45.45,0,0,1-.21,0,.54.54,0,0,1-.21,0L23,8a1.23,1.23,0,0,1-1.19.64,1,1,0,0,1-1.1-1.14c0-.72.45-1.11,1.34-1.11a8,8,0,0,1,.93.06v-.4c0-.59-.25-.85-.84-.85a3.1,3.1,0,0,0-1,.18A.34.34,0,0,1,21,5.26.54.54,0,0,1,21,5,3.29,3.29,0,0,1,22.18,4.79Zm-.08,2c-.59,0-.88.23-.88.74a.65.65,0,0,0,.73.72,1,1,0,0,0,1-1.12V6.85C22.79,6.84,22.44,6.8,22.1,6.8Z"/><path class="cls-2" d="M25.09,8.56a.93.93,0,0,1-.51,0V4.9a.95.95,0,0,1,.51,0V6.46h1.82V4.9a.79.79,0,0,1,.26,0,.74.74,0,0,1,.26,0V8.56a.75.75,0,0,1-.26,0,.71.71,0,0,1-.25,0V6.89H25.09Z"/><path class="cls-2" d="M28.47,8.2c.2-.2.35-.6.43-1.65L29,4.87h2.3V8.2h.45V9.47a.71.71,0,0,1-.22,0,1,1,0,0,1-.25,0V8.6H28.64v.87a.76.76,0,0,1-.23,0,.69.69,0,0,1-.23,0V8.2Zm.89-1.62A4.39,4.39,0,0,1,29,8.2h1.79V5.28H29.46Z"/><path class="cls-2" d="M32.64,4.9a.64.64,0,0,1,.26,0,.68.68,0,0,1,.25,0V8.16h1.42V4.9a.62.62,0,0,1,.25,0,.76.76,0,0,1,.26,0V8.16H36.5V4.9a.63.63,0,0,1,.25,0,.73.73,0,0,1,.26,0V8.6H32.64Z"/><path class="cls-2" d="M39.4,4.79c1,0,1.28.49,1.28,1.43V8.56a.45.45,0,0,1-.21,0,.54.54,0,0,1-.21,0L40.2,8A1.23,1.23,0,0,1,39,8.67a1,1,0,0,1-1.1-1.14c0-.72.45-1.11,1.34-1.11a8,8,0,0,1,.93.06v-.4c0-.59-.25-.85-.84-.85a3.1,3.1,0,0,0-1,.18.34.34,0,0,1-.12-.16.54.54,0,0,1,0-.22A3.29,3.29,0,0,1,39.4,4.79Zm-.08,2c-.59,0-.88.23-.88.74a.65.65,0,0,0,.73.72,1,1,0,0,0,1-1.12V6.85C40,6.84,39.66,6.8,39.32,6.8Z"/><path class="cls-2" d="M44,3.28a.73.73,0,0,1,.26,0V4.94A1.87,1.87,0,0,1,45,4.79c1,0,1.31.67,1.31,1.94S46,8.67,45,8.67a1.69,1.69,0,0,1-.78-.17v1.84a.72.72,0,0,1-.26,0,.63.63,0,0,1-.25,0V8.5a1.75,1.75,0,0,1-.79.17c-.94,0-1.31-.67-1.31-1.94S42,4.79,43,4.79a2.07,2.07,0,0,1,.79.15V3.31A.63.63,0,0,1,44,3.28ZM43,5.21c-.63,0-.87.47-.87,1.53s.24,1.52.87,1.52a1.45,1.45,0,0,0,.72-.18V5.36A1.6,1.6,0,0,0,43,5.21Zm1.92,0a1.66,1.66,0,0,0-.72.16v2.7a1.49,1.49,0,0,0,.72.18c.63,0,.87-.46.87-1.52S45.59,5.21,45,5.21Z"/><path class="cls-2" d="M49.61,4.87a.58.58,0,0,1,0,.44H48.5V8.56a.72.72,0,0,1-.26,0,.63.63,0,0,1-.25,0V5.31H46.88a.51.51,0,0,1,0-.44Z"/><path class="cls-2" d="M50.9,8.56a.93.93,0,0,1-.51,0V4.9a.95.95,0,0,1,.51,0V6.46h1.82V4.9a.79.79,0,0,1,.26,0,.74.74,0,0,1,.26,0V8.56a.75.75,0,0,1-.26,0,.71.71,0,0,1-.25,0V6.89H50.9Z"/><path class="cls-2" d="M55.72,4.79c1,0,1.52.53,1.52,1.94s-.57,1.94-1.52,1.94-1.52-.53-1.52-1.94S54.77,4.79,55.72,4.79Zm0,.4c-.61,0-1,.35-1,1.53s.38,1.53,1,1.53,1-.35,1-1.53S56.33,5.2,55.72,5.2Z"/><path class="cls-2" d="M58.58,6.89c0,1,.41,1.32,1.1,1.32A1.67,1.67,0,0,0,60.56,8a.52.52,0,0,1,.17.38,1.93,1.93,0,0,1-1.15.31c-1,0-1.53-.67-1.53-2s.62-1.92,1.53-1.92a1.25,1.25,0,0,1,1.35,1.38,3,3,0,0,1-.08.72Zm1-1.68c-.57,0-1,.38-1,1.3h1.79a2.47,2.47,0,0,0,0-.4A.78.78,0,0,0,59.57,5.21Z"/><path class="cls-2" d="M64.89,4.79c1,0,1.52.53,1.52,1.94s-.57,1.94-1.52,1.94-1.52-.53-1.52-1.94S63.94,4.79,64.89,4.79Zm0,.4c-.61,0-1,.35-1,1.53s.38,1.53,1,1.53,1-.35,1-1.53S65.5,5.2,64.89,5.2Z"/><path class="cls-2" d="M67.75,6.73c0,1,.35,1.48,1.11,1.48a1.7,1.7,0,0,0,.69-.13.51.51,0,0,1,.16.38,1.89,1.89,0,0,1-1,.21c-1,0-1.53-.67-1.53-1.94s.53-1.94,1.53-1.94a1.83,1.83,0,0,1,.89.17.5.5,0,0,1-.16.38,1.61,1.61,0,0,0-.65-.12C68.07,5.23,67.75,5.72,67.75,6.73Z"/><path class="cls-2" d="M73.12,5.84a.87.87,0,0,1-.46.84.9.9,0,0,1,.6.9c0,.65-.41,1-1.13,1H70.55V4.87h1.53A.92.92,0,0,1,73.12,5.84ZM72,6.52a.58.58,0,0,0,.65-.64A.57.57,0,0,0,72,5.26h-.9V6.52ZM72,8.21c.45,0,.7-.22.7-.64A.61.61,0,0,0,72,6.9h-1V8.21Z"/><path class="cls-2" d="M74.57,6.89c0,1,.41,1.32,1.1,1.32A1.67,1.67,0,0,0,76.55,8a.52.52,0,0,1,.17.38,1.93,1.93,0,0,1-1.15.31c-1,0-1.53-.67-1.53-2s.62-1.92,1.53-1.92a1.25,1.25,0,0,1,1.35,1.38,3,3,0,0,1-.08.72Zm1-1.68c-.57,0-1,.38-1,1.3h1.79a2.47,2.47,0,0,0,0-.4A.78.78,0,0,0,75.57,5.21Z"/><path class="cls-2" d="M82.67,9.47a.79.79,0,0,1-.47,0V8.6H77.85V4.9a.64.64,0,0,1,.26,0,.68.68,0,0,1,.25,0V8.16h1.42V4.9a.62.62,0,0,1,.25,0,.76.76,0,0,1,.26,0V8.16h1.42V4.9a.63.63,0,0,1,.25,0,.73.73,0,0,1,.26,0V8.16h.45Z"/><path class="cls-2" d="M83.84,6.89c0,1,.41,1.32,1.1,1.32A1.67,1.67,0,0,0,85.82,8a.52.52,0,0,1,.17.38,1.93,1.93,0,0,1-1.15.31c-1,0-1.53-.67-1.53-2s.62-1.92,1.53-1.92a1.25,1.25,0,0,1,1.35,1.38,3,3,0,0,1-.08.72Zm1-1.68c-.57,0-1,.38-1,1.3h1.79a2.47,2.47,0,0,0,0-.4A.78.78,0,0,0,84.83,5.21Z"/><path class="cls-2" d="M87.63,8.56a.93.93,0,0,1-.51,0V4.9a.95.95,0,0,1,.51,0V6.46h1.82V4.9a.79.79,0,0,1,.26,0,.74.74,0,0,1,.26,0V8.56a.75.75,0,0,1-.26,0,.71.71,0,0,1-.25,0V6.89H87.63Z"/><path class="cls-2" d="M93.78,4.87a.82.82,0,0,1,.27,0V8.56a.77.77,0,0,1-.26,0,.9.9,0,0,1-.26,0v-2c0-.59,0-1,0-1h0a6.67,6.67,0,0,1-.48.84L91.63,8.56a.89.89,0,0,1-.28,0,.8.8,0,0,1-.26,0V4.9a.79.79,0,0,1,.26,0,.73.73,0,0,1,.25,0V7c0,.48,0,1,0,1h0a4.88,4.88,0,0,1,.32-.57l1.6-2.44A.82.82,0,0,1,93.78,4.87Z"/><path class="cls-2" d="M95.55,6.89c0,1,.41,1.32,1.1,1.32A1.67,1.67,0,0,0,97.53,8a.52.52,0,0,1,.17.38,1.93,1.93,0,0,1-1.15.31c-1,0-1.53-.67-1.53-2s.62-1.92,1.53-1.92a1.25,1.25,0,0,1,1.35,1.38,3,3,0,0,1-.08.72Zm1-1.68c-.57,0-1,.38-1,1.3h1.79a2.47,2.47,0,0,0,0-.4A.78.78,0,0,0,96.55,5.21Z"/><path class="cls-3" d="M100.82,12.61A8.12,8.12,0,0,0,101,.13L99.65,1.68A6.08,6.08,0,0,1,99.53,11Z"/><circle class="cls-4" cx="7.2" cy="6.31" r="6.31"/><path class="cls-1" d="M3,12.58A8.13,8.13,0,0,1,2.84.1l.82,1A6.87,6.87,0,0,0,3.8,11.6Z"/><path class="cls-1" d="M11.39,12.58A8.13,8.13,0,0,0,11.55.1l-.82,1a6.87,6.87,0,0,1-.14,10.55Z"/><path class="cls-5" d="M4.27,3.95a1.12,1.12,0,0,1,.44-.06,1.23,1.23,0,0,1,.45.06v4.7a1.2,1.2,0,0,1-.45.06,1.49,1.49,0,0,1-.46-.06V5.93c0-.35,0-.65,0-.89a2.82,2.82,0,0,1-1.11.52A.85.85,0,0,1,3,4.83,2.2,2.2,0,0,0,4.27,3.95Z"/><path class="cls-5" d="M7.1,8.65a1.43,1.43,0,0,1-.45.06,1.28,1.28,0,0,1-.45-.06V7.83a1.28,1.28,0,0,1,.45-.06,1.43,1.43,0,0,1,.45.06Z"/><path class="cls-5" d="M8,4.07a3.61,3.61,0,0,1,1.33-.25c.89,0,1.62.38,1.62,1.34S10.45,6.38,9.6,6.89c-.39.24-.91.47-.91.91a.57.57,0,0,0,0,.11h2.11a.81.81,0,0,1,.08.4,1,1,0,0,1-.08.4H7.87a2.9,2.9,0,0,1,0-.48,2.29,2.29,0,0,1,1.37-2c.62-.43.84-.62.84-1.07s-.33-.62-.84-.62a3.19,3.19,0,0,0-.93.16A.7.7,0,0,1,8,4.07Z"/></g></svg>