<svg xmlns="http://www.w3.org/2000/svg" viewBox="0 0 79.19 12.62"><defs><style>.cls-1{fill:#000d21;}.cls-2{fill:#00bfce;}.cls-3,.cls-4{fill:#fff;}.cls-4{opacity:0.9;}.cls-5{fill:#00809e;}</style></defs><title>DOMUS в сайт</title><g id="Layer_1" data-name="Layer 1"><polygon class="cls-1" points="76.19 12.58 11.37 12.58 13.8 6.33 11.53 0.09 76.34 0.09 78.62 6.55 76.19 12.58"/><path class="cls-2" d="M76.18,12.57A8.12,8.12,0,0,0,76.34.09L75,1.65A6.08,6.08,0,0,1,74.89,11Z"/><path class="cls-3" d="M18,3.46a.85.85,0,0,1,.29,0l1.88,5a.76.76,0,0,1-.29,0,.62.62,0,0,1-.25,0l-.51-1.36H16.82L16.3,8.52a.62.62,0,0,1-.26,0,.56.56,0,0,1-.25,0l1.88-5A.9.9,0,0,1,18,3.46Zm0,.61a4,4,0,0,1-.14.49L17,6.73h2L18.1,4.55A4.13,4.13,0,0,1,18,4.07Z"/><path class="cls-3" d="M23.4,5.8a.87.87,0,0,1-.46.84.9.9,0,0,1,.6.9c0,.65-.41,1-1.13,1H20.84V4.83h1.53A.92.92,0,0,1,23.4,5.8Zm-1.15.68a.58.58,0,0,0,.65-.64.57.57,0,0,0-.65-.62h-.9V6.48Zm.06,1.69c.46,0,.7-.22.7-.64a.61.61,0,0,0-.7-.67h-1V8.17Z"/><path class="cls-3" d="M26.81,4.83a.58.58,0,0,1,0,.44H25.71V8.53a.72.72,0,0,1-.26,0,.63.63,0,0,1-.25,0V5.27H24.09a.51.51,0,0,1,0-.44Z"/><path class="cls-3" d="M28.85,4.76c1,0,1.52.53,1.52,1.94s-.57,1.94-1.52,1.94S27.33,8.1,27.33,6.7,27.9,4.76,28.85,4.76Zm0,.4c-.61,0-1,.35-1,1.53s.38,1.53,1,1.53,1-.35,1-1.53S29.46,5.17,28.85,5.17Z"/><path class="cls-3" d="M31.85,8.53a.93.93,0,0,1-.51,0V4.87a.95.95,0,0,1,.51,0V6.43h1.82V4.87a.79.79,0,0,1,.26,0,.74.74,0,0,1,.26,0V8.53a.75.75,0,0,1-.26,0,.71.71,0,0,1-.25,0V6.85H31.85Z"/><path class="cls-3" d="M36.67,4.76c1,0,1.52.53,1.52,1.94s-.57,1.94-1.52,1.94S35.15,8.1,35.15,6.7,35.72,4.76,36.67,4.76Zm0,.4c-.61,0-1,.35-1,1.53s.38,1.53,1,1.53,1-.35,1-1.53S37.28,5.17,36.67,5.17Z"/><path class="cls-3" d="M42.5,4.83a1.09,1.09,0,0,1,.28,0V8.53a.63.63,0,0,1-.24,0,.72.72,0,0,1-.25,0V6.36a7.58,7.58,0,0,1,0-.84h0a5.15,5.15,0,0,1-.27.55l-1,1.63a.29.29,0,0,1-.13,0,.29.29,0,0,1-.13,0l-.91-1.6a4.79,4.79,0,0,1-.28-.59h0a5.47,5.47,0,0,1,0,.85V8.53a.73.73,0,0,1-.24,0,.71.71,0,0,1-.23,0V4.87a1.06,1.06,0,0,1,.28,0,.9.9,0,0,1,.28,0l1,1.77c.1.18.17.34.22.45h0a4.22,4.22,0,0,1,.22-.45l1-1.77A1.08,1.08,0,0,1,42.5,4.83Z"/><path class="cls-3" d="M44.43,8.53a.93.93,0,0,1-.51,0V4.87a.95.95,0,0,1,.51,0V6.43h1.82V4.87a.79.79,0,0,1,.26,0,.74.74,0,0,1,.26,0V8.53a.75.75,0,0,1-.26,0,.71.71,0,0,1-.25,0V6.85H44.43Z"/><path class="cls-3" d="M48.15,4.83a.94.94,0,0,1,.25,0V6.39h1.09A1,1,0,0,1,50.6,7.48a1,1,0,0,1-1.11,1.09h-1.6V4.87A1.05,1.05,0,0,1,48.15,4.83Zm.25,3.34h1a.62.62,0,0,0,.67-.7.62.62,0,0,0-.67-.7h-1Zm3.19-3.34a.9.9,0,0,1,.25,0V8.53a.9.9,0,0,1-.25,0,1,1,0,0,1-.26,0V4.87A1,1,0,0,1,51.59,4.83Z"/><path class="cls-3" d="M53.35,6.86c0,1,.41,1.32,1.1,1.32a1.67,1.67,0,0,0,.88-.23.52.52,0,0,1,.17.38,1.93,1.93,0,0,1-1.15.31c-1,0-1.53-.67-1.53-2s.62-1.92,1.53-1.92a1.25,1.25,0,0,1,1.35,1.38,3,3,0,0,1-.08.72Zm1-1.68c-.57,0-1,.38-1,1.3h1.79a2.47,2.47,0,0,0,0-.4A.78.78,0,0,0,54.34,5.18Z"/><path class="cls-3" d="M58.82,8.53a.77.77,0,0,1-.25,0,.78.78,0,0,1-.26,0V4.83h2.76v3.7a.73.73,0,0,1-.26,0,.83.83,0,0,1-.26,0V5.26H58.82Z"/><path class="cls-3" d="M62.57,6.86c0,1,.41,1.32,1.1,1.32a1.67,1.67,0,0,0,.88-.23.52.52,0,0,1,.17.38,1.93,1.93,0,0,1-1.15.31c-1,0-1.53-.67-1.53-2s.62-1.92,1.53-1.92a1.25,1.25,0,0,1,1.35,1.38,3,3,0,0,1-.08.72Zm1-1.68c-.57,0-1,.38-1,1.3h1.79a2.47,2.47,0,0,0,0-.4A.78.78,0,0,0,63.56,5.18Z"/><path class="cls-3" d="M68.41,8.53a.74.74,0,0,1-.26,0,.66.66,0,0,1-.25,0V7a2,2,0,0,1-1,.2c-.89,0-1.31-.39-1.31-1.16V4.87a.73.73,0,0,1,.25,0,.79.79,0,0,1,.26,0V6c0,.5.25.74.85.74a1.8,1.8,0,0,0,.89-.22V4.87a.67.67,0,0,1,.25,0,.75.75,0,0,1,.26,0Z"/><path class="cls-3" d="M72.24,4.83a.82.82,0,0,1,.27,0V8.53a.77.77,0,0,1-.26,0,.9.9,0,0,1-.26,0v-2c0-.59,0-1,0-1h0a6.67,6.67,0,0,1-.48.84L70.09,8.53a.89.89,0,0,1-.28,0,.8.8,0,0,1-.26,0V4.87a.79.79,0,0,1,.26,0,.73.73,0,0,1,.25,0V6.92c0,.48,0,1,0,1h0a4.88,4.88,0,0,1,.32-.57L72,4.87A.82.82,0,0,1,72.24,4.83Z"/><circle class="cls-4" cx="7.2" cy="6.31" r="6.31"/><path class="cls-1" d="M3,12.58A8.13,8.13,0,0,1,2.84.1l.82,1A6.87,6.87,0,0,0,3.8,11.6Z"/><path class="cls-1" d="M11.39,12.58A8.13,8.13,0,0,0,11.55.1l-.82,1a6.87,6.87,0,0,1-.14,10.55Z"/><path class="cls-5" d="M5.93,4.56C5,4.67,4.42,5,4.2,5.81a3.05,3.05,0,0,1,.74-.09A1.36,1.36,0,0,1,6.43,7.23c0,1-.62,1.51-1.63,1.51S3.17,8.17,3.17,6.84a2.64,2.64,0,0,1,2.76-3A1,1,0,0,1,5.93,4.56ZM4.78,6.41a2.34,2.34,0,0,0-.7.11c0,.11,0,.23,0,.35,0,.87.28,1.18.72,1.18s.71-.25.71-.83S5.2,6.41,4.78,6.41Z"/><path class="cls-5" d="M8,8.61a1.43,1.43,0,0,1-.45.06,1.28,1.28,0,0,1-.45-.06V7.79a1.28,1.28,0,0,1,.45-.06A1.43,1.43,0,0,1,8,7.79Z"/><path class="cls-5" d="M9.63,3.91a1.12,1.12,0,0,1,.44-.06,1.23,1.23,0,0,1,.45.06V8.6a1.2,1.2,0,0,1-.45.06,1.49,1.49,0,0,1-.46-.06V5.89c0-.35,0-.65,0-.89a2.82,2.82,0,0,1-1.11.52.85.85,0,0,1-.21-.74A2.2,2.2,0,0,0,9.63,3.91Z"/></g></svg>