<svg xmlns="http://www.w3.org/2000/svg" viewBox="0 0 79.71 12.62"><defs><style>.cls-1{fill:#000d21;}.cls-2,.cls-4{fill:#fff;}.cls-3{fill:#00bfce;}.cls-4{opacity:0.9;}.cls-5{fill:#00809e;}</style></defs><title>DOMUS в сайт</title><g id="Layer_1" data-name="Layer 1"><polygon class="cls-1" points="76.71 12.55 11.4 12.55 13.82 6.31 11.55 0.07 76.87 0.07 79.14 6.53 76.71 12.55"/><path class="cls-2" d="M18,3.43a.85.85,0,0,1,.29,0l1.88,5a.76.76,0,0,1-.29,0,.62.62,0,0,1-.25,0L19.1,7.14H16.84L16.32,8.5a.62.62,0,0,1-.26,0,.56.56,0,0,1-.25,0l1.88-5A.9.9,0,0,1,18,3.43ZM18,4a4,4,0,0,1-.14.49L17,6.7h2l-.82-2.17A4.13,4.13,0,0,1,18,4Z"/><path class="cls-2" d="M21.37,8.5a.93.93,0,0,1-.51,0V4.84a.95.95,0,0,1,.51,0V6.4h1.82V4.84a.79.79,0,0,1,.26,0,.74.74,0,0,1,.26,0V8.5a.75.75,0,0,1-.26,0,.71.71,0,0,1-.25,0V6.83H21.37Z"/><path class="cls-2" d="M27.21,4.81a.58.58,0,0,1,0,.44H26.11V8.5a.72.72,0,0,1-.26,0,.63.63,0,0,1-.25,0V5.25H24.49a.51.51,0,0,1,0-.44Z"/><path class="cls-2" d="M30.69,4.81a.82.82,0,0,1,.27,0V8.5a.77.77,0,0,1-.26,0,.9.9,0,0,1-.26,0v-2c0-.59,0-1,0-1h0a6.67,6.67,0,0,1-.48.84L28.54,8.5a.89.89,0,0,1-.28,0,.8.8,0,0,1-.26,0V4.84a.79.79,0,0,1,.26,0,.73.73,0,0,1,.25,0V6.89c0,.48,0,1,0,1h0a4.88,4.88,0,0,1,.32-.57l1.6-2.44A.82.82,0,0,1,30.69,4.81Z"/><path class="cls-2" d="M33.45,4.74c1,0,1.52.53,1.52,1.94s-.57,1.94-1.52,1.94-1.52-.53-1.52-1.94S32.5,4.74,33.45,4.74Zm0,.4c-.61,0-1,.35-1,1.53s.38,1.53,1,1.53,1-.35,1-1.53S34.06,5.14,33.45,5.14Z"/><path class="cls-2" d="M38.09,3.42c.26,0,.33-.08.43-.25a.45.45,0,0,1,.35.18c-.09.32-.25.45-.66.52-1.34.26-1.85.38-1.94,1.75h0a1.24,1.24,0,0,1,1.24-.72c.9,0,1.48.54,1.48,1.86s-.58,1.86-1.54,1.86-1.6-.43-1.6-2.56S36.55,3.7,38.09,3.42ZM36.47,6.75c0,1.15.43,1.45,1,1.45s1-.31,1-1.45-.43-1.45-1-1.45S36.47,5.58,36.47,6.75Z"/><path class="cls-2" d="M39.79,8.58a.88.88,0,0,1-.26,0,.39.39,0,0,1,0-.18.55.55,0,0,1,0-.19.71.71,0,0,0,.21,0c.28,0,.49-.45.59-1.72l.13-1.65H42.7V8.5a.86.86,0,0,1-.25,0,.8.8,0,0,1-.26,0V5.22H40.9l-.1,1.26C40.64,8.33,40.27,8.58,39.79,8.58Z"/><path class="cls-2" d="M44.2,6.84c0,1,.41,1.32,1.1,1.32a1.67,1.67,0,0,0,.88-.23.52.52,0,0,1,.17.38,1.93,1.93,0,0,1-1.15.31c-1,0-1.53-.67-1.53-2s.62-1.92,1.53-1.92a1.25,1.25,0,0,1,1.35,1.38,3,3,0,0,1-.08.72Zm1-1.68c-.57,0-1,.38-1,1.3H46A2.47,2.47,0,0,0,46,6,.78.78,0,0,0,45.2,5.15Z"/><path class="cls-2" d="M47.39,8.14c.2-.2.35-.6.43-1.65l.13-1.69h2.3V8.14h.45V9.41a.71.71,0,0,1-.22,0,1,1,0,0,1-.25,0V8.54H47.56v.87a.76.76,0,0,1-.23,0,.69.69,0,0,1-.23,0V8.14Zm.89-1.62a4.39,4.39,0,0,1-.33,1.62h1.79V5.22H48.38Z"/><path class="cls-2" d="M51.87,6.84c0,1,.41,1.32,1.1,1.32a1.67,1.67,0,0,0,.88-.23A.52.52,0,0,1,54,8.3a1.93,1.93,0,0,1-1.15.31c-1,0-1.53-.67-1.53-2S52,4.74,52.86,4.74a1.25,1.25,0,0,1,1.35,1.38,3,3,0,0,1-.08.72Zm1-1.68c-.57,0-1,.38-1,1.3h1.79a2.47,2.47,0,0,0,0-.4A.78.78,0,0,0,52.86,5.15Z"/><path class="cls-2" d="M55.65,8.5a.93.93,0,0,1-.51,0V4.84a.95.95,0,0,1,.51,0V6.4h1.82V4.84a.79.79,0,0,1,.26,0,.74.74,0,0,1,.26,0V8.5a.75.75,0,0,1-.26,0,.71.71,0,0,1-.25,0V6.83H55.65Z"/><path class="cls-2" d="M59.48,6.84c0,1,.41,1.32,1.1,1.32a1.67,1.67,0,0,0,.88-.23.52.52,0,0,1,.17.38,1.93,1.93,0,0,1-1.15.31c-1,0-1.53-.67-1.53-2s.62-1.92,1.53-1.92a1.25,1.25,0,0,1,1.35,1.38,3,3,0,0,1-.08.72Zm1-1.68c-.57,0-1,.38-1,1.3h1.79a2.47,2.47,0,0,0,0-.4A.78.78,0,0,0,60.47,5.15Z"/><path class="cls-2" d="M63.26,8.5a.93.93,0,0,1-.51,0V4.84a.95.95,0,0,1,.51,0V6.4h1.82V4.84a.79.79,0,0,1,.26,0,.74.74,0,0,1,.26,0V8.5a.75.75,0,0,1-.26,0,.71.71,0,0,1-.25,0V6.83H63.26Z"/><path class="cls-2" d="M69.42,4.81a.82.82,0,0,1,.27,0V8.5a.77.77,0,0,1-.26,0,.9.9,0,0,1-.26,0v-2c0-.59,0-1,0-1h0a6.67,6.67,0,0,1-.48.84L67.27,8.5a.89.89,0,0,1-.28,0,.8.8,0,0,1-.26,0V4.84a.79.79,0,0,1,.26,0,.73.73,0,0,1,.25,0V6.89c0,.48,0,1,0,1h0a4.88,4.88,0,0,1,.32-.57l1.6-2.44A.82.82,0,0,1,69.42,4.81Z"/><path class="cls-2" d="M71.19,6.84c0,1,.41,1.32,1.1,1.32a1.67,1.67,0,0,0,.88-.23.52.52,0,0,1,.17.38,1.93,1.93,0,0,1-1.15.31c-1,0-1.53-.67-1.53-2s.62-1.92,1.53-1.92a1.25,1.25,0,0,1,1.35,1.38,3,3,0,0,1-.08.72Zm1-1.68c-.57,0-1,.38-1,1.3H73A2.47,2.47,0,0,0,73,6,.78.78,0,0,0,72.18,5.15Z"/><path class="cls-3" d="M76.71,12.55A8.12,8.12,0,0,0,76.87.07L75.53,1.62A6.08,6.08,0,0,1,75.41,11Z"/><circle class="cls-4" cx="7.2" cy="6.31" r="6.31"/><path class="cls-1" d="M3,12.58A8.13,8.13,0,0,1,2.84.1l.82,1A6.87,6.87,0,0,0,3.8,11.6Z"/><path class="cls-1" d="M11.39,12.58A8.13,8.13,0,0,0,11.55.1l-.82,1a6.87,6.87,0,0,1-.14,10.55Z"/><path class="cls-5" d="M5.94,3.84a1.46,1.46,0,0,1,0,.5c-.07,1.61-1.72,2.1-1.72,4.29a2,2,0,0,1-.43,0,2.09,2.09,0,0,1-.43,0c0-2.33,1.39-2.85,1.67-4H3a1.17,1.17,0,0,1-.06-.4A1,1,0,0,1,3,3.84Z"/><path class="cls-5" d="M7.06,8.61a1.43,1.43,0,0,1-.45.06,1.28,1.28,0,0,1-.45-.06V7.79a1.28,1.28,0,0,1,.45-.06,1.43,1.43,0,0,1,.45.06Z"/><path class="cls-5" d="M9.87,3.91a1.3,1.3,0,0,1,.45-.06,1.1,1.1,0,0,1,.43.06V6.79h.58a1,1,0,0,1,0,.71h-.58V8.6a1.18,1.18,0,0,1-.41.06,1.37,1.37,0,0,1-.44-.06V7.5H7.75a.92.92,0,0,1,0-.71ZM8.63,6.79H9.91V5.05Z"/></g></svg>