<svg xmlns="http://www.w3.org/2000/svg" viewBox="0 0 99.45 12.62"><defs><style>.cls-1{fill:#000d21;}.cls-2{fill:#00bfce;}.cls-3,.cls-4{fill:#fff;}.cls-4{opacity:0.9;}.cls-5{fill:#00809e;}</style></defs><title>DOMUS в сайт</title><g id="Layer_1" data-name="Layer 1"><polygon class="cls-1" points="96.45 12.55 11.38 12.55 13.81 6.31 11.54 0.07 96.61 0.07 98.88 6.53 96.45 12.55"/><path class="cls-2" d="M96.45,12.55A8.12,8.12,0,0,0,96.61.07L95.28,1.62A6.08,6.08,0,0,1,95.16,11Z"/><path class="cls-3" d="M17.35,3.36c1.08,0,1.63.51,1.63,1.34a1.21,1.21,0,0,1-.73,1.21h0a1.27,1.27,0,0,1,.88,1.29c0,.79-.5,1.4-1.85,1.4A3.25,3.25,0,0,1,16,8.38a.52.52,0,0,1,.15-.4,3.75,3.75,0,0,0,1.09.16c1,0,1.38-.38,1.38-1,0-.84-.64-1-1.32-1h-.43a.6.6,0,0,1,0-.45h.43c.6,0,1.18-.17,1.18-1,0-.6-.43-.93-1.16-.93A3.33,3.33,0,0,0,16.21,4,.42.42,0,0,1,16,3.6,3.42,3.42,0,0,1,17.35,3.36Z"/><path class="cls-3" d="M21.4,4.74c1,0,1.28.49,1.28,1.43V8.5a.45.45,0,0,1-.21,0,.54.54,0,0,1-.21,0L22.2,8A1.23,1.23,0,0,1,21,8.61a1,1,0,0,1-1.1-1.14c0-.72.45-1.11,1.34-1.11a8,8,0,0,1,.93.06V6c0-.59-.25-.85-.84-.85a3.1,3.1,0,0,0-1,.18.34.34,0,0,1-.12-.16.54.54,0,0,1,0-.22A3.29,3.29,0,0,1,21.4,4.74Zm-.08,2c-.59,0-.88.23-.88.74a.65.65,0,0,0,.73.72,1,1,0,0,0,1-1.12V6.79C22,6.78,21.66,6.74,21.32,6.74Z"/><path class="cls-3" d="M25.41,4.74c.83,0,1.36.49,1.36,1.94s-.53,1.94-1.36,1.94a1.16,1.16,0,0,1-1.09-.55V10.2a.93.93,0,0,1-.51,0V4.84a.95.95,0,0,1,.51,0v.45A1.16,1.16,0,0,1,25.41,4.74Zm-.17.43a1,1,0,0,0-.92,1v.92a1,1,0,0,0,.92,1.06c.7,0,1-.38,1-1.5S25.93,5.17,25.24,5.17Z"/><path class="cls-3" d="M28.05,8.5a1.22,1.22,0,0,1-.31,0,1,1,0,0,1-.28,0L28.33,7a1,1,0,0,1-.7-1,1.07,1.07,0,0,1,1.18-1.12h1.5V8.5a1,1,0,0,1-.25,0,.9.9,0,0,1-.26,0V7h-.94Zm.11-2.58a.67.67,0,0,0,.75.72h.89V5.2H28.9A.66.66,0,0,0,28.16,5.93Z"/><path class="cls-3" d="M31.35,8.14c.2-.2.35-.6.43-1.65l.13-1.69h2.3V8.14h.45V9.41a.71.71,0,0,1-.22,0,1,1,0,0,1-.25,0V8.54H31.53v.87a.76.76,0,0,1-.23,0,.69.69,0,0,1-.23,0V8.14Zm.89-1.62a4.39,4.39,0,0,1-.33,1.62H33.7V5.22H32.35Z"/><path class="cls-3" d="M37.67,4.84a1,1,0,0,1,.28,0,.84.84,0,0,1,.26,0L37.05,6.55,38.37,8.5a.83.83,0,0,1-.3,0,.79.79,0,0,1-.28,0l-1.16-1.7H36V8.5a.75.75,0,0,1-.25,0,.8.8,0,0,1-.26,0V4.84a.81.81,0,0,1,.26,0,.76.76,0,0,1,.25,0V6.39h.6Z"/><path class="cls-3" d="M40.32,4.74c1,0,1.28.49,1.28,1.43V8.5a.45.45,0,0,1-.21,0,.54.54,0,0,1-.21,0L41.12,8a1.23,1.23,0,0,1-1.19.64,1,1,0,0,1-1.1-1.14c0-.72.45-1.11,1.34-1.11a8,8,0,0,1,.93.06V6c0-.59-.25-.85-.84-.85a3.1,3.1,0,0,0-1,.18.34.34,0,0,1-.12-.16.54.54,0,0,1,0-.22A3.29,3.29,0,0,1,40.32,4.74Zm-.08,2c-.59,0-.88.23-.88.74a.65.65,0,0,0,.73.72,1,1,0,0,0,1-1.12V6.79C40.93,6.78,40.58,6.74,40.24,6.74Z"/><path class="cls-3" d="M44.7,6.86a.55.55,0,0,1,0-.21.57.57,0,0,1,0-.2h1.43c0-.86-.4-1.31-1.1-1.31a2.12,2.12,0,0,0-.7.11.48.48,0,0,1-.14-.35,2.16,2.16,0,0,1,.94-.17c1,0,1.54.67,1.54,1.94s-.55,1.94-1.55,1.94a2.18,2.18,0,0,1-1-.21A.49.49,0,0,1,44.26,8a2.09,2.09,0,0,0,.74.13c.72,0,1.1-.43,1.13-1.32Z"/><path class="cls-3" d="M47.44,8.58a.88.88,0,0,1-.26,0,.39.39,0,0,1,0-.18.55.55,0,0,1,0-.19.71.71,0,0,0,.21,0c.28,0,.49-.45.59-1.72l.13-1.65h2.24V8.5a.86.86,0,0,1-.25,0,.8.8,0,0,1-.26,0V5.22H48.55l-.1,1.26C48.28,8.33,47.91,8.58,47.44,8.58Z"/><path class="cls-3" d="M51.85,6.84c0,1,.41,1.32,1.1,1.32a1.67,1.67,0,0,0,.88-.23A.52.52,0,0,1,54,8.3a1.93,1.93,0,0,1-1.15.31c-1,0-1.53-.67-1.53-2s.62-1.92,1.53-1.92a1.25,1.25,0,0,1,1.35,1.38,3,3,0,0,1-.08.72Zm1-1.68c-.57,0-1,.38-1,1.3h1.79a2.47,2.47,0,0,0,0-.4A.78.78,0,0,0,52.84,5.15Z"/><path class="cls-3" d="M57.27,4.84a1,1,0,0,1,.28,0,.84.84,0,0,1,.26,0L56.66,6.55,58,8.5a.83.83,0,0,1-.3,0,.79.79,0,0,1-.28,0l-1.16-1.7h-.59V8.5a.75.75,0,0,1-.25,0,.8.8,0,0,1-.26,0V4.84a.81.81,0,0,1,.26,0,.76.76,0,0,1,.25,0V6.39h.6Z"/><path class="cls-3" d="M61,4.81a.58.58,0,0,1,0,.44H59.94V8.5a.72.72,0,0,1-.26,0,.63.63,0,0,1-.25,0V5.25H58.32a.51.51,0,0,1,0-.44Z"/><path class="cls-3" d="M63.43,4.74c.83,0,1.36.49,1.36,1.94s-.53,1.94-1.36,1.94a1.16,1.16,0,0,1-1.09-.55V10.2a.93.93,0,0,1-.51,0V4.84a.95.95,0,0,1,.51,0v.45A1.16,1.16,0,0,1,63.43,4.74Zm-.17.43a1,1,0,0,0-.92,1v.92a1,1,0,0,0,.92,1.06c.7,0,1-.38,1-1.5S64,5.17,63.26,5.17Z"/><path class="cls-3" d="M67.12,4.74c1,0,1.52.53,1.52,1.94s-.57,1.94-1.52,1.94S65.6,8.08,65.6,6.67,66.17,4.74,67.12,4.74Zm0,.4c-.61,0-1,.35-1,1.53s.38,1.53,1,1.53,1-.35,1-1.53S67.73,5.14,67.12,5.14Z"/><path class="cls-3" d="M73,4.81a1.09,1.09,0,0,1,.28,0V8.5a.63.63,0,0,1-.24,0,.72.72,0,0,1-.25,0V6.34a7.58,7.58,0,0,1,0-.84h0a5.15,5.15,0,0,1-.27.55l-1,1.63a.29.29,0,0,1-.13,0,.29.29,0,0,1-.13,0l-.91-1.6a4.79,4.79,0,0,1-.28-.59h0a5.47,5.47,0,0,1,0,.85V8.5a.73.73,0,0,1-.24,0,.71.71,0,0,1-.23,0V4.84a1.06,1.06,0,0,1,.28,0,.9.9,0,0,1,.28,0l1,1.77c.1.18.17.34.22.45h0a4.22,4.22,0,0,1,.22-.45l1-1.77A1.08,1.08,0,0,1,73,4.81Z"/><path class="cls-3" d="M75.72,4.74c1,0,1.52.53,1.52,1.94s-.57,1.94-1.52,1.94-1.52-.53-1.52-1.94S74.77,4.74,75.72,4.74Zm0,.4c-.61,0-1,.35-1,1.53s.38,1.53,1,1.53,1-.35,1-1.53S76.33,5.14,75.72,5.14Z"/><path class="cls-3" d="M80.36,3.42c.26,0,.33-.08.43-.25a.45.45,0,0,1,.35.18c-.08.32-.25.45-.66.52-1.34.26-1.85.38-1.94,1.75h0a1.24,1.24,0,0,1,1.24-.72c.9,0,1.48.54,1.48,1.86s-.58,1.86-1.54,1.86-1.6-.43-1.6-2.56S78.82,3.7,80.36,3.42ZM78.74,6.75c0,1.15.43,1.45,1,1.45s1-.31,1-1.45-.43-1.45-1-1.45S78.74,5.58,78.74,6.75Z"/><path class="cls-3" d="M85,4.81a.82.82,0,0,1,.27,0V8.5a.77.77,0,0,1-.26,0,.9.9,0,0,1-.26,0v-2c0-.59,0-1,0-1h0a6.67,6.67,0,0,1-.48.84L82.8,8.5a.89.89,0,0,1-.28,0,.8.8,0,0,1-.26,0V4.84a.79.79,0,0,1,.26,0,.73.73,0,0,1,.25,0V6.89c0,.48,0,1,0,1h0a4.88,4.88,0,0,1,.32-.57l1.6-2.44A.82.82,0,0,1,85,4.81Z"/><path class="cls-3" d="M86.24,8.58a.88.88,0,0,1-.26,0,.39.39,0,0,1,0-.18.55.55,0,0,1,0-.19.71.71,0,0,0,.21,0c.28,0,.49-.45.59-1.72l.13-1.65h2.24V8.5a.86.86,0,0,1-.25,0,.8.8,0,0,1-.26,0V5.22H87.34l-.1,1.26C87.08,8.33,86.71,8.58,86.24,8.58Z"/><path class="cls-3" d="M90.59,8.5a1.22,1.22,0,0,1-.31,0,1,1,0,0,1-.28,0L90.87,7a1,1,0,0,1-.7-1,1.07,1.07,0,0,1,1.18-1.12h1.5V8.5a1,1,0,0,1-.25,0,.9.9,0,0,1-.26,0V7h-.94Zm.11-2.58a.67.67,0,0,0,.75.72h.89V5.2h-.89A.66.66,0,0,0,90.7,5.93Z"/><circle class="cls-4" cx="7.2" cy="6.31" r="6.31"/><path class="cls-1" d="M3,12.58A8.13,8.13,0,0,1,2.84.1l.82,1A6.87,6.87,0,0,0,3.8,11.6Z"/><path class="cls-1" d="M11.39,12.58A8.13,8.13,0,0,0,11.55.1l-.82,1a6.87,6.87,0,0,1-.14,10.55Z"/><path class="cls-5" d="M4,8.74a2.78,2.78,0,0,1-1.27-.26A.91.91,0,0,1,3,7.82,3.53,3.53,0,0,0,4,8c.62,0,1-.16,1-.74s-.26-.72-.85-.72h-.6a1,1,0,0,1,0-.71h.6c.52,0,.7-.26.7-.62S4.49,4.52,4,4.52a2.45,2.45,0,0,0-.87.15A.67.67,0,0,1,2.83,4a2.69,2.69,0,0,1,1.23-.25c1,0,1.64.43,1.64,1.3a1.05,1.05,0,0,1-.57,1.06,1.17,1.17,0,0,1,.74,1.21C5.86,8.23,5.35,8.74,4,8.74Z"/><path class="cls-5" d="M7.55,8.61a1.43,1.43,0,0,1-.45.06,1.28,1.28,0,0,1-.45-.06V7.79a1.28,1.28,0,0,1,.45-.06,1.43,1.43,0,0,1,.45.06Z"/><path class="cls-5" d="M10.37,3.91a1.3,1.3,0,0,1,.45-.06,1.1,1.1,0,0,1,.43.06V6.79h.58a1,1,0,0,1,0,.71h-.58V8.6a1.18,1.18,0,0,1-.41.06,1.37,1.37,0,0,1-.44-.06V7.5H8.24a.92.92,0,0,1,0-.71ZM9.12,6.79H10.4V5.05Z"/></g></svg>