<svg xmlns="http://www.w3.org/2000/svg" viewBox="0 0 78.98 12.62"><defs><style>.cls-1{fill:#000d21;}.cls-2,.cls-4{fill:#fff;}.cls-3{fill:#00bfce;}.cls-4{opacity:0.9;}.cls-5{fill:#00809e;}</style></defs><title>DOMUS в сайт</title><g id="Layer_1" data-name="Layer 1"><polygon class="cls-1" points="75.98 12.58 11.39 12.58 13.82 6.34 11.55 0.1 76.14 0.1 78.41 6.56 75.98 12.58"/><path class="cls-2" d="M18.17,3.46a1.26,1.26,0,0,1,1.38,1.37A1.22,1.22,0,0,1,18.94,6a1.22,1.22,0,0,1,.77,1.21,1.33,1.33,0,0,1-1.51,1.4H16.37V3.46Zm-.11,2.32a.84.84,0,0,0,1-1,.84.84,0,0,0-1-.94H16.89V5.78Zm0,2.36c.77,0,1.06-.36,1.06-1s-.33-1-1.06-1H16.89v2Z"/><path class="cls-2" d="M21.19,8.53a.93.93,0,0,1-.51,0V4.87a.95.95,0,0,1,.51,0V6.43H23V4.87a.79.79,0,0,1,.26,0,.73.73,0,0,1,.25,0V8.53a.74.74,0,0,1-.26,0,.71.71,0,0,1-.25,0V6.86H21.19Z"/><path class="cls-2" d="M26.11,9.26c-.23.68-.46,1.09-1.1,1.09a1.12,1.12,0,0,1-.36-.06.51.51,0,0,1,0-.2.43.43,0,0,1,0-.21,1.34,1.34,0,0,0,.31,0c.3,0,.47-.13.68-.75l.21-.6a.49.49,0,0,1-.17,0L24.27,4.87a1.05,1.05,0,0,1,.54,0l1,2.43c.17.44.25.76.25.76h0s.08-.31.23-.76l.84-2.43a.68.68,0,0,1,.25,0,.78.78,0,0,1,.26,0Z"/><path class="cls-2" d="M30.75,4.84a.58.58,0,0,1,0,.44H29.64V8.53a.72.72,0,0,1-.26,0,.63.63,0,0,1-.25,0V5.28H28a.51.51,0,0,1,0-.44Z"/><path class="cls-2" d="M33.13,4.76c.83,0,1.36.49,1.36,1.94S34,8.64,33.13,8.64A1.16,1.16,0,0,1,32,8.09v2.14a.93.93,0,0,1-.51,0V4.87a.95.95,0,0,1,.51,0v.45A1.16,1.16,0,0,1,33.13,4.76ZM33,5.2a1,1,0,0,0-.92,1v.92A1,1,0,0,0,33,8.21c.7,0,1-.38,1-1.5S33.66,5.2,33,5.2Z"/><path class="cls-2" d="M35.83,6.86c0,1,.41,1.32,1.1,1.32A1.67,1.67,0,0,0,37.81,8a.52.52,0,0,1,.17.38,1.93,1.93,0,0,1-1.15.31c-1,0-1.53-.67-1.53-2s.62-1.92,1.53-1.92a1.25,1.25,0,0,1,1.35,1.38,3,3,0,0,1-.08.72Zm1-1.68c-.57,0-1,.38-1,1.3h1.79a2.47,2.47,0,0,0,0-.4A.78.78,0,0,0,36.83,5.18Z"/><path class="cls-2" d="M39.62,8.53a.93.93,0,0,1-.51,0V4.87a.95.95,0,0,1,.51,0V6.43h1.82V4.87a.79.79,0,0,1,.26,0,.74.74,0,0,1,.26,0V8.53a.75.75,0,0,1-.26,0,.71.71,0,0,1-.25,0V6.86H39.62Z"/><path class="cls-2" d="M43.6,8.53a.93.93,0,0,1-.51,0V4.87a.95.95,0,0,1,.51,0V6.43h1.82V4.87a.79.79,0,0,1,.26,0,.73.73,0,0,1,.25,0V8.53a.74.74,0,0,1-.26,0,.71.71,0,0,1-.25,0V6.86H43.6Z"/><path class="cls-2" d="M47.37,8.53a1.22,1.22,0,0,1-.31,0,1,1,0,0,1-.28,0L47.65,7A1,1,0,0,1,47,6a1.07,1.07,0,0,1,1.18-1.12h1.5v3.7a1,1,0,0,1-.25,0,.9.9,0,0,1-.26,0V7.07h-.94ZM47.48,6a.67.67,0,0,0,.75.72h.89V5.23h-.89A.66.66,0,0,0,47.48,6Z"/><path class="cls-2" d="M51.07,8.53a1.22,1.22,0,0,1-.31,0,1,1,0,0,1-.28,0L51.35,7a1,1,0,0,1-.7-1,1.07,1.07,0,0,1,1.18-1.12h1.5v3.7a1,1,0,0,1-.25,0,.9.9,0,0,1-.26,0V7.07h-.94ZM51.17,6a.67.67,0,0,0,.75.72h.89V5.23h-.89A.66.66,0,0,0,51.17,6Z"/><path class="cls-2" d="M56.51,6.7c0,1,.35,1.48,1.11,1.48A1.7,1.7,0,0,0,58.31,8a.51.51,0,0,1,.16.38,1.89,1.89,0,0,1-1,.21C56.51,8.64,56,8,56,6.7s.53-1.94,1.53-1.94a1.83,1.83,0,0,1,.89.17.5.5,0,0,1-.16.38,1.61,1.61,0,0,0-.65-.12C56.83,5.2,56.51,5.69,56.51,6.7Z"/><path class="cls-2" d="M61.87,5.81a.87.87,0,0,1-.46.84.9.9,0,0,1,.6.9c0,.65-.41,1-1.13,1H59.31V4.84h1.53A.92.92,0,0,1,61.87,5.81Zm-1.15.68a.58.58,0,0,0,.65-.64.57.57,0,0,0-.65-.62h-.9V6.49Zm.06,1.69c.46,0,.7-.22.7-.64a.61.61,0,0,0-.7-.67h-1V8.18Z"/><path class="cls-2" d="M63.28,8.53a1.22,1.22,0,0,1-.31,0,1,1,0,0,1-.28,0L63.56,7a1,1,0,0,1-.7-1A1.07,1.07,0,0,1,64,4.84h1.5v3.7a1,1,0,0,1-.25,0,.9.9,0,0,1-.26,0V7.07h-.94ZM63.38,6a.67.67,0,0,0,.75.72H65V5.23h-.89A.66.66,0,0,0,63.38,6Z"/><path class="cls-2" d="M67.55,4.76c.92,0,1.3.4,1.3,1a.83.83,0,0,1-.52.87h0a.86.86,0,0,1,.62.88c0,.62-.35,1.09-1.5,1.09a2.5,2.5,0,0,1-1.08-.21.49.49,0,0,1,.15-.36,2.64,2.64,0,0,0,.92.14c.7,0,1-.23,1-.69s-.33-.65-.92-.65h-.45a.57.57,0,0,1,0-.21.5.5,0,0,1,0-.19h.45c.5,0,.82-.16.82-.65s-.28-.65-.87-.65a2.85,2.85,0,0,0-.85.12.46.46,0,0,1-.13-.36A2.68,2.68,0,0,1,67.55,4.76Z"/><path class="cls-2" d="M71.51,6.39a1,1,0,0,1,1.11,1.09,1,1,0,0,1-1.11,1.09h-1.6V4.87a1.05,1.05,0,0,1,.26,0,.94.94,0,0,1,.25,0V6.39Zm-.09,1.79a.62.62,0,0,0,.67-.7.62.62,0,0,0-.67-.7h-1v1.4Z"/><path class="cls-3" d="M76,12.58A8.12,8.12,0,0,0,76.14.1L74.8,1.65A6.08,6.08,0,0,1,74.68,11Z"/><circle class="cls-4" cx="7.2" cy="6.31" r="6.31"/><path class="cls-1" d="M3,12.58A8.13,8.13,0,0,1,2.84.1l.82,1A6.87,6.87,0,0,0,3.8,11.6Z"/><path class="cls-1" d="M11.39,12.58A8.13,8.13,0,0,0,11.55.1l-.82,1a6.87,6.87,0,0,1-.14,10.55Z"/><path class="cls-5" d="M4.56,3.91A1.3,1.3,0,0,1,5,3.84a1.1,1.1,0,0,1,.43.06V6.79H6A1,1,0,0,1,6,7.5H5.45V8.6A1.18,1.18,0,0,1,5,8.67,1.37,1.37,0,0,1,4.6,8.6V7.5H2.44a.92.92,0,0,1,0-.71ZM3.32,6.79H4.6V5.06Z"/><path class="cls-5" d="M7.64,8.61a1.43,1.43,0,0,1-.45.06,1.28,1.28,0,0,1-.45-.06V7.79a1.28,1.28,0,0,1,.45-.06,1.43,1.43,0,0,1,.45.06Z"/><path class="cls-5" d="M9.64,8.74a2.78,2.78,0,0,1-1.27-.26.91.91,0,0,1,.22-.66,3.53,3.53,0,0,0,1,.15c.62,0,1-.16,1-.74s-.26-.72-.85-.72h-.6a1,1,0,0,1,0-.71h.6c.52,0,.7-.26.7-.62s-.29-.66-.82-.66a2.45,2.45,0,0,0-.87.15A.67.67,0,0,1,8.43,4a2.69,2.69,0,0,1,1.23-.25c1,0,1.64.43,1.64,1.3a1.05,1.05,0,0,1-.57,1.06,1.17,1.17,0,0,1,.74,1.21C11.47,8.23,11,8.74,9.64,8.74Z"/></g></svg>