<svg xmlns="http://www.w3.org/2000/svg" viewBox="0 0 127.67 12.62"><defs><style>.cls-1{fill:#000d21;}.cls-2{fill:#00bfce;}.cls-3,.cls-5{fill:#fff;}.cls-3{opacity:0.9;}.cls-4{fill:#00809e;}</style></defs><title>DOMUS в сайт</title><g id="Layer_1" data-name="Layer 1"><polygon class="cls-1" points="124.67 12.55 11.37 12.55 13.8 6.31 11.53 0.07 124.83 0.07 127.1 6.53 124.67 12.55"/><path class="cls-2" d="M124.67,12.55A8.12,8.12,0,0,0,124.83.07l-1.33,1.56a6.08,6.08,0,0,1-.12,9.33Z"/><circle class="cls-3" cx="7.2" cy="6.31" r="6.31"/><path class="cls-1" d="M3,12.58A8.13,8.13,0,0,1,2.84.1l.82,1A6.87,6.87,0,0,0,3.8,11.6Z"/><path class="cls-1" d="M11.39,12.58A8.13,8.13,0,0,0,11.55.1l-.82,1a6.87,6.87,0,0,1-.14,10.55Z"/><path class="cls-4" d="M5.47,4.56C4.51,4.66,4,5,3.74,5.81a3.05,3.05,0,0,1,.74-.09A1.36,1.36,0,0,1,6,7.23c0,1-.62,1.51-1.63,1.51S2.71,8.17,2.71,6.84a2.64,2.64,0,0,1,2.76-3A1,1,0,0,1,5.47,4.56ZM4.32,6.41a2.34,2.34,0,0,0-.7.11c0,.11,0,.23,0,.35,0,.87.28,1.18.72,1.18S5,7.81,5,7.23,4.74,6.41,4.32,6.41Z"/><path class="cls-4" d="M7.58,8.61a1.43,1.43,0,0,1-.45.06,1.28,1.28,0,0,1-.45-.06V7.79a1.28,1.28,0,0,1,.45-.06,1.43,1.43,0,0,1,.45.06Z"/><path class="cls-4" d="M8.5,4a3.61,3.61,0,0,1,1.33-.25c.89,0,1.62.38,1.62,1.34s-.51,1.23-1.36,1.74c-.39.24-.91.47-.91.91a.57.57,0,0,0,0,.11H11.3a.81.81,0,0,1,.08.4,1,1,0,0,1-.08.4H8.36a2.9,2.9,0,0,1,0-.48,2.29,2.29,0,0,1,1.37-2c.62-.43.84-.62.84-1.07s-.33-.62-.84-.62a3.19,3.19,0,0,0-.93.16A.7.7,0,0,1,8.5,4Z"/><path class="cls-5" d="M18,3.43a.85.85,0,0,1,.29,0l1.88,5a.76.76,0,0,1-.29,0,.62.62,0,0,1-.25,0l-.51-1.36H16.82L16.3,8.49a.62.62,0,0,1-.26,0,.56.56,0,0,1-.25,0l1.88-5A.9.9,0,0,1,18,3.43Zm0,.61a4,4,0,0,1-.14.49L17,6.7h2L18.1,4.53A4.13,4.13,0,0,1,18,4Z"/><path class="cls-5" d="M20.74,8.14c.2-.2.35-.6.43-1.65l.13-1.69h2.3V8.14h.45V9.41a.71.71,0,0,1-.22,0,1,1,0,0,1-.25,0V8.54H20.92v.87a.76.76,0,0,1-.23,0,.69.69,0,0,1-.23,0V8.14Zm.89-1.62a4.39,4.39,0,0,1-.33,1.62h1.79V5.22H21.74Z"/><path class="cls-5" d="M26.17,4.73c1,0,1.28.49,1.28,1.43V8.5a.45.45,0,0,1-.21,0,.54.54,0,0,1-.21,0L27,8a1.23,1.23,0,0,1-1.19.64,1,1,0,0,1-1.1-1.14c0-.72.45-1.11,1.34-1.11a8,8,0,0,1,.93.06V6c0-.59-.25-.85-.84-.85a3.1,3.1,0,0,0-1,.18A.34.34,0,0,1,25,5.2.54.54,0,0,1,25,5,3.29,3.29,0,0,1,26.17,4.73Zm-.08,2c-.59,0-.88.23-.88.74a.65.65,0,0,0,.73.72,1,1,0,0,0,1-1.12V6.79C26.78,6.78,26.43,6.73,26.08,6.73Z"/><path class="cls-5" d="M29.08,8.5a.77.77,0,0,1-.25,0,.78.78,0,0,1-.26,0V4.8h2.76V8.5a.73.73,0,0,1-.26,0,.83.83,0,0,1-.26,0V5.24H29.08Z"/><path class="cls-5" d="M34.85,4.8a.58.58,0,0,1,0,.44H33.74V8.5a.72.72,0,0,1-.26,0,.63.63,0,0,1-.25,0V5.24H32.12a.51.51,0,0,1,0-.44Z"/><path class="cls-5" d="M38.32,4.8a.82.82,0,0,1,.27,0V8.5a.77.77,0,0,1-.26,0,.9.9,0,0,1-.26,0v-2c0-.59,0-1,0-1h0a6.67,6.67,0,0,1-.48.84L36.17,8.5a.89.89,0,0,1-.28,0,.8.8,0,0,1-.26,0V4.84a.79.79,0,0,1,.26,0,.73.73,0,0,1,.25,0V6.89c0,.48,0,1,0,1h0a4.88,4.88,0,0,1,.32-.57l1.6-2.44A.82.82,0,0,1,38.32,4.8Z"/><path class="cls-5" d="M42.29,5.78a.87.87,0,0,1-.46.84.9.9,0,0,1,.6.9c0,.65-.41,1-1.13,1H39.73V4.8h1.53A.92.92,0,0,1,42.29,5.78Zm-1.15.68a.58.58,0,0,0,.65-.64.57.57,0,0,0-.65-.62h-.9V6.46Zm.06,1.69c.45,0,.7-.22.7-.64a.61.61,0,0,0-.7-.67h-1V8.15Z"/><path class="cls-5" d="M43.9,8.5a.93.93,0,0,1-.51,0V4.84a.95.95,0,0,1,.51,0V6.4h1.82V4.84a.79.79,0,0,1,.26,0,.74.74,0,0,1,.26,0V8.5a.75.75,0,0,1-.26,0,.71.71,0,0,1-.25,0V6.83H43.9Z"/><path class="cls-5" d="M48.62,4.73c1,0,1.28.49,1.28,1.43V8.5a.45.45,0,0,1-.21,0,.54.54,0,0,1-.21,0L49.41,8a1.23,1.23,0,0,1-1.19.64,1,1,0,0,1-1.1-1.14c0-.72.45-1.11,1.34-1.11a8,8,0,0,1,.93.06V6c0-.59-.25-.85-.84-.85a3.1,3.1,0,0,0-1,.18.34.34,0,0,1-.12-.16.54.54,0,0,1,0-.22A3.29,3.29,0,0,1,48.62,4.73Zm-.08,2c-.59,0-.88.23-.88.74a.65.65,0,0,0,.73.72,1,1,0,0,0,1-1.12V6.79C49.23,6.78,48.87,6.73,48.53,6.73Z"/><path class="cls-5" d="M51.33,8.5a1.22,1.22,0,0,1-.31,0,1,1,0,0,1-.28,0L51.61,7a1,1,0,0,1-.7-1A1.07,1.07,0,0,1,52.08,4.8h1.5V8.5a1,1,0,0,1-.25,0,.9.9,0,0,1-.26,0V7h-.94Zm.11-2.58a.67.67,0,0,0,.75.72h.89V5.2h-.89A.66.66,0,0,0,51.43,5.93Z"/><path class="cls-5" d="M56.77,6.67c0,1,.35,1.48,1.11,1.48A1.7,1.7,0,0,0,58.57,8a.51.51,0,0,1,.16.38,1.89,1.89,0,0,1-1,.21c-1,0-1.53-.67-1.53-1.94s.53-1.94,1.53-1.94a1.83,1.83,0,0,1,.89.17.5.5,0,0,1-.16.38,1.61,1.61,0,0,0-.65-.12C57.09,5.17,56.77,5.66,56.77,6.67Z"/><path class="cls-5" d="M62.26,4.8a.82.82,0,0,1,.27,0V8.5a.77.77,0,0,1-.26,0,.9.9,0,0,1-.26,0v-2c0-.59,0-1,0-1h0a6.67,6.67,0,0,1-.48.84L60.11,8.5a.89.89,0,0,1-.28,0,.8.8,0,0,1-.26,0V4.84a.79.79,0,0,1,.26,0,.73.73,0,0,1,.25,0V6.89c0,.48,0,1,0,1h0a4.88,4.88,0,0,1,.32-.57L62,4.84A.82.82,0,0,1,62.26,4.8Z"/><path class="cls-5" d="M64,6.67c0,1,.35,1.48,1.11,1.48A1.71,1.71,0,0,0,65.83,8a.51.51,0,0,1,.16.38,1.89,1.89,0,0,1-1,.21c-1,0-1.53-.67-1.53-1.94S64,4.73,65,4.73a1.83,1.83,0,0,1,.89.17.5.5,0,0,1-.16.38,1.61,1.61,0,0,0-.65-.12C64.36,5.17,64,5.66,64,6.67Z"/><path class="cls-5" d="M69.21,4.8a.58.58,0,0,1,0,.44H68.11V8.5a.72.72,0,0,1-.26,0,.63.63,0,0,1-.25,0V5.24H66.49a.51.51,0,0,1,0-.44Z"/><path class="cls-5" d="M70.25,6.83c0,1,.41,1.32,1.1,1.32a1.67,1.67,0,0,0,.88-.23.52.52,0,0,1,.17.38,1.93,1.93,0,0,1-1.15.31c-1,0-1.53-.67-1.53-2s.62-1.92,1.53-1.92a1.25,1.25,0,0,1,1.35,1.38,3,3,0,0,1-.08.72Zm1-1.68c-.57,0-1,.38-1,1.3H72a2.47,2.47,0,0,0,0-.4A.78.78,0,0,0,71.25,5.15Z"/><path class="cls-5" d="M76.86,4.8a1.09,1.09,0,0,1,.28,0V8.5a.63.63,0,0,1-.24,0,.72.72,0,0,1-.25,0V6.34a7.58,7.58,0,0,1,0-.84h0a5.15,5.15,0,0,1-.27.55l-1,1.63a.29.29,0,0,1-.13,0,.29.29,0,0,1-.13,0l-.91-1.6A4.79,4.79,0,0,1,74,5.49h0a5.47,5.47,0,0,1,0,.85V8.5a.73.73,0,0,1-.24,0,.71.71,0,0,1-.23,0V4.84a1.06,1.06,0,0,1,.28,0,.9.9,0,0,1,.28,0l1,1.77c.1.18.17.34.22.45h0a4.22,4.22,0,0,1,.22-.45l1-1.77A1.08,1.08,0,0,1,76.86,4.8Z"/><path class="cls-5" d="M79.53,4.73c1,0,1.28.49,1.28,1.43V8.5a.45.45,0,0,1-.21,0,.54.54,0,0,1-.21,0L80.33,8a1.23,1.23,0,0,1-1.19.64A1,1,0,0,1,78,7.47c0-.72.45-1.11,1.34-1.11a8,8,0,0,1,.93.06V6c0-.59-.25-.85-.84-.85a3.1,3.1,0,0,0-1,.18.34.34,0,0,1-.12-.16.54.54,0,0,1,0-.22A3.29,3.29,0,0,1,79.53,4.73Zm-.08,2c-.59,0-.88.23-.88.74a.65.65,0,0,0,.73.72,1,1,0,0,0,1-1.12V6.79C80.14,6.78,79.79,6.73,79.45,6.73Z"/><path class="cls-5" d="M85.07,9.23c-.23.68-.46,1.09-1.1,1.09a1.12,1.12,0,0,1-.36-.06.51.51,0,0,1,0-.2.43.43,0,0,1,0-.21,1.34,1.34,0,0,0,.31,0c.3,0,.47-.13.68-.75l.21-.6a.49.49,0,0,1-.17,0L83.23,4.84a1.05,1.05,0,0,1,.54,0l1,2.43c.17.44.25.76.25.76h0s.08-.31.23-.76l.84-2.43a.68.68,0,0,1,.25,0,.78.78,0,0,1,.26,0Z"/><path class="cls-5" d="M87.84,8.5a.77.77,0,0,1-.25,0,.78.78,0,0,1-.26,0V4.8h2.76V8.5a.73.73,0,0,1-.26,0,.83.83,0,0,1-.26,0V5.24H87.84Z"/><path class="cls-5" d="M92.83,4.73c.83,0,1.36.49,1.36,1.94s-.53,1.94-1.36,1.94a1.16,1.16,0,0,1-1.09-.55V10.2a.93.93,0,0,1-.51,0V4.84a.95.95,0,0,1,.51,0v.45A1.16,1.16,0,0,1,92.83,4.73Zm-.17.43a1,1,0,0,0-.92,1v.92a1,1,0,0,0,.92,1.06c.7,0,1-.38,1-1.5S93.36,5.17,92.66,5.17Z"/><path class="cls-5" d="M96.43,4.73c1,0,1.28.49,1.28,1.43V8.5a.45.45,0,0,1-.21,0,.54.54,0,0,1-.21,0L97.22,8A1.23,1.23,0,0,1,96,8.61a1,1,0,0,1-1.1-1.14c0-.72.45-1.11,1.34-1.11a8,8,0,0,1,.93.06V6c0-.59-.25-.85-.84-.85a3.1,3.1,0,0,0-1,.18.34.34,0,0,1-.12-.16.54.54,0,0,1,0-.22A3.29,3.29,0,0,1,96.43,4.73Zm-.08,2c-.59,0-.88.23-.88.74a.65.65,0,0,0,.73.72,1,1,0,0,0,1-1.12V6.79C97,6.78,96.68,6.73,96.34,6.73Z"/><path class="cls-5" d="M101.39,5.78a.87.87,0,0,1-.46.84.9.9,0,0,1,.6.9c0,.65-.41,1-1.13,1H98.83V4.8h1.53A.92.92,0,0,1,101.39,5.78Zm-1.15.68a.58.58,0,0,0,.65-.64.57.57,0,0,0-.65-.62h-.9V6.46Zm.06,1.69c.46,0,.7-.22.7-.64a.61.61,0,0,0-.7-.67h-1V8.15Z"/><path class="cls-5" d="M102.36,8.58a.88.88,0,0,1-.26,0,.39.39,0,0,1,0-.18.55.55,0,0,1,0-.19.71.71,0,0,0,.21,0c.28,0,.49-.45.59-1.72L103,4.8h2.24V8.5a.86.86,0,0,1-.25,0,.8.8,0,0,1-.26,0V5.22h-1.29l-.1,1.26C103.2,8.32,102.84,8.58,102.36,8.58Z"/><path class="cls-5" d="M106.77,6.83c0,1,.41,1.32,1.1,1.32a1.67,1.67,0,0,0,.88-.23.52.52,0,0,1,.17.38,1.93,1.93,0,0,1-1.15.31c-1,0-1.53-.67-1.53-2s.62-1.92,1.53-1.92a1.25,1.25,0,0,1,1.35,1.38,3,3,0,0,1-.08.72Zm1-1.68c-.57,0-1,.38-1,1.3h1.79a2.47,2.47,0,0,0,0-.4A.78.78,0,0,0,107.76,5.15Z"/><path class="cls-5" d="M110.56,8.5a.93.93,0,0,1-.51,0V4.84a.95.95,0,0,1,.51,0V6.4h1.82V4.84a.79.79,0,0,1,.26,0,.73.73,0,0,1,.25,0V8.5a.74.74,0,0,1-.26,0,.71.71,0,0,1-.25,0V6.83h-1.82Z"/><path class="cls-5" d="M116.71,4.8a.82.82,0,0,1,.27,0V8.5a.77.77,0,0,1-.26,0,.9.9,0,0,1-.26,0v-2c0-.59,0-1,0-1h0a6.67,6.67,0,0,1-.48.84L114.56,8.5a.89.89,0,0,1-.28,0,.8.8,0,0,1-.26,0V4.84a.79.79,0,0,1,.26,0,.73.73,0,0,1,.25,0V6.89c0,.48,0,1,0,1h0a4.88,4.88,0,0,1,.32-.57l1.6-2.44A.82.82,0,0,1,116.71,4.8Z"/><path class="cls-5" d="M118.42,8.5a1.22,1.22,0,0,1-.31,0,1,1,0,0,1-.28,0L118.71,7a1,1,0,0,1-.7-1,1.07,1.07,0,0,1,1.18-1.12h1.5V8.5a1,1,0,0,1-.25,0,.9.9,0,0,1-.26,0V7h-.94Zm.11-2.58a.67.67,0,0,0,.75.72h.89V5.2h-.89A.66.66,0,0,0,118.53,5.93Z"/></g></svg>