<svg xmlns="http://www.w3.org/2000/svg" viewBox="0 0 77.47 12.62"><defs><style>.cls-1{fill:#000d21;}.cls-2,.cls-4{fill:#fff;}.cls-3{fill:#00bfce;}.cls-4{opacity:0.9;}.cls-5{fill:#00809e;}</style></defs><title>DOMUS в сайт</title><g id="Layer_1" data-name="Layer 1"><polygon class="cls-1" points="74.47 12.52 11.36 12.52 13.78 6.28 11.52 0.04 74.63 0.04 76.9 6.5 74.47 12.52"/><path class="cls-2" d="M18.14,3.4a1.26,1.26,0,0,1,1.38,1.37A1.22,1.22,0,0,1,18.9,5.9a1.22,1.22,0,0,1,.77,1.21,1.33,1.33,0,0,1-1.51,1.4H16.33V3.4ZM18,5.72a.84.84,0,0,0,1-1,.84.84,0,0,0-1-.94H16.86V5.72Zm0,2.36c.77,0,1.06-.36,1.06-1s-.33-1-1.06-1H16.86v2Z"/><path class="cls-2" d="M21,6.8c0,1,.41,1.32,1.1,1.32A1.67,1.67,0,0,0,23,7.89a.52.52,0,0,1,.17.38A1.93,1.93,0,0,1,22,8.58c-1,0-1.53-.67-1.53-2S21.12,4.7,22,4.7a1.25,1.25,0,0,1,1.35,1.38,3,3,0,0,1-.08.72Zm1-1.68c-.57,0-1,.38-1,1.3h1.79a2.47,2.47,0,0,0,0-.4A.78.78,0,0,0,22,5.12Z"/><path class="cls-2" d="M26.66,4.78a.58.58,0,0,1,0,.44H25.55V8.47a.72.72,0,0,1-.26,0,.63.63,0,0,1-.25,0V5.22H23.93a.51.51,0,0,1,0-.44Z"/><path class="cls-2" d="M29,4.7c.83,0,1.36.49,1.36,1.94S29.87,8.58,29,8.58A1.16,1.16,0,0,1,28,8v2.14a.93.93,0,0,1-.51,0V4.81a.95.95,0,0,1,.51,0v.45A1.16,1.16,0,0,1,29,4.7Zm-.17.43a1,1,0,0,0-.92,1v.92a1,1,0,0,0,.92,1.06c.7,0,1-.38,1-1.5S29.57,5.14,28.87,5.14Z"/><path class="cls-2" d="M32.74,4.7c1,0,1.52.53,1.52,1.94s-.57,1.94-1.52,1.94S31.22,8,31.22,6.64,31.79,4.7,32.74,4.7Zm0,.4c-.61,0-1,.35-1,1.53s.38,1.53,1,1.53,1-.35,1-1.53S33.35,5.11,32.74,5.11Z"/><path class="cls-2" d="M37.31,4.78a.53.53,0,0,1,0,.22.51.51,0,0,1,0,.21H35.74V8.47a.93.93,0,0,1-.51,0V4.78Z"/><path class="cls-2" d="M38.33,6.8c0,1,.41,1.32,1.1,1.32a1.67,1.67,0,0,0,.88-.23.52.52,0,0,1,.17.38,1.93,1.93,0,0,1-1.15.31c-1,0-1.53-.67-1.53-2s.62-1.92,1.53-1.92a1.25,1.25,0,0,1,1.35,1.38,3,3,0,0,1-.08.72Zm1-1.68c-.57,0-1,.38-1,1.3h1.79a2.47,2.47,0,0,0,0-.4A.78.78,0,0,0,39.32,5.12Z"/><path class="cls-2" d="M42.11,8.47a.93.93,0,0,1-.51,0V4.81a.95.95,0,0,1,.51,0V6.37h1.82V4.81a.79.79,0,0,1,.26,0,.73.73,0,0,1,.25,0V8.47a.74.74,0,0,1-.26,0,.71.71,0,0,1-.25,0V6.8H42.11Z"/><path class="cls-2" d="M45.94,6.8c0,1,.41,1.32,1.1,1.32a1.67,1.67,0,0,0,.88-.23.52.52,0,0,1,.17.38,1.93,1.93,0,0,1-1.15.31c-1,0-1.53-.67-1.53-2S46,4.7,46.93,4.7a1.25,1.25,0,0,1,1.35,1.38,3,3,0,0,1-.08.72Zm1-1.68c-.57,0-1,.38-1,1.3h1.79a2.47,2.47,0,0,0,0-.4A.78.78,0,0,0,46.93,5.12Z"/><path class="cls-2" d="M50.82,4.7c.83,0,1.36.49,1.36,1.94s-.53,1.94-1.36,1.94A1.16,1.16,0,0,1,49.73,8v2.14a.93.93,0,0,1-.51,0V4.81a.95.95,0,0,1,.51,0v.45A1.16,1.16,0,0,1,50.82,4.7Zm-.17.43a1,1,0,0,0-.92,1v.92a1,1,0,0,0,.92,1.06c.7,0,1-.38,1-1.5S51.34,5.14,50.65,5.14Z"/><path class="cls-2" d="M54.41,4.7c1,0,1.28.49,1.28,1.43V8.47a.45.45,0,0,1-.21,0,.54.54,0,0,1-.21,0l-.08-.53A1.23,1.23,0,0,1,54,8.58a1,1,0,0,1-1.1-1.14c0-.72.45-1.11,1.34-1.11a8,8,0,0,1,.93.06V6c0-.59-.25-.85-.84-.85a3.1,3.1,0,0,0-1,.18.34.34,0,0,1-.12-.16.54.54,0,0,1,0-.22A3.29,3.29,0,0,1,54.41,4.7Zm-.08,2c-.59,0-.88.23-.88.74a.65.65,0,0,0,.73.72,1,1,0,0,0,1-1.12V6.76C55,6.75,54.67,6.71,54.33,6.71Z"/><path class="cls-2" d="M59.13,4.78a.58.58,0,0,1,0,.44H58V8.47a.72.72,0,0,1-.26,0,.63.63,0,0,1-.25,0V5.22H56.4a.51.51,0,0,1,0-.44Z"/><path class="cls-2" d="M61.16,4.7c1,0,1.52.53,1.52,1.94s-.57,1.94-1.52,1.94S59.64,8,59.64,6.64,60.21,4.7,61.16,4.7Zm0,.4c-.61,0-1,.35-1,1.53s.38,1.53,1,1.53,1-.35,1-1.53S61.77,5.11,61.16,5.11Z"/><path class="cls-2" d="M65.26,4.7c.83,0,1.36.49,1.36,1.94s-.53,1.94-1.36,1.94A1.16,1.16,0,0,1,64.16,8v2.14a.93.93,0,0,1-.51,0V4.81a.95.95,0,0,1,.51,0v.45A1.16,1.16,0,0,1,65.26,4.7Zm-.17.43a1,1,0,0,0-.92,1v.92a1,1,0,0,0,.92,1.06c.7,0,1-.38,1-1.5S65.78,5.14,65.09,5.14Z"/><path class="cls-2" d="M67.85,4.78a.94.94,0,0,1,.25,0V6.33h1.09A1,1,0,0,1,70.3,7.42a1,1,0,0,1-1.11,1.09h-1.6V4.81A1.05,1.05,0,0,1,67.85,4.78Zm.25,3.34h1a.62.62,0,0,0,.67-.7.62.62,0,0,0-.67-.7h-1Zm3.19-3.34a.9.9,0,0,1,.25,0V8.47a.9.9,0,0,1-.25,0,1,1,0,0,1-.26,0V4.81A1,1,0,0,1,71.29,4.78Z"/><path class="cls-3" d="M74.47,12.52A8.12,8.12,0,0,0,74.63,0L73.3,1.59a6.08,6.08,0,0,1-.12,9.33Z"/><circle class="cls-4" cx="7.2" cy="6.31" r="6.31"/><path class="cls-1" d="M3,12.58A8.13,8.13,0,0,1,2.84.1l.82,1A6.87,6.87,0,0,0,3.8,11.6Z"/><path class="cls-1" d="M11.39,12.58A8.13,8.13,0,0,0,11.55.1l-.82,1a6.87,6.87,0,0,1-.14,10.55Z"/><path class="cls-5" d="M4,8.74a2.78,2.78,0,0,1-1.27-.26A.91.91,0,0,1,3,7.82,3.53,3.53,0,0,0,4,8c.62,0,1-.16,1-.74s-.26-.72-.85-.72h-.6a1,1,0,0,1,0-.71h.6c.52,0,.7-.26.7-.62S4.49,4.52,4,4.52a2.45,2.45,0,0,0-.87.15A.67.67,0,0,1,2.83,4a2.69,2.69,0,0,1,1.23-.25c1,0,1.64.43,1.64,1.3a1.05,1.05,0,0,1-.57,1.06,1.17,1.17,0,0,1,.74,1.21C5.86,8.23,5.35,8.74,4,8.74Z"/><path class="cls-5" d="M7.55,8.61a1.43,1.43,0,0,1-.45.06,1.28,1.28,0,0,1-.45-.06V7.79a1.28,1.28,0,0,1,.45-.06,1.43,1.43,0,0,1,.45.06Z"/><path class="cls-5" d="M9.56,8.74a2.78,2.78,0,0,1-1.27-.26.91.91,0,0,1,.22-.66,3.53,3.53,0,0,0,1,.15c.62,0,1-.16,1-.74s-.26-.72-.85-.72H9A1,1,0,0,1,9,5.8h.6c.52,0,.7-.26.7-.62s-.29-.66-.82-.66a2.45,2.45,0,0,0-.87.15A.67.67,0,0,1,8.34,4a2.69,2.69,0,0,1,1.23-.25c1,0,1.64.43,1.64,1.3a1.05,1.05,0,0,1-.57,1.06,1.17,1.17,0,0,1,.74,1.21C11.38,8.23,10.87,8.74,9.56,8.74Z"/></g></svg>