<svg xmlns="http://www.w3.org/2000/svg" viewBox="0 0 132.4 12.62"><defs><style>.cls-1{fill:#000d21;}.cls-2{fill:#00bfce;}.cls-3,.cls-4{fill:#fff;}.cls-4{opacity:0.9;}.cls-5{fill:#00809e;}</style></defs><title>DOMUS в сайт</title><g id="Layer_1" data-name="Layer 1"><polygon class="cls-1" points="129.4 12.6 11.38 12.6 13.81 6.35 11.54 0.11 129.56 0.11 131.83 6.58 129.4 12.6"/><path class="cls-2" d="M129.4,12.59A8.12,8.12,0,0,0,129.56.11l-1.33,1.56a6.08,6.08,0,0,1-.12,9.33Z"/><path class="cls-3" d="M20.23,8.14V9.56a.62.62,0,0,1-.23,0,.71.71,0,0,1-.25,0v-1H16.3v1a.66.66,0,0,1-.24,0,.7.7,0,0,1-.24,0V8.14h.42A3.87,3.87,0,0,0,16.81,6L17,3.47h2.67V8.14ZM17.32,6a5.23,5.23,0,0,1-.48,2.12h2.31V3.89H17.47Z"/><path class="cls-3" d="M23.77,4.85a.82.82,0,0,1,.27,0V8.55a.77.77,0,0,1-.26,0,.9.9,0,0,1-.26,0v-2c0-.59,0-1,0-1h0a6.67,6.67,0,0,1-.48.84L21.61,8.55a.89.89,0,0,1-.28,0,.8.8,0,0,1-.26,0V4.89a.79.79,0,0,1,.26,0,.73.73,0,0,1,.25,0V6.94c0,.48,0,1,0,1h0a4.88,4.88,0,0,1,.32-.57l1.6-2.44A.82.82,0,0,1,23.77,4.85Z"/><path class="cls-3" d="M25.54,6.72c0,1,.35,1.48,1.11,1.48a1.7,1.7,0,0,0,.69-.13.51.51,0,0,1,.16.38,1.89,1.89,0,0,1-1,.21C25.54,8.65,25,8,25,6.72s.53-1.94,1.53-1.94a1.83,1.83,0,0,1,.89.17.5.5,0,0,1-.16.38,1.61,1.61,0,0,0-.65-.12C25.86,5.21,25.54,5.71,25.54,6.72Z"/><path class="cls-3" d="M30.72,4.85a.58.58,0,0,1,0,.44H29.61V8.55a.72.72,0,0,1-.26,0,.63.63,0,0,1-.25,0V5.29H28a.51.51,0,0,1,0-.44Z"/><path class="cls-3" d="M32.72,4.78c1,0,1.28.49,1.28,1.43V8.55a.45.45,0,0,1-.21,0,.54.54,0,0,1-.21,0L33.51,8a1.23,1.23,0,0,1-1.19.64,1,1,0,0,1-1.1-1.14c0-.72.45-1.11,1.34-1.11a8,8,0,0,1,.93.06v-.4c0-.59-.25-.85-.84-.85a3.1,3.1,0,0,0-1,.18.34.34,0,0,1-.12-.16.54.54,0,0,1,0-.22A3.29,3.29,0,0,1,32.72,4.78Zm-.08,2c-.59,0-.88.23-.88.74a.65.65,0,0,0,.73.72,1,1,0,0,0,1-1.12V6.84C33.33,6.82,33,6.78,32.63,6.78Z"/><path class="cls-3" d="M35.63,8.55a.93.93,0,0,1-.51,0V4.89a.95.95,0,0,1,.51,0V6.45h1.82V4.89a.79.79,0,0,1,.26,0,.73.73,0,0,1,.25,0V8.55a.74.74,0,0,1-.26,0,.71.71,0,0,1-.25,0V6.87H35.63Z"/><path class="cls-3" d="M41.6,4.85a.79.79,0,0,1,.26,0V8.15h.45V9.46a.72.72,0,0,1-.23,0,.79.79,0,0,1-.24,0V8.58H39.09V4.89a.94.94,0,0,1,.51,0V8.15h1.75V4.89A.78.78,0,0,1,41.6,4.85Z"/><path class="cls-3" d="M45.86,4.85a.82.82,0,0,1,.27,0V8.55a.77.77,0,0,1-.26,0,.9.9,0,0,1-.26,0v-2c0-.59,0-1,0-1h0a6.67,6.67,0,0,1-.48.84L43.71,8.55a.89.89,0,0,1-.28,0,.8.8,0,0,1-.26,0V4.89a.79.79,0,0,1,.26,0,.73.73,0,0,1,.25,0V6.94c0,.48,0,1,0,1h0A4.88,4.88,0,0,1,44,7.33l1.6-2.44A.82.82,0,0,1,45.86,4.85Z"/><path class="cls-3" d="M48.62,4.78c1,0,1.52.53,1.52,1.94s-.57,1.94-1.52,1.94S47.1,8.12,47.1,6.72,47.67,4.78,48.62,4.78Zm0,.4c-.61,0-1,.35-1,1.53s.38,1.53,1,1.53,1-.35,1-1.53S49.23,5.18,48.62,5.18Z"/><path class="cls-3" d="M51.63,8.55a.93.93,0,0,1-.51,0V4.89a.95.95,0,0,1,.51,0V6.45h1.82V4.89a.79.79,0,0,1,.26,0,.73.73,0,0,1,.25,0V8.55a.74.74,0,0,1-.26,0,.71.71,0,0,1-.25,0V6.87H51.63Z"/><path class="cls-3" d="M55.6,8.55a.93.93,0,0,1-.51,0V4.89a.95.95,0,0,1,.51,0V6.45h1.82V4.89a.79.79,0,0,1,.26,0,.74.74,0,0,1,.26,0V8.55a.75.75,0,0,1-.26,0,.71.71,0,0,1-.25,0V6.87H55.6Z"/><path class="cls-3" d="M60.43,4.78c1,0,1.52.53,1.52,1.94s-.57,1.94-1.52,1.94-1.52-.53-1.52-1.94S59.48,4.78,60.43,4.78Zm0,.4c-.61,0-1,.35-1,1.53s.38,1.53,1,1.53,1-.35,1-1.53S61,5.18,60.43,5.18Z"/><path class="cls-3" d="M63.28,6.88c0,1,.41,1.32,1.1,1.32A1.67,1.67,0,0,0,65.26,8a.52.52,0,0,1,.17.38,1.93,1.93,0,0,1-1.15.31c-1,0-1.53-.67-1.53-2s.62-1.92,1.53-1.92a1.25,1.25,0,0,1,1.35,1.38,3,3,0,0,1-.08.72Zm1-1.68c-.57,0-1,.38-1,1.3h1.79a2.47,2.47,0,0,0,0-.4A.78.78,0,0,0,64.28,5.2Z"/><path class="cls-3" d="M70.8,5.82a.87.87,0,0,1-.46.84.9.9,0,0,1,.6.9c0,.65-.41,1-1.13,1H68.24V4.85h1.53A.92.92,0,0,1,70.8,5.82Zm-1.15.68a.58.58,0,0,0,.65-.64.57.57,0,0,0-.65-.62h-.9V6.5Zm.06,1.69c.45,0,.7-.22.7-.64a.61.61,0,0,0-.7-.67h-1V8.19Z"/><path class="cls-3" d="M74.59,4.85a.82.82,0,0,1,.27,0V8.55a.77.77,0,0,1-.26,0,.9.9,0,0,1-.26,0v-2c0-.59,0-1,0-1h0a6.67,6.67,0,0,1-.48.84L72.44,8.55a.89.89,0,0,1-.28,0,.8.8,0,0,1-.26,0V4.89a.79.79,0,0,1,.26,0,.73.73,0,0,1,.25,0V6.94c0,.48,0,1,0,1h0a4.88,4.88,0,0,1,.32-.57l1.6-2.44A.82.82,0,0,1,74.59,4.85Z"/><path class="cls-3" d="M75.9,8.19c.2-.2.35-.6.43-1.65l.13-1.69h2.3V8.19h.45V9.46a.71.71,0,0,1-.22,0,1,1,0,0,1-.25,0V8.58H76.08v.87a.76.76,0,0,1-.23,0,.69.69,0,0,1-.23,0V8.19Zm.89-1.62a4.39,4.39,0,0,1-.33,1.62h1.79V5.26H76.9Z"/><path class="cls-3" d="M80.38,6.88c0,1,.41,1.32,1.1,1.32A1.67,1.67,0,0,0,82.36,8a.52.52,0,0,1,.17.38,1.93,1.93,0,0,1-1.15.31c-1,0-1.53-.67-1.53-2s.62-1.92,1.53-1.92a1.25,1.25,0,0,1,1.35,1.38,3,3,0,0,1-.08.72Zm1-1.68c-.57,0-1,.38-1,1.3h1.79a2.47,2.47,0,0,0,0-.4A.78.78,0,0,0,81.38,5.2Z"/><path class="cls-3" d="M85,4.78c1,0,1.52.53,1.52,1.94S86,8.65,85,8.65s-1.52-.53-1.52-1.94S84.06,4.78,85,4.78Zm0,.4c-.61,0-1,.35-1,1.53s.38,1.53,1,1.53,1-.35,1-1.53S85.62,5.18,85,5.18Z"/><path class="cls-3" d="M88,8.55a.93.93,0,0,1-.51,0V4.89a.95.95,0,0,1,.51,0V6.45h1.82V4.89a.79.79,0,0,1,.26,0,.73.73,0,0,1,.25,0V8.55a.74.74,0,0,1-.26,0,.71.71,0,0,1-.25,0V6.87H88Z"/><path class="cls-3" d="M92.74,4.78c1,0,1.28.49,1.28,1.43V8.55a.45.45,0,0,1-.21,0,.54.54,0,0,1-.21,0L93.54,8a1.23,1.23,0,0,1-1.19.64,1,1,0,0,1-1.1-1.14c0-.72.45-1.11,1.34-1.11a8,8,0,0,1,.93.06v-.4c0-.59-.25-.85-.84-.85a3.1,3.1,0,0,0-1,.18.34.34,0,0,1-.12-.16.54.54,0,0,1,0-.22A3.29,3.29,0,0,1,92.74,4.78Zm-.08,2c-.59,0-.88.23-.88.74a.65.65,0,0,0,.73.72,1,1,0,0,0,1-1.12V6.84C93.35,6.82,93,6.78,92.66,6.78Z"/><path class="cls-3" d="M97.28,3.46c.26,0,.33-.08.43-.25a.45.45,0,0,1,.35.18c-.09.32-.25.45-.66.52-1.34.26-1.85.38-1.94,1.75h0a1.24,1.24,0,0,1,1.24-.72c.9,0,1.48.54,1.48,1.86s-.58,1.86-1.54,1.86-1.6-.43-1.6-2.56S95.75,3.74,97.28,3.46ZM95.67,6.79c0,1.15.43,1.45,1,1.45s1-.31,1-1.45-.43-1.45-1-1.45S95.67,5.62,95.67,6.79Z"/><path class="cls-3" d="M99,8.63a.88.88,0,0,1-.26,0,.39.39,0,0,1,0-.18.55.55,0,0,1,0-.19.71.71,0,0,0,.21,0c.28,0,.49-.45.59-1.72l.13-1.65h2.24v3.7a.86.86,0,0,1-.25,0,.8.8,0,0,1-.26,0V5.26H100.1L100,6.53C99.84,8.37,99.47,8.63,99,8.63Z"/><path class="cls-3" d="M106.06,4.78c1,0,1.54.53,1.54,1.94s-.58,1.94-1.54,1.94-1.46-.47-1.53-1.69h-1V8.55a.89.89,0,0,1-.25,0,1,1,0,0,1-.26,0V4.89a1,1,0,0,1,.26,0,.9.9,0,0,1,.25,0V6.53h1C104.58,5.27,105.15,4.78,106.06,4.78Zm0,.4c-.61,0-1,.35-1,1.53s.4,1.53,1,1.53,1-.35,1-1.53S106.67,5.18,106.06,5.18Z"/><path class="cls-3" d="M108.42,8.19c.2-.2.35-.6.43-1.65L109,4.85h2.3V8.19h.45V9.46a.71.71,0,0,1-.22,0,1,1,0,0,1-.25,0V8.58h-2.65v.87a.76.76,0,0,1-.23,0,.69.69,0,0,1-.23,0V8.19Zm.89-1.62A4.39,4.39,0,0,1,109,8.19h1.79V5.26h-1.36Z"/><path class="cls-3" d="M112.9,6.88c0,1,.41,1.32,1.1,1.32a1.67,1.67,0,0,0,.88-.23.52.52,0,0,1,.17.38,1.93,1.93,0,0,1-1.15.31c-1,0-1.53-.67-1.53-2s.62-1.92,1.53-1.92a1.25,1.25,0,0,1,1.35,1.38,3,3,0,0,1-.08.72Zm1-1.68c-.57,0-1,.38-1,1.3h1.79a2.47,2.47,0,0,0,0-.4A.78.78,0,0,0,113.89,5.2Z"/><path class="cls-3" d="M116.68,8.55a.93.93,0,0,1-.51,0V4.89a.95.95,0,0,1,.51,0V6.45h1.82V4.89a.79.79,0,0,1,.26,0,.74.74,0,0,1,.26,0V8.55a.75.75,0,0,1-.26,0,.71.71,0,0,1-.25,0V6.87h-1.82Z"/><path class="cls-3" d="M122.84,4.85a.82.82,0,0,1,.27,0V8.55a.77.77,0,0,1-.26,0,.9.9,0,0,1-.26,0v-2c0-.59,0-1,0-1h0a6.67,6.67,0,0,1-.48.84l-1.43,2.16a.89.89,0,0,1-.28,0,.8.8,0,0,1-.26,0V4.89a.79.79,0,0,1,.26,0,.73.73,0,0,1,.25,0V6.94c0,.48,0,1,0,1h0a4.88,4.88,0,0,1,.32-.57l1.6-2.44A.82.82,0,0,1,122.84,4.85Z"/><path class="cls-3" d="M124.61,6.88c0,1,.41,1.32,1.1,1.32a1.67,1.67,0,0,0,.88-.23.52.52,0,0,1,.17.38,1.93,1.93,0,0,1-1.15.31c-1,0-1.53-.67-1.53-2s.62-1.92,1.53-1.92a1.25,1.25,0,0,1,1.35,1.38,3,3,0,0,1-.08.72Zm1-1.68c-.57,0-1,.38-1,1.3h1.79a2.47,2.47,0,0,0,0-.4A.78.78,0,0,0,125.6,5.2Z"/><circle class="cls-4" cx="7.2" cy="6.31" r="6.31"/><path class="cls-1" d="M3,12.58A8.13,8.13,0,0,1,2.84.1l.82,1A6.87,6.87,0,0,0,3.8,11.6Z"/><path class="cls-1" d="M11.39,12.58A8.13,8.13,0,0,0,11.55.1l-.82,1a6.87,6.87,0,0,1-.14,10.55Z"/><path class="cls-5" d="M3.37,4.07A3.61,3.61,0,0,1,4.7,3.81c.89,0,1.62.38,1.62,1.34S5.8,6.38,5,6.89c-.39.24-.91.47-.91.91a.57.57,0,0,0,0,.11H6.17a.81.81,0,0,1,.08.4,1,1,0,0,1-.08.4H3.23a2.9,2.9,0,0,1,0-.48,2.29,2.29,0,0,1,1.37-2c.62-.43.84-.62.84-1.07s-.33-.62-.84-.62a3.19,3.19,0,0,0-.93.16A.7.7,0,0,1,3.37,4.07Z"/><path class="cls-5" d="M8,8.65a1.43,1.43,0,0,1-.45.06,1.28,1.28,0,0,1-.45-.06V7.83a1.28,1.28,0,0,1,.45-.06A1.43,1.43,0,0,1,8,7.83Z"/><path class="cls-5" d="M9.59,3.95A1.12,1.12,0,0,1,10,3.88a1.23,1.23,0,0,1,.45.06v4.7a1.2,1.2,0,0,1-.45.06,1.49,1.49,0,0,1-.46-.06V5.93c0-.35,0-.65,0-.89a2.82,2.82,0,0,1-1.11.52.85.85,0,0,1-.21-.74A2.2,2.2,0,0,0,9.59,3.95Z"/></g></svg>