<svg xmlns="http://www.w3.org/2000/svg" viewBox="0 0 71.49 12.62"><defs><style>.cls-1{fill:#000d21;}.cls-2,.cls-4{fill:#fff;}.cls-3{fill:#00bfce;}.cls-4{opacity:0.9;}.cls-5{fill:#00809e;}</style></defs><title>DOMUS в сайт</title><g id="Layer_1" data-name="Layer 1"><polygon class="cls-1" points="68.48 12.61 11.37 12.61 13.79 6.37 11.53 0.13 68.64 0.13 70.92 6.59 68.48 12.61"/><path class="cls-2" d="M18.15,3.49a1.26,1.26,0,0,1,1.38,1.37A1.22,1.22,0,0,1,18.91,6a1.22,1.22,0,0,1,.77,1.21,1.33,1.33,0,0,1-1.51,1.4H16.35V3.49ZM18,5.81a.84.84,0,0,0,1-1,.84.84,0,0,0-1-.94H16.87V5.81Zm0,2.36c.77,0,1.06-.36,1.06-1s-.33-1-1.06-1H16.87v2Z"/><path class="cls-2" d="M23.35,4.87a.82.82,0,0,1,.27,0V8.56a.77.77,0,0,1-.26,0,.9.9,0,0,1-.26,0v-2c0-.59,0-1,0-1h0a6.67,6.67,0,0,1-.48.84L21.2,8.56a.89.89,0,0,1-.28,0,.8.8,0,0,1-.26,0V4.9a.79.79,0,0,1,.26,0,.73.73,0,0,1,.25,0V7c0,.48,0,1,0,1h0a4.88,4.88,0,0,1,.32-.57l1.6-2.44A.82.82,0,0,1,23.35,4.87Z"/><path class="cls-2" d="M24.66,8.2c.2-.2.35-.6.43-1.65l.13-1.69h2.3V8.2H28V9.47a.71.71,0,0,1-.22,0,1,1,0,0,1-.25,0V8.6H24.84v.87a.76.76,0,0,1-.23,0,.69.69,0,0,1-.23,0V8.2Zm.89-1.62a4.39,4.39,0,0,1-.33,1.62H27V5.28H25.66Z"/><path class="cls-2" d="M29.14,6.89c0,1,.41,1.32,1.1,1.32A1.67,1.67,0,0,0,31.12,8a.52.52,0,0,1,.17.38,1.93,1.93,0,0,1-1.15.31c-1,0-1.53-.67-1.53-2s.62-1.92,1.53-1.92a1.25,1.25,0,0,1,1.35,1.38,3,3,0,0,1-.08.72Zm1-1.68c-.57,0-1,.38-1,1.3h1.79a2.47,2.47,0,0,0,0-.4A.78.78,0,0,0,30.14,5.21Z"/><path class="cls-2" d="M33.77,4.79c1,0,1.52.53,1.52,1.94s-.57,1.94-1.52,1.94-1.52-.53-1.52-1.94S32.82,4.79,33.77,4.79Zm0,.4c-.61,0-1,.35-1,1.53s.38,1.53,1,1.53,1-.35,1-1.53S34.38,5.2,33.77,5.2Z"/><path class="cls-2" d="M36.11,8.2c.2-.2.35-.6.43-1.65l.13-1.69H39V8.2h.45V9.47a.71.71,0,0,1-.22,0,1,1,0,0,1-.25,0V8.6H36.29v.87a.76.76,0,0,1-.23,0,.69.69,0,0,1-.23,0V8.2ZM37,6.58a4.39,4.39,0,0,1-.33,1.62h1.79V5.28H37.1Z"/><path class="cls-2" d="M41.58,4.79c1,0,1.52.53,1.52,1.94s-.57,1.94-1.52,1.94-1.52-.53-1.52-1.94S40.63,4.79,41.58,4.79Zm0,.4c-.61,0-1,.35-1,1.53s.38,1.53,1,1.53,1-.35,1-1.53S42.2,5.2,41.58,5.2Z"/><path class="cls-2" d="M47.41,4.87a1.09,1.09,0,0,1,.28,0V8.56a.63.63,0,0,1-.24,0,.72.72,0,0,1-.25,0V6.4a7.58,7.58,0,0,1,0-.84h0a5.15,5.15,0,0,1-.27.55L46,7.74a.29.29,0,0,1-.13,0,.29.29,0,0,1-.13,0l-.91-1.6a4.79,4.79,0,0,1-.28-.59h0a5.47,5.47,0,0,1,0,.85V8.56a.73.73,0,0,1-.24,0,.71.71,0,0,1-.23,0V4.9a1.05,1.05,0,0,1,.28,0,.9.9,0,0,1,.28,0l1,1.77c.1.18.17.34.22.45h0a4.22,4.22,0,0,1,.22-.45l1-1.77A1.08,1.08,0,0,1,47.41,4.87Z"/><path class="cls-2" d="M50.18,4.79c1,0,1.52.53,1.52,1.94s-.57,1.94-1.52,1.94-1.52-.53-1.52-1.94S49.23,4.79,50.18,4.79Zm0,.4c-.61,0-1,.35-1,1.53s.38,1.53,1,1.53,1-.35,1-1.53S50.79,5.2,50.18,5.2Z"/><path class="cls-2" d="M54.87,3.28a.73.73,0,0,1,.26,0V4.94a1.87,1.87,0,0,1,.78-.15c1,0,1.31.67,1.31,1.94s-.35,1.94-1.31,1.94a1.69,1.69,0,0,1-.78-.17v1.84a.72.72,0,0,1-.26,0,.63.63,0,0,1-.25,0V8.5a1.75,1.75,0,0,1-.79.17c-.94,0-1.31-.67-1.31-1.94s.36-1.94,1.31-1.94a2.07,2.07,0,0,1,.79.15V3.31A.63.63,0,0,1,54.87,3.28Zm-1,1.93c-.63,0-.87.47-.87,1.53s.24,1.52.87,1.52a1.45,1.45,0,0,0,.72-.18V5.36A1.6,1.6,0,0,0,53.91,5.21Zm1.92,0a1.66,1.66,0,0,0-.72.16v2.7a1.49,1.49,0,0,0,.72.18c.63,0,.87-.46.87-1.52S56.46,5.21,55.83,5.21Z"/><path class="cls-2" d="M59.55,4.79c1,0,1.52.53,1.52,1.94s-.57,1.94-1.52,1.94S58,8.14,58,6.73,58.6,4.79,59.55,4.79Zm0,.4c-.61,0-1,.35-1,1.53s.38,1.53,1,1.53,1-.35,1-1.53S60.16,5.2,59.55,5.2Z"/><path class="cls-2" d="M62.56,8.56a.93.93,0,0,1-.51,0V4.9a.95.95,0,0,1,.51,0V6.46h1.82V4.9a.79.79,0,0,1,.26,0,.74.74,0,0,1,.26,0V8.56a.75.75,0,0,1-.26,0,.71.71,0,0,1-.25,0V6.89H62.56Z"/><path class="cls-3" d="M68.49,12.61A8.12,8.12,0,0,0,68.64.13L67.31,1.68A6.08,6.08,0,0,1,67.19,11Z"/><circle class="cls-4" cx="7.2" cy="6.31" r="6.31"/><path class="cls-1" d="M3,12.58A8.13,8.13,0,0,1,2.84.1l.82,1A6.87,6.87,0,0,0,3.8,11.6Z"/><path class="cls-1" d="M11.39,12.58A8.13,8.13,0,0,0,11.55.1l-.82,1a6.87,6.87,0,0,1-.14,10.55Z"/><path class="cls-5" d="M3,4.07a3.61,3.61,0,0,1,1.33-.25c.89,0,1.62.38,1.62,1.34S5.4,6.38,4.55,6.89c-.39.24-.91.47-.91.91a.57.57,0,0,0,0,.11H5.77a.81.81,0,0,1,.08.4,1,1,0,0,1-.08.4H2.82a2.9,2.9,0,0,1,0-.48,2.29,2.29,0,0,1,1.37-2c.62-.43.84-.62.84-1.07s-.33-.62-.84-.62a3.19,3.19,0,0,0-.93.16A.7.7,0,0,1,3,4.07Z"/><path class="cls-5" d="M7.59,8.65a1.43,1.43,0,0,1-.45.06,1.28,1.28,0,0,1-.45-.06V7.83a1.28,1.28,0,0,1,.45-.06,1.43,1.43,0,0,1,.45.06Z"/><path class="cls-5" d="M8.51,4.07a3.61,3.61,0,0,1,1.33-.25c.89,0,1.62.38,1.62,1.34s-.51,1.23-1.36,1.74c-.39.24-.91.47-.91.91a.57.57,0,0,0,0,.11h2.11a.81.81,0,0,1,.08.4,1,1,0,0,1-.08.4H8.37a2.9,2.9,0,0,1,0-.48,2.29,2.29,0,0,1,1.37-2c.62-.43.84-.62.84-1.07s-.33-.62-.84-.62a3.19,3.19,0,0,0-.93.16A.7.7,0,0,1,8.51,4.07Z"/></g></svg>