<svg xmlns="http://www.w3.org/2000/svg" viewBox="0 0 95.12 12.62"><defs><style>.cls-1{fill:#000d21;}.cls-2,.cls-4{fill:#fff;}.cls-3{fill:#00bfce;}.cls-4{opacity:0.9;}.cls-5{fill:#00809e;}</style></defs><title>DOMUS в сайт</title><g id="Layer_1" data-name="Layer 1"><polygon class="cls-1" points="92.12 12.55 11.38 12.55 13.8 6.31 11.54 0.07 92.28 0.07 94.55 6.53 92.12 12.55"/><path class="cls-2" d="M19.57,3.43a.8.8,0,0,1,.3,0v5a.64.64,0,0,1-.26,0,.56.56,0,0,1-.26,0V5.55c0-1,0-1.4,0-1.4h0a8.87,8.87,0,0,1-.52,1.09L17,8.5a1,1,0,0,1-.32,0,.76.76,0,0,1-.3,0v-5a.83.83,0,0,1,.52,0v3c0,.84,0,1.41,0,1.41h0a8.28,8.28,0,0,1,.55-1.16l1.85-3.22A.81.81,0,0,1,19.57,3.43Z"/><path class="cls-2" d="M24.42,4.81a1.09,1.09,0,0,1,.28,0V8.5a.63.63,0,0,1-.24,0,.72.72,0,0,1-.25,0V6.34a7.58,7.58,0,0,1,0-.84h0a5.15,5.15,0,0,1-.27.55L23,7.68a.29.29,0,0,1-.13,0,.29.29,0,0,1-.13,0l-.91-1.6a4.79,4.79,0,0,1-.28-.59h0a5.47,5.47,0,0,1,0,.85V8.5a.73.73,0,0,1-.24,0,.71.71,0,0,1-.23,0V4.84a1.06,1.06,0,0,1,.28,0,.9.9,0,0,1,.28,0l1,1.77c.1.18.17.34.22.45h0a4.22,4.22,0,0,1,.22-.45l1-1.77A1.08,1.08,0,0,1,24.42,4.81Z"/><path class="cls-2" d="M28.52,4.81a.82.82,0,0,1,.27,0V8.5a.77.77,0,0,1-.26,0,.9.9,0,0,1-.26,0v-2c0-.59,0-1,0-1h0a6.67,6.67,0,0,1-.48.84L26.37,8.5a.89.89,0,0,1-.28,0,.8.8,0,0,1-.26,0V4.84a.79.79,0,0,1,.26,0,.73.73,0,0,1,.25,0V6.89c0,.48,0,1,0,1h0a4.88,4.88,0,0,1,.32-.57l1.6-2.44A.82.82,0,0,1,28.52,4.81Z"/><path class="cls-2" d="M32.31,4.81a.58.58,0,0,1,0,.44H31.2V8.5a.72.72,0,0,1-.26,0,.63.63,0,0,1-.25,0V5.25H29.58a.51.51,0,0,1,0-.44Z"/><path class="cls-2" d="M34.3,4.74c1,0,1.28.49,1.28,1.43V8.5a.45.45,0,0,1-.21,0,.54.54,0,0,1-.21,0L35.1,8a1.23,1.23,0,0,1-1.19.64,1,1,0,0,1-1.1-1.14c0-.72.45-1.11,1.34-1.11a8,8,0,0,1,.93.06V6c0-.59-.25-.85-.84-.85a3.1,3.1,0,0,0-1,.18.34.34,0,0,1-.12-.16.54.54,0,0,1,0-.22A3.29,3.29,0,0,1,34.3,4.74Zm-.08,2c-.59,0-.88.23-.88.74a.65.65,0,0,0,.73.72,1,1,0,0,0,1-1.12V6.79C34.91,6.78,34.56,6.74,34.22,6.74Z"/><path class="cls-2" d="M39.22,4.81a.79.79,0,0,1,.26,0V8.11h.45V9.41a.72.72,0,0,1-.23,0,.79.79,0,0,1-.24,0V8.54H36.7V4.84a.94.94,0,0,1,.51,0V8.11H39V4.84A.78.78,0,0,1,39.22,4.81Z"/><path class="cls-2" d="M43.47,4.81a.82.82,0,0,1,.27,0V8.5a.77.77,0,0,1-.26,0,.9.9,0,0,1-.26,0v-2c0-.59,0-1,0-1h0a6.67,6.67,0,0,1-.48.84L41.32,8.5a.89.89,0,0,1-.28,0,.8.8,0,0,1-.26,0V4.84a.79.79,0,0,1,.26,0,.73.73,0,0,1,.25,0V6.89c0,.48,0,1,0,1h0a4.88,4.88,0,0,1,.32-.57l1.6-2.44A.82.82,0,0,1,43.47,4.81Z"/><path class="cls-2" d="M45.18,8.5a1.22,1.22,0,0,1-.31,0,1,1,0,0,1-.28,0L45.47,7a1,1,0,0,1-.7-1,1.07,1.07,0,0,1,1.18-1.12h1.5V8.5a1,1,0,0,1-.25,0,.9.9,0,0,1-.26,0V7H46Zm.11-2.58a.67.67,0,0,0,.75.72h.89V5.2H46A.66.66,0,0,0,45.29,5.93Z"/><path class="cls-2" d="M50.77,8.5a.77.77,0,0,1-.25,0,.78.78,0,0,1-.26,0V4.81H53V8.5a.73.73,0,0,1-.26,0,.83.83,0,0,1-.26,0V5.24H50.77Z"/><path class="cls-2" d="M55.76,4.74c.83,0,1.36.49,1.36,1.94s-.53,1.94-1.36,1.94a1.16,1.16,0,0,1-1.09-.55V10.2a.93.93,0,0,1-.51,0V4.84a.95.95,0,0,1,.51,0v.45A1.16,1.16,0,0,1,55.76,4.74Zm-.17.43a1,1,0,0,0-.92,1v.92a1,1,0,0,0,.92,1.06c.7,0,1-.38,1-1.5S56.29,5.17,55.59,5.17Z"/><path class="cls-2" d="M60.79,4.81a.82.82,0,0,1,.27,0V8.5a.77.77,0,0,1-.26,0,.9.9,0,0,1-.26,0v-2c0-.59,0-1,0-1h0a6.67,6.67,0,0,1-.48.84L58.64,8.5a.89.89,0,0,1-.28,0,.8.8,0,0,1-.26,0V4.84a.79.79,0,0,1,.26,0,.73.73,0,0,1,.25,0V6.89c0,.48,0,1,0,1h0a4.88,4.88,0,0,1,.32-.57l1.6-2.44A.82.82,0,0,1,60.79,4.81Z"/><path class="cls-2" d="M62.56,6.67c0,1,.35,1.48,1.11,1.48A1.7,1.7,0,0,0,64.37,8a.51.51,0,0,1,.16.38,1.89,1.89,0,0,1-1,.21c-1,0-1.53-.67-1.53-1.94s.53-1.94,1.53-1.94a1.83,1.83,0,0,1,.89.17.5.5,0,0,1-.16.38,1.61,1.61,0,0,0-.65-.12C62.89,5.17,62.56,5.67,62.56,6.67Z"/><path class="cls-2" d="M66.82,9.23c-.23.68-.46,1.09-1.1,1.09a1.12,1.12,0,0,1-.36-.06.51.51,0,0,1,0-.2.43.43,0,0,1,0-.21,1.34,1.34,0,0,0,.31,0c.3,0,.47-.13.68-.75l.21-.6a.49.49,0,0,1-.17,0L65,4.84a1.05,1.05,0,0,1,.54,0l1,2.43c.17.44.25.76.25.76h0s.08-.31.23-.76l.84-2.43a.68.68,0,0,1,.25,0,.78.78,0,0,1,.26,0Z"/><path class="cls-2" d="M71.46,4.81a.58.58,0,0,1,0,.44H70.35V8.5a.72.72,0,0,1-.26,0,.63.63,0,0,1-.25,0V5.25H68.74a.51.51,0,0,1,0-.44Z"/><path class="cls-2" d="M72.5,6.67c0,1,.35,1.48,1.11,1.48A1.7,1.7,0,0,0,74.3,8a.51.51,0,0,1,.16.38,1.89,1.89,0,0,1-1,.21c-1,0-1.53-.67-1.53-1.94s.53-1.94,1.53-1.94a1.83,1.83,0,0,1,.89.17.5.5,0,0,1-.16.38,1.61,1.61,0,0,0-.65-.12C72.83,5.17,72.5,5.67,72.5,6.67Z"/><path class="cls-2" d="M77.68,4.81a.58.58,0,0,1,0,.44H76.57V8.5a.72.72,0,0,1-.26,0,.63.63,0,0,1-.25,0V5.25H75a.51.51,0,0,1,0-.44Z"/><path class="cls-2" d="M81,5.78a.87.87,0,0,1-.46.84.9.9,0,0,1,.6.9c0,.65-.41,1-1.13,1H78.46V4.81H80A.92.92,0,0,1,81,5.78Zm-1.15.68a.58.58,0,0,0,.65-.64.57.57,0,0,0-.65-.62H79V6.46Zm.06,1.69c.46,0,.7-.22.7-.64a.61.61,0,0,0-.7-.67H79V8.15Z"/><path class="cls-2" d="M84.81,4.81a.82.82,0,0,1,.27,0V8.5a.77.77,0,0,1-.26,0,.9.9,0,0,1-.26,0v-2c0-.59,0-1,0-1h0a6.67,6.67,0,0,1-.48.84L82.66,8.5a.89.89,0,0,1-.28,0,.8.8,0,0,1-.26,0V4.84a.79.79,0,0,1,.26,0,.73.73,0,0,1,.25,0V6.89c0,.48,0,1,0,1h0a4.88,4.88,0,0,1,.32-.57l1.6-2.44A.82.82,0,0,1,84.81,4.81Z"/><path class="cls-2" d="M86.53,8.5a1.22,1.22,0,0,1-.31,0,1,1,0,0,1-.28,0L86.81,7a1,1,0,0,1-.7-1,1.07,1.07,0,0,1,1.18-1.12h1.5V8.5a1,1,0,0,1-.25,0,.9.9,0,0,1-.26,0V7h-.94Zm.11-2.58a.67.67,0,0,0,.75.72h.89V5.2h-.89A.66.66,0,0,0,86.63,5.93Z"/><path class="cls-3" d="M92.12,12.55A8.12,8.12,0,0,0,92.28.07L90.94,1.62A6.08,6.08,0,0,1,90.82,11Z"/><circle class="cls-4" cx="7.2" cy="6.31" r="6.31"/><path class="cls-1" d="M3,12.58A8.13,8.13,0,0,1,2.84.1l.82,1A6.87,6.87,0,0,0,3.8,11.6Z"/><path class="cls-1" d="M11.39,12.58A8.13,8.13,0,0,0,11.55.1l-.82,1a6.87,6.87,0,0,1-.14,10.55Z"/><path class="cls-5" d="M4.27,3.95a1.12,1.12,0,0,1,.44-.06,1.23,1.23,0,0,1,.45.06v4.7a1.2,1.2,0,0,1-.45.06,1.49,1.49,0,0,1-.46-.06V5.93c0-.35,0-.65,0-.89a2.82,2.82,0,0,1-1.11.52A.85.85,0,0,1,3,4.83,2.2,2.2,0,0,0,4.27,3.95Z"/><path class="cls-5" d="M7.1,8.65a1.43,1.43,0,0,1-.45.06,1.28,1.28,0,0,1-.45-.06V7.83a1.28,1.28,0,0,1,.45-.06,1.43,1.43,0,0,1,.45.06Z"/><path class="cls-5" d="M9.1,8.78a2.78,2.78,0,0,1-1.27-.26A.91.91,0,0,1,8,7.86,3.53,3.53,0,0,0,9,8c.62,0,1-.16,1-.74s-.26-.72-.85-.72h-.6a1,1,0,0,1,0-.71h.6c.52,0,.7-.26.7-.62S9.55,4.56,9,4.56a2.45,2.45,0,0,0-.87.15.67.67,0,0,1-.28-.64,2.69,2.69,0,0,1,1.23-.25c1,0,1.64.43,1.64,1.3a1.05,1.05,0,0,1-.57,1.06,1.17,1.17,0,0,1,.74,1.21C10.92,8.27,10.41,8.78,9.1,8.78Z"/></g></svg>