<svg xmlns="http://www.w3.org/2000/svg" viewBox="0 0 101.59 12.62"><defs><style>.cls-1{fill:#000d21;}.cls-2{fill:#00bfce;}.cls-3,.cls-5{fill:#fff;}.cls-3{opacity:0.9;}.cls-4{fill:#00809e;}</style></defs><title>DOMUS в сайт</title><g id="Layer_1" data-name="Layer 1"><polygon class="cls-1" points="98.59 12.55 11.38 12.55 13.81 6.31 11.54 0.07 98.75 0.07 101.02 6.53 98.59 12.55"/><path class="cls-2" d="M98.59,12.55A8.12,8.12,0,0,0,98.75.07L97.42,1.62A6.08,6.08,0,0,1,97.3,11Z"/><circle class="cls-3" cx="7.2" cy="6.31" r="6.31"/><path class="cls-1" d="M3,12.58A8.13,8.13,0,0,1,2.84.1l.82,1A6.87,6.87,0,0,0,3.8,11.6Z"/><path class="cls-1" d="M11.39,12.58A8.13,8.13,0,0,0,11.55.1l-.82,1a6.87,6.87,0,0,1-.14,10.55Z"/><path class="cls-4" d="M4.67,5.76h.26c1.06,0,1.65.44,1.65,1.48S6,8.74,4.73,8.74A2.23,2.23,0,0,1,3.5,8.48a.91.91,0,0,1,.22-.66A2.68,2.68,0,0,0,4.65,8c.64,0,1-.2,1-.74s-.33-.75-1.07-.75c-.27,0-.53,0-.8,0V3.84H6.38a1.14,1.14,0,0,1,0,.78H4.67Z"/><path class="cls-4" d="M8.26,8.61a1.43,1.43,0,0,1-.45.06,1.28,1.28,0,0,1-.45-.06V7.79a1.28,1.28,0,0,1,.45-.06,1.43,1.43,0,0,1,.45.06Z"/><path class="cls-4" d="M9.85,3.91a1.12,1.12,0,0,1,.44-.06,1.23,1.23,0,0,1,.45.06V8.6a1.2,1.2,0,0,1-.45.06,1.49,1.49,0,0,1-.46-.06V5.89c0-.35,0-.65,0-.89a2.82,2.82,0,0,1-1.11.52.85.85,0,0,1-.21-.74A2.2,2.2,0,0,0,9.85,3.91Z"/><path class="cls-5" d="M19.14,3.47a.78.78,0,0,1,.27,0,.88.88,0,0,1,.28,0L18,5.83,19.9,8.5a.85.85,0,0,1-.3,0,1,1,0,0,1-.31,0L17.62,6.1h-.73V8.5a.6.6,0,0,1-.26,0,.68.68,0,0,1-.26,0v-5a.7.7,0,0,1,.27,0,.62.62,0,0,1,.25,0V5.66h.72Z"/><path class="cls-5" d="M21.79,4.74c1,0,1.52.53,1.52,1.94s-.57,1.94-1.52,1.94-1.52-.53-1.52-1.94S20.83,4.74,21.79,4.74Zm0,.4c-.61,0-1,.35-1,1.53s.38,1.53,1,1.53,1-.35,1-1.53S22.4,5.14,21.79,5.14Z"/><path class="cls-5" d="M24.79,8.5a.93.93,0,0,1-.51,0V4.84a.95.95,0,0,1,.51,0V6.4h1.82V4.84a.79.79,0,0,1,.26,0,.73.73,0,0,1,.25,0V8.5a.74.74,0,0,1-.26,0,.71.71,0,0,1-.25,0V6.83H24.79Z"/><path class="cls-5" d="M30.63,4.81a.58.58,0,0,1,0,.44H29.53V8.5a.72.72,0,0,1-.26,0,.63.63,0,0,1-.25,0V5.25H27.91a.51.51,0,0,1,0-.44Z"/><path class="cls-5" d="M33,4.74c.83,0,1.36.49,1.36,1.94S33.85,8.61,33,8.61a1.16,1.16,0,0,1-1.09-.55V10.2a.93.93,0,0,1-.51,0V4.84a.95.95,0,0,1,.51,0v.45A1.16,1.16,0,0,1,33,4.74Zm-.17.43a1,1,0,0,0-.92,1v.92a1,1,0,0,0,.92,1.06c.7,0,1-.38,1-1.5S33.54,5.17,32.85,5.17Z"/><path class="cls-5" d="M36.71,4.74c1,0,1.52.53,1.52,1.94s-.57,1.94-1.52,1.94-1.52-.53-1.52-1.94S35.76,4.74,36.71,4.74Zm0,.4c-.61,0-1,.35-1,1.53s.38,1.53,1,1.53,1-.35,1-1.53S37.32,5.14,36.71,5.14Z"/><path class="cls-5" d="M39,8.58a.88.88,0,0,1-.26,0,.39.39,0,0,1,0-.18.55.55,0,0,1,0-.19.71.71,0,0,0,.21,0c.28,0,.49-.45.59-1.72l.13-1.65h2.24V8.5a.86.86,0,0,1-.25,0,.8.8,0,0,1-.26,0V5.22H40.12L40,6.48C39.85,8.33,39.48,8.58,39,8.58Z"/><path class="cls-5" d="M44.65,6.36a1,1,0,0,1,1.11,1.09,1,1,0,0,1-1.11,1.09h-1.6V4.84a1.05,1.05,0,0,1,.26,0,.94.94,0,0,1,.25,0V6.36Zm-.09,1.79a.62.62,0,0,0,.67-.7.62.62,0,0,0-.67-.7h-1v1.4Z"/><path class="cls-5" d="M48.83,8.5a.77.77,0,0,1-.25,0,.78.78,0,0,1-.26,0V4.81h2.76V8.5a.73.73,0,0,1-.26,0,.83.83,0,0,1-.26,0V5.24H48.83Z"/><path class="cls-5" d="M53.82,4.74c.83,0,1.36.49,1.36,1.94s-.53,1.94-1.36,1.94a1.16,1.16,0,0,1-1.09-.55V10.2a.93.93,0,0,1-.51,0V4.84a.95.95,0,0,1,.51,0v.45A1.16,1.16,0,0,1,53.82,4.74Zm-.17.43a1,1,0,0,0-.92,1v.92a1,1,0,0,0,.92,1.06c.7,0,1-.38,1-1.5S54.35,5.17,53.65,5.17Z"/><path class="cls-5" d="M57.51,4.74c1,0,1.52.53,1.52,1.94s-.57,1.94-1.52,1.94S56,8.08,56,6.67,56.56,4.74,57.51,4.74Zm0,.4c-.61,0-1,.35-1,1.53s.38,1.53,1,1.53,1-.35,1-1.53S58.12,5.14,57.51,5.14Z"/><path class="cls-5" d="M62.28,4.81a.58.58,0,0,1,0,.44H61.17V8.5a.72.72,0,0,1-.26,0,.63.63,0,0,1-.25,0V5.25H59.55a.51.51,0,0,1,0-.44Z"/><path class="cls-5" d="M63.32,6.84c0,1,.41,1.32,1.1,1.32a1.67,1.67,0,0,0,.88-.23.52.52,0,0,1,.17.38,1.93,1.93,0,0,1-1.15.31c-1,0-1.53-.67-1.53-2s.62-1.92,1.53-1.92a1.25,1.25,0,0,1,1.35,1.38,3,3,0,0,1-.08.72Zm1-1.68c-.57,0-1,.38-1,1.3h1.79a2.47,2.47,0,0,0,0-.4A.78.78,0,0,0,64.31,5.15Z"/><path class="cls-5" d="M69.16,8.5a.74.74,0,0,1-.26,0,.66.66,0,0,1-.25,0V6.94a2,2,0,0,1-1,.2c-.89,0-1.31-.39-1.31-1.16V4.84a.73.73,0,0,1,.25,0,.79.79,0,0,1,.26,0V6c0,.5.25.74.85.74a1.8,1.8,0,0,0,.89-.22V4.84a.67.67,0,0,1,.25,0,.75.75,0,0,1,.26,0Z"/><path class="cls-5" d="M72.45,4.84a1,1,0,0,1,.28,0,.84.84,0,0,1,.26,0L71.83,6.55,73.14,8.5a.83.83,0,0,1-.3,0,.79.79,0,0,1-.28,0L71.4,6.79h-.59V8.5a.75.75,0,0,1-.25,0,.8.8,0,0,1-.26,0V4.84a.81.81,0,0,1,.26,0,.76.76,0,0,1,.25,0V6.39h.6Z"/><path class="cls-5" d="M76.53,4.81a.82.82,0,0,1,.27,0V8.5a.77.77,0,0,1-.26,0,.9.9,0,0,1-.26,0v-2c0-.59,0-1,0-1h0a6.67,6.67,0,0,1-.48.84L74.38,8.5a.89.89,0,0,1-.28,0,.8.8,0,0,1-.26,0V4.84a.79.79,0,0,1,.26,0,.73.73,0,0,1,.25,0V6.89c0,.48,0,1,0,1h0a4.88,4.88,0,0,1,.32-.57l1.6-2.44A.82.82,0,0,1,76.53,4.81Z"/><path class="cls-5" d="M82.18,5.78a.87.87,0,0,1-.46.84.9.9,0,0,1,.6.9c0,.65-.41,1-1.13,1H79.62V4.81h1.53A.92.92,0,0,1,82.18,5.78ZM81,6.46a.58.58,0,0,0,.65-.64A.57.57,0,0,0,81,5.2h-.9V6.46Zm.06,1.69c.46,0,.7-.22.7-.64a.61.61,0,0,0-.7-.67h-1V8.15Z"/><path class="cls-5" d="M84.64,4.74c1,0,1.52.53,1.52,1.94s-.57,1.94-1.52,1.94-1.52-.53-1.52-1.94S83.69,4.74,84.64,4.74Zm0,.4c-.61,0-1,.35-1,1.53s.38,1.53,1,1.53,1-.35,1-1.53S85.25,5.14,84.64,5.14Z"/><path class="cls-5" d="M87,8.14c.2-.2.35-.6.43-1.65l.13-1.69h2.3V8.14h.45V9.41a.71.71,0,0,1-.22,0,1,1,0,0,1-.25,0V8.54H87.15v.87a.76.76,0,0,1-.23,0,.69.69,0,0,1-.23,0V8.14Zm.89-1.62a4.39,4.39,0,0,1-.33,1.62h1.79V5.22H88Z"/><path class="cls-5" d="M91.4,4.81a.94.94,0,0,1,.25,0V6.36h1.09a1,1,0,0,1,1.11,1.09,1,1,0,0,1-1.11,1.09h-1.6V4.84A1.05,1.05,0,0,1,91.4,4.81Zm.25,3.34h1a.62.62,0,0,0,.67-.7.62.62,0,0,0-.67-.7h-1Zm3.19-3.34a.9.9,0,0,1,.25,0V8.5a.9.9,0,0,1-.25,0,1,1,0,0,1-.26,0V4.84A1,1,0,0,1,94.84,4.81Z"/></g></svg>