<svg xmlns="http://www.w3.org/2000/svg" viewBox="0 0 64.95 12.62"><defs><style>.cls-1{fill:#000d21;}.cls-2{fill:#00bfce;}.cls-3,.cls-4{fill:#fff;}.cls-4{opacity:0.9;}.cls-5{fill:#00809e;}</style></defs><title>DOMUS в сайт</title><g id="Layer_1" data-name="Layer 1"><polygon class="cls-1" points="61.94 12.55 11.38 12.55 13.8 6.31 11.54 0.07 62.1 0.07 64.38 6.53 61.94 12.55"/><path class="cls-2" d="M61.94,12.55A8.12,8.12,0,0,0,62.1.07L60.77,1.62A6.08,6.08,0,0,1,60.65,11Z"/><path class="cls-3" d="M17.35,3.36c1.08,0,1.63.51,1.63,1.34a1.21,1.21,0,0,1-.73,1.21h0a1.27,1.27,0,0,1,.88,1.29c0,.79-.5,1.4-1.85,1.4A3.25,3.25,0,0,1,16,8.38a.52.52,0,0,1,.15-.4,3.75,3.75,0,0,0,1.09.16c1,0,1.38-.38,1.38-1,0-.84-.64-1-1.32-1h-.43a.6.6,0,0,1,0-.45h.43c.6,0,1.18-.17,1.18-1,0-.6-.43-.93-1.16-.93A3.33,3.33,0,0,0,16.21,4,.42.42,0,0,1,16,3.6,3.42,3.42,0,0,1,17.35,3.36Z"/><path class="cls-3" d="M21.4,4.73c1,0,1.28.49,1.28,1.43V8.5a.45.45,0,0,1-.21,0,.54.54,0,0,1-.21,0L22.19,8A1.23,1.23,0,0,1,21,8.61a1,1,0,0,1-1.1-1.14c0-.72.45-1.11,1.34-1.11a8,8,0,0,1,.93.06V6c0-.59-.25-.85-.84-.85a3.1,3.1,0,0,0-1,.18.34.34,0,0,1-.12-.16.54.54,0,0,1,0-.22A3.29,3.29,0,0,1,21.4,4.73Zm-.08,2c-.59,0-.88.23-.88.74a.65.65,0,0,0,.73.72,1,1,0,0,0,1-1.12V6.79C22,6.78,21.65,6.74,21.31,6.74Z"/><path class="cls-3" d="M24.31,8.5a.77.77,0,0,1-.25,0,.78.78,0,0,1-.26,0V4.81h2.76V8.5a.73.73,0,0,1-.26,0,.83.83,0,0,1-.26,0V5.24H24.31Z"/><path class="cls-3" d="M29.15,9.23c-.23.68-.46,1.09-1.1,1.09a1.12,1.12,0,0,1-.36-.06.51.51,0,0,1,0-.2.43.43,0,0,1,0-.21,1.34,1.34,0,0,0,.31,0c.3,0,.47-.13.68-.75l.21-.6a.49.49,0,0,1-.17,0L27.31,4.84a1.05,1.05,0,0,1,.54,0l1,2.43c.17.44.25.76.25.76h0s.08-.31.23-.76l.84-2.43a.68.68,0,0,1,.25,0,.78.78,0,0,1,.26,0Z"/><path class="cls-3" d="M31.71,6.67c0,1,.35,1.48,1.11,1.48A1.71,1.71,0,0,0,33.51,8a.51.51,0,0,1,.16.38,1.89,1.89,0,0,1-1,.21c-1,0-1.53-.67-1.53-1.94s.53-1.94,1.53-1.94a1.83,1.83,0,0,1,.89.17.5.5,0,0,1-.16.38,1.61,1.61,0,0,0-.65-.12C32,5.17,31.71,5.66,31.71,6.67Z"/><path class="cls-3" d="M36.67,4.84a1,1,0,0,1,.28,0,.84.84,0,0,1,.26,0L36,6.55,37.36,8.5a.83.83,0,0,1-.3,0,.79.79,0,0,1-.28,0l-1.16-1.7H35V8.5a.75.75,0,0,1-.25,0,.8.8,0,0,1-.26,0V4.84a.81.81,0,0,1,.26,0,.76.76,0,0,1,.25,0V6.39h.6Z"/><path class="cls-3" d="M40.11,6.67c0,1,.35,1.48,1.11,1.48A1.71,1.71,0,0,0,41.91,8a.51.51,0,0,1,.16.38,1.89,1.89,0,0,1-1,.21c-1,0-1.53-.67-1.53-1.94s.53-1.94,1.53-1.94A1.83,1.83,0,0,1,42,4.9a.5.5,0,0,1-.16.38,1.61,1.61,0,0,0-.65-.12C40.43,5.17,40.11,5.66,40.11,6.67Z"/><path class="cls-3" d="M44.17,4.73c1,0,1.28.49,1.28,1.43V8.5a.45.45,0,0,1-.21,0,.54.54,0,0,1-.21,0L45,8a1.23,1.23,0,0,1-1.19.64,1,1,0,0,1-1.1-1.14c0-.72.45-1.11,1.34-1.11a8,8,0,0,1,.93.06V6c0-.59-.25-.85-.84-.85a3.1,3.1,0,0,0-1,.18A.34.34,0,0,1,43,5.2.54.54,0,0,1,43,5,3.29,3.29,0,0,1,44.17,4.73Zm-.08,2c-.59,0-.88.23-.88.74a.65.65,0,0,0,.73.72,1,1,0,0,0,1-1.12V6.79C44.78,6.78,44.42,6.74,44.08,6.74Z"/><path class="cls-3" d="M48,9.23c-.23.68-.46,1.09-1.1,1.09a1.12,1.12,0,0,1-.36-.06.51.51,0,0,1,0-.2.43.43,0,0,1,0-.21,1.34,1.34,0,0,0,.31,0c.3,0,.47-.13.68-.75l.21-.6a.49.49,0,0,1-.17,0L46.12,4.84a1.05,1.05,0,0,1,.54,0l1,2.43c.17.44.25.76.25.76h0s.08-.31.23-.76L49,4.84a.68.68,0,0,1,.25,0,.78.78,0,0,1,.26,0Z"/><path class="cls-3" d="M50.73,8.5a.93.93,0,0,1-.51,0V4.84a.95.95,0,0,1,.51,0V6.4h1.82V4.84a.79.79,0,0,1,.26,0,.73.73,0,0,1,.25,0V8.5a.74.74,0,0,1-.26,0,.71.71,0,0,1-.25,0V6.83H50.73Z"/><path class="cls-3" d="M54.45,4.81a.94.94,0,0,1,.25,0V6.36h1.09A1,1,0,0,1,56.9,7.45a1,1,0,0,1-1.11,1.09H54.2V4.84A1.05,1.05,0,0,1,54.45,4.81Zm.25,3.34h1a.62.62,0,0,0,.67-.7.62.62,0,0,0-.67-.7h-1Zm3.19-3.34a.9.9,0,0,1,.25,0V8.5a.9.9,0,0,1-.25,0,1,1,0,0,1-.26,0V4.84A1,1,0,0,1,57.89,4.81Z"/><circle class="cls-4" cx="7.2" cy="6.31" r="6.31"/><path class="cls-1" d="M3,12.58A8.13,8.13,0,0,1,2.84.1l.82,1A6.87,6.87,0,0,0,3.8,11.6Z"/><path class="cls-1" d="M11.39,12.58A8.13,8.13,0,0,0,11.55.1l-.82,1a6.87,6.87,0,0,1-.14,10.55Z"/><path class="cls-5" d="M5.46,4.56C4.5,4.67,4,5,3.73,5.81a3.05,3.05,0,0,1,.74-.09A1.36,1.36,0,0,1,6,7.23c0,1-.62,1.51-1.63,1.51S2.7,8.17,2.7,6.84a2.64,2.64,0,0,1,2.76-3A1,1,0,0,1,5.46,4.56ZM4.31,6.41a2.34,2.34,0,0,0-.7.11c0,.11,0,.23,0,.35,0,.87.28,1.18.72,1.18S5,7.81,5,7.23,4.73,6.41,4.31,6.41Z"/><path class="cls-5" d="M7.57,8.61a1.43,1.43,0,0,1-.45.06,1.28,1.28,0,0,1-.45-.06V7.79a1.28,1.28,0,0,1,.45-.06,1.43,1.43,0,0,1,.45.06Z"/><path class="cls-5" d="M9.58,8.74a2.78,2.78,0,0,1-1.27-.26.91.91,0,0,1,.22-.66,3.53,3.53,0,0,0,1,.15c.62,0,1-.16,1-.74s-.26-.72-.85-.72H9A1,1,0,0,1,9,5.8h.6c.52,0,.7-.26.7-.62s-.29-.66-.82-.66a2.45,2.45,0,0,0-.87.15A.67.67,0,0,1,8.36,4a2.69,2.69,0,0,1,1.23-.25c1,0,1.64.43,1.64,1.3a1.05,1.05,0,0,1-.57,1.06,1.17,1.17,0,0,1,.74,1.21C11.4,8.23,10.89,8.74,9.58,8.74Z"/></g></svg>