<svg xmlns="http://www.w3.org/2000/svg" viewBox="0 0 82.3 12.62"><defs><style>.cls-1{fill:#000d21;}.cls-2,.cls-4{fill:#fff;}.cls-3{fill:#00bfce;}.cls-4{opacity:0.9;}.cls-5{fill:#00809e;}</style></defs><title>DOMUS в сайт</title><g id="Layer_1" data-name="Layer 1"><polygon class="cls-1" points="79.3 12.52 11.36 12.52 13.79 6.28 11.52 0.04 79.45 0.04 81.73 6.5 79.3 12.52"/><path class="cls-2" d="M18.19,3.33a3.24,3.24,0,0,1,1.31.23.57.57,0,0,1-.16.39,3.67,3.67,0,0,0-1.09-.17c-.91,0-1.59.48-1.59,2.18s.68,2.16,1.59,2.16A3.77,3.77,0,0,0,19.08,8V6.19H17.91a.54.54,0,0,1,0-.22.47.47,0,0,1,0-.22h1.67v2.6a3.71,3.71,0,0,1-1.39.23c-1.33,0-2.08-.87-2.08-2.62S16.85,3.33,18.19,3.33Z"/><path class="cls-2" d="M22.2,3.33a4.27,4.27,0,0,1,1.34.19.65.65,0,0,1-.14.41,4.49,4.49,0,0,0-1.13-.15c-.83,0-1.23.35-1.23.93s.6.79,1.3,1,1.38.48,1.38,1.44S23.11,8.58,22,8.58a3.67,3.67,0,0,1-1.48-.28.74.74,0,0,1,.13-.42A4.65,4.65,0,0,0,22,8.1c.8,0,1.23-.33,1.23-.94s-.49-.8-1-1c-.75-.23-1.62-.42-1.62-1.45C20.52,3.89,21.09,3.33,22.2,3.33Z"/><path class="cls-2" d="M29,3.4a1.27,1.27,0,0,1,.35,0v5a.83.83,0,0,1-.53,0v-3c0-.61,0-1.17,0-1.42h0a8.47,8.47,0,0,1-.48,1l-1.18,2.1a.53.53,0,0,1-.18,0,.43.43,0,0,1-.16,0c-.38-.7-.76-1.38-1.14-2.09A7,7,0,0,1,25.22,4h0a10.12,10.12,0,0,1,.06,1.38v3a.54.54,0,0,1-.24,0,.58.58,0,0,1-.24,0v-5a1.05,1.05,0,0,1,.32,0,1.3,1.3,0,0,1,.32,0L26.64,5.7a6.4,6.4,0,0,1,.37.8h0A2.71,2.71,0,0,1,27.28,6l1.39-2.53A1.33,1.33,0,0,1,29,3.4Z"/><path class="cls-2" d="M32.65,6.64c0,1,.35,1.48,1.11,1.48A1.71,1.71,0,0,0,34.45,8a.51.51,0,0,1,.16.38,1.89,1.89,0,0,1-1,.21c-1,0-1.53-.67-1.53-1.94s.53-1.94,1.53-1.94a1.83,1.83,0,0,1,.89.17.5.5,0,0,1-.16.38,1.61,1.61,0,0,0-.65-.12C33,5.14,32.65,5.63,32.65,6.64Z"/><path class="cls-2" d="M38.15,4.78a.82.82,0,0,1,.27,0V8.47a.77.77,0,0,1-.26,0,.9.9,0,0,1-.26,0v-2c0-.59,0-1,0-1h0a6.67,6.67,0,0,1-.48.84L36,8.47a.89.89,0,0,1-.28,0,.8.8,0,0,1-.26,0V4.81a.79.79,0,0,1,.26,0,.73.73,0,0,1,.25,0V6.86c0,.48,0,1,0,1h0a4.88,4.88,0,0,1,.32-.57l1.6-2.44A.82.82,0,0,1,38.15,4.78Z"/><path class="cls-2" d="M41.63,4.78a.53.53,0,0,1,0,.22.51.51,0,0,1,0,.21H40.07V8.47a.93.93,0,0,1-.51,0V4.78Z"/><path class="cls-2" d="M42.93,8.47a.93.93,0,0,1-.51,0V4.81a.95.95,0,0,1,.51,0V6.37h1.82V4.81a.79.79,0,0,1,.26,0,.74.74,0,0,1,.26,0V8.47a.75.75,0,0,1-.26,0,.71.71,0,0,1-.25,0V6.8H42.93Z"/><path class="cls-2" d="M47.65,4.71c1,0,1.28.49,1.28,1.43V8.47a.45.45,0,0,1-.21,0,.54.54,0,0,1-.21,0l-.08-.53a1.23,1.23,0,0,1-1.19.64,1,1,0,0,1-1.1-1.14c0-.72.45-1.11,1.34-1.11a8,8,0,0,1,.93.06V6c0-.59-.25-.85-.84-.85a3.1,3.1,0,0,0-1,.18.34.34,0,0,1-.12-.16.54.54,0,0,1,0-.22A3.29,3.29,0,0,1,47.65,4.71Zm-.08,2c-.59,0-.88.23-.88.74a.65.65,0,0,0,.73.72,1,1,0,0,0,1-1.12V6.76C48.26,6.75,47.91,6.71,47.57,6.71Z"/><path class="cls-2" d="M49.92,8.55a.88.88,0,0,1-.26,0,.39.39,0,0,1,0-.18.55.55,0,0,1,0-.19.71.71,0,0,0,.21,0c.28,0,.49-.45.59-1.72l.13-1.65h2.24v3.7a.86.86,0,0,1-.25,0,.8.8,0,0,1-.26,0V5.19H51l-.1,1.26C50.77,8.3,50.4,8.55,49.92,8.55Z"/><path class="cls-2" d="M56.66,4.78a.82.82,0,0,1,.27,0V8.47a.77.77,0,0,1-.26,0,.9.9,0,0,1-.26,0v-2c0-.59,0-1,0-1h0a6.67,6.67,0,0,1-.48.84L54.51,8.47a.89.89,0,0,1-.28,0,.8.8,0,0,1-.26,0V4.81a.79.79,0,0,1,.26,0,.73.73,0,0,1,.25,0V6.86c0,.48,0,1,0,1h0a4.88,4.88,0,0,1,.32-.57l1.6-2.44A.82.82,0,0,1,56.66,4.78Z"/><path class="cls-2" d="M59,4.71c.92,0,1.3.4,1.3,1a.83.83,0,0,1-.52.87h0a.86.86,0,0,1,.62.88c0,.62-.35,1.09-1.5,1.09a2.5,2.5,0,0,1-1.08-.21A.49.49,0,0,1,57.91,8a2.64,2.64,0,0,0,.92.14c.7,0,1-.23,1-.69s-.33-.65-.92-.65h-.45a.57.57,0,0,1,0-.21.5.5,0,0,1,0-.19h.45c.5,0,.82-.16.82-.65s-.28-.65-.87-.65a2.85,2.85,0,0,0-.85.12.46.46,0,0,1-.13-.36A2.68,2.68,0,0,1,59,4.71Z"/><path class="cls-2" d="M62.57,4.71c1,0,1.28.49,1.28,1.43V8.47a.45.45,0,0,1-.21,0,.54.54,0,0,1-.21,0l-.08-.53a1.23,1.23,0,0,1-1.19.64,1,1,0,0,1-1.1-1.14c0-.72.45-1.11,1.34-1.11a8,8,0,0,1,.93.06V6c0-.59-.25-.85-.84-.85a3.1,3.1,0,0,0-1,.18.34.34,0,0,1-.12-.16.54.54,0,0,1,0-.22A3.29,3.29,0,0,1,62.57,4.71Zm-.08,2c-.59,0-.88.23-.88.74a.65.65,0,0,0,.73.72,1,1,0,0,0,1-1.12V6.76C63.18,6.75,62.83,6.71,62.49,6.71Z"/><path class="cls-2" d="M67.48,4.78a.79.79,0,0,1,.26,0V8.08h.45V9.38a.72.72,0,0,1-.23,0,.79.79,0,0,1-.24,0V8.51H65V4.81a.94.94,0,0,1,.51,0V8.08h1.75V4.81A.78.78,0,0,1,67.48,4.78Z"/><path class="cls-2" d="M71.74,4.78a.82.82,0,0,1,.27,0V8.47a.77.77,0,0,1-.26,0,.9.9,0,0,1-.26,0v-2c0-.59,0-1,0-1h0a6.67,6.67,0,0,1-.48.84L69.59,8.47a.89.89,0,0,1-.28,0,.8.8,0,0,1-.26,0V4.81a.79.79,0,0,1,.26,0,.73.73,0,0,1,.25,0V6.86c0,.48,0,1,0,1h0a4.88,4.88,0,0,1,.32-.57l1.6-2.44A.82.82,0,0,1,71.74,4.78Z"/><path class="cls-2" d="M73.45,8.47a1.22,1.22,0,0,1-.31,0,1,1,0,0,1-.28,0l.87-1.54a1,1,0,0,1-.7-1,1.07,1.07,0,0,1,1.18-1.12h1.5v3.7a1,1,0,0,1-.25,0,.9.9,0,0,1-.26,0V7h-.94Zm.11-2.58a.67.67,0,0,0,.75.72h.89V5.17H74.3A.66.66,0,0,0,73.56,5.9Z"/><path class="cls-3" d="M79.3,12.52A8.12,8.12,0,0,0,79.45,0L78.12,1.59A6.08,6.08,0,0,1,78,10.93Z"/><circle class="cls-4" cx="7.2" cy="6.31" r="6.31"/><path class="cls-1" d="M3,12.58A8.13,8.13,0,0,1,2.84.1l.82,1A6.87,6.87,0,0,0,3.8,11.6Z"/><path class="cls-1" d="M11.39,12.58A8.13,8.13,0,0,0,11.55.1l-.82,1a6.87,6.87,0,0,1-.14,10.55Z"/><path class="cls-5" d="M3.06,4.07a3.61,3.61,0,0,1,1.33-.25C5.28,3.81,6,4.19,6,5.15S5.49,6.38,4.65,6.89c-.39.24-.91.47-.91.91a.57.57,0,0,0,0,.11H5.86a.81.81,0,0,1,.08.4,1,1,0,0,1-.08.4H2.92a2.9,2.9,0,0,1,0-.48,2.29,2.29,0,0,1,1.37-2c.62-.43.84-.62.84-1.07s-.33-.62-.84-.62a3.19,3.19,0,0,0-.93.16A.7.7,0,0,1,3.06,4.07Z"/><path class="cls-5" d="M7.69,8.65a1.43,1.43,0,0,1-.45.06,1.28,1.28,0,0,1-.45-.06V7.83a1.28,1.28,0,0,1,.45-.06,1.43,1.43,0,0,1,.45.06Z"/><path class="cls-5" d="M9.69,8.78a2.78,2.78,0,0,1-1.27-.26.91.91,0,0,1,.22-.66,3.53,3.53,0,0,0,1,.15c.62,0,1-.16,1-.74s-.26-.72-.85-.72h-.6a1,1,0,0,1,0-.71h.6c.52,0,.7-.26.7-.62s-.29-.66-.82-.66a2.45,2.45,0,0,0-.87.15.67.67,0,0,1-.28-.64A2.69,2.69,0,0,1,9.7,3.81c1,0,1.64.43,1.64,1.3a1.05,1.05,0,0,1-.57,1.06,1.17,1.17,0,0,1,.74,1.21C11.51,8.27,11,8.78,9.69,8.78Z"/></g></svg>