<svg xmlns="http://www.w3.org/2000/svg" viewBox="0 0 14.39 15.34"><defs><style>.cls-1{fill:#fff;opacity:0.9;}.cls-2{fill:#000d21;}.cls-3{fill:#00809e;}</style></defs><title>DOMUS стиль</title><g id="Layer_1" data-name="Layer 1"><circle class="cls-1" cx="7.2" cy="9.03" r="6.31"/><path class="cls-2" d="M3,15.3A8.13,8.13,0,0,1,2.84,2.82l.82,1A6.87,6.87,0,0,0,3.8,14.32Z"/><path class="cls-2" d="M11.39,15.3a8.13,8.13,0,0,0,.16-12.48l-.82,1a6.87,6.87,0,0,1-.14,10.55Z"/><path class="cls-3" d="M5.94,6.56a1.46,1.46,0,0,1,0,.5c-.07,1.61-1.72,2.1-1.72,4.29a2,2,0,0,1-.43,0,2.09,2.09,0,0,1-.43,0c0-2.33,1.39-2.85,1.67-4H3A1.17,1.17,0,0,1,2.9,7,1,1,0,0,1,3,6.56Z"/><path class="cls-3" d="M7.06,11.33a1.43,1.43,0,0,1-.45.06,1.28,1.28,0,0,1-.45-.06v-.82a1.28,1.28,0,0,1,.45-.06,1.43,1.43,0,0,1,.45.06Z"/><path class="cls-3" d="M9.87,6.62a1.3,1.3,0,0,1,.45-.06,1.1,1.1,0,0,1,.43.06V9.5h.58a1,1,0,0,1,0,.71h-.58v1.11a1.18,1.18,0,0,1-.41.06,1.37,1.37,0,0,1-.44-.06V10.21H7.75a.92.92,0,0,1,0-.71ZM8.63,9.5H9.91V7.77Z"/></g></svg>