<svg xmlns="http://www.w3.org/2000/svg" viewBox="0 0 14.39 12.62"><defs><style>.cls-1{fill:#fff;opacity:0.9;}.cls-2{fill:#000d21;}.cls-3{fill:#00809e;}</style></defs><title>DOMUS стиль</title><g id="Layer_1" data-name="Layer 1"><circle class="cls-1" cx="7.2" cy="6.31" r="6.31"/><path class="cls-2" d="M3,12.58A8.13,8.13,0,0,1,2.84.1l.82,1A6.87,6.87,0,0,0,3.8,11.6Z"/><path class="cls-2" d="M11.39,12.58A8.13,8.13,0,0,0,11.55.1l-.82,1a6.87,6.87,0,0,1-.14,10.55Z"/><path class="cls-3" d="M6.65,3.84a1.46,1.46,0,0,1,0,.5C6.63,5.95,5,6.44,5,8.62a2,2,0,0,1-.43,0,2.09,2.09,0,0,1-.43,0c0-2.33,1.39-2.85,1.67-4H3.68a1.17,1.17,0,0,1-.06-.4,1,1,0,0,1,.06-.39Z"/><path class="cls-3" d="M7.77,8.61a1.43,1.43,0,0,1-.45.06,1.28,1.28,0,0,1-.45-.06V7.79a1.28,1.28,0,0,1,.45-.06,1.43,1.43,0,0,1,.45.06Z"/><path class="cls-3" d="M9.36,3.91a1.12,1.12,0,0,1,.44-.06,1.23,1.23,0,0,1,.45.06V8.6a1.2,1.2,0,0,1-.45.06,1.49,1.49,0,0,1-.46-.06V5.89c0-.35,0-.65,0-.89a2.82,2.82,0,0,1-1.11.52A.85.85,0,0,1,8,4.79,2.2,2.2,0,0,0,9.36,3.91Z"/></g></svg>