<svg xmlns="http://www.w3.org/2000/svg" viewBox="0 0 14.39 12.62"><defs><style>.cls-1{fill:#fff;opacity:0.9;}.cls-2{fill:#000d21;}.cls-3{fill:#00809e;}</style></defs><title>DOMUS стиль</title><g id="Layer_1" data-name="Layer 1"><circle class="cls-1" cx="7.2" cy="6.31" r="6.31"/><path class="cls-2" d="M3,12.58A8.13,8.13,0,0,1,2.84.1l.82,1A6.87,6.87,0,0,0,3.8,11.6Z"/><path class="cls-2" d="M11.39,12.58A8.13,8.13,0,0,0,11.55.1l-.82,1a6.87,6.87,0,0,1-.14,10.55Z"/><path class="cls-3" d="M4,8.74a2.78,2.78,0,0,1-1.27-.26A.91.91,0,0,1,3,7.82,3.53,3.53,0,0,0,4,8c.62,0,1-.16,1-.74s-.26-.72-.85-.72h-.6a1,1,0,0,1,0-.71h.6c.52,0,.7-.26.7-.62S4.49,4.52,4,4.52a2.45,2.45,0,0,0-.87.15A.67.67,0,0,1,2.83,4a2.69,2.69,0,0,1,1.23-.25c1,0,1.64.43,1.64,1.3a1.05,1.05,0,0,1-.57,1.06,1.17,1.17,0,0,1,.74,1.21C5.86,8.23,5.35,8.74,4,8.74Z"/><path class="cls-3" d="M7.55,8.61a1.43,1.43,0,0,1-.45.06,1.28,1.28,0,0,1-.45-.06V7.79a1.28,1.28,0,0,1,.45-.06,1.43,1.43,0,0,1,.45.06Z"/><path class="cls-3" d="M10.37,3.91a1.3,1.3,0,0,1,.45-.06,1.1,1.1,0,0,1,.43.06V6.79h.58a1,1,0,0,1,0,.71h-.58V8.6a1.18,1.18,0,0,1-.41.06,1.37,1.37,0,0,1-.44-.06V7.5H8.24a.92.92,0,0,1,0-.71ZM9.12,6.79H10.4V5.05Z"/></g></svg>