<svg xmlns="http://www.w3.org/2000/svg" viewBox="0 0 14.39 12.62"><defs><style>.cls-1{fill:#fff;opacity:0.9;}.cls-2{fill:#000d21;}.cls-3{fill:#00809e;}</style></defs><title>DOMUS стиль</title><g id="Layer_1" data-name="Layer 1"><circle class="cls-1" cx="7.2" cy="6.31" r="6.31"/><path class="cls-2" d="M3,12.58A8.13,8.13,0,0,1,2.84.1l.82,1A6.87,6.87,0,0,0,3.8,11.6Z"/><path class="cls-2" d="M11.39,12.58A8.13,8.13,0,0,0,11.55.1l-.82,1a6.87,6.87,0,0,1-.14,10.55Z"/><path class="cls-3" d="M5.93,4.56C5,4.67,4.42,5,4.2,5.81a3.05,3.05,0,0,1,.74-.09A1.36,1.36,0,0,1,6.43,7.23c0,1-.62,1.51-1.63,1.51S3.17,8.17,3.17,6.84a2.64,2.64,0,0,1,2.76-3A1,1,0,0,1,5.93,4.56ZM4.78,6.41a2.34,2.34,0,0,0-.7.11c0,.11,0,.23,0,.35,0,.87.28,1.18.72,1.18s.71-.25.71-.83S5.2,6.41,4.78,6.41Z"/><path class="cls-3" d="M8,8.61a1.43,1.43,0,0,1-.45.06,1.28,1.28,0,0,1-.45-.06V7.79a1.28,1.28,0,0,1,.45-.06A1.43,1.43,0,0,1,8,7.79Z"/><path class="cls-3" d="M9.63,3.91a1.12,1.12,0,0,1,.44-.06,1.23,1.23,0,0,1,.45.06V8.6a1.2,1.2,0,0,1-.45.06,1.49,1.49,0,0,1-.46-.06V5.89c0-.35,0-.65,0-.89a2.82,2.82,0,0,1-1.11.52.85.85,0,0,1-.21-.74A2.2,2.2,0,0,0,9.63,3.91Z"/></g></svg>