<svg xmlns="http://www.w3.org/2000/svg" viewBox="0 0 14.39 12.62"><defs><style>.cls-1{fill:#fff;opacity:0.9;}.cls-2{fill:#000d21;}.cls-3{fill:#00809e;}</style></defs><title>DOMUS стиль</title><g id="Layer_1" data-name="Layer 1"><circle class="cls-1" cx="7.2" cy="6.31" r="6.31"/><path class="cls-2" d="M3,12.58A8.13,8.13,0,0,1,2.84.1l.82,1A6.87,6.87,0,0,0,3.8,11.6Z"/><path class="cls-2" d="M11.39,12.58A8.13,8.13,0,0,0,11.55.1l-.82,1a6.87,6.87,0,0,1-.14,10.55Z"/><path class="cls-3" d="M5.46,4.56C4.5,4.67,4,5,3.73,5.81a3.05,3.05,0,0,1,.74-.09A1.36,1.36,0,0,1,6,7.23c0,1-.62,1.51-1.63,1.51S2.7,8.17,2.7,6.84a2.64,2.64,0,0,1,2.76-3A1,1,0,0,1,5.46,4.56ZM4.31,6.41a2.34,2.34,0,0,0-.7.11c0,.11,0,.23,0,.35,0,.87.28,1.18.72,1.18S5,7.81,5,7.23,4.73,6.41,4.31,6.41Z"/><path class="cls-3" d="M7.57,8.61a1.43,1.43,0,0,1-.45.06,1.28,1.28,0,0,1-.45-.06V7.79a1.28,1.28,0,0,1,.45-.06,1.43,1.43,0,0,1,.45.06Z"/><path class="cls-3" d="M9.58,8.74a2.78,2.78,0,0,1-1.27-.26.91.91,0,0,1,.22-.66,3.53,3.53,0,0,0,1,.15c.62,0,1-.16,1-.74s-.26-.72-.85-.72H9A1,1,0,0,1,9,5.8h.6c.52,0,.7-.26.7-.62s-.29-.66-.82-.66a2.45,2.45,0,0,0-.87.15A.67.67,0,0,1,8.36,4a2.69,2.69,0,0,1,1.23-.25c1,0,1.64.43,1.64,1.3a1.05,1.05,0,0,1-.57,1.06,1.17,1.17,0,0,1,.74,1.21C11.4,8.23,10.89,8.74,9.58,8.74Z"/></g></svg>