<svg xmlns="http://www.w3.org/2000/svg" viewBox="0 0 14.39 12.62"><defs><style>.cls-1{fill:#fff;opacity:0.9;}.cls-2{fill:#000d21;}.cls-3{fill:#00809e;}</style></defs><title>DOMUS стиль</title><g id="Layer_1" data-name="Layer 1"><circle class="cls-1" cx="7.2" cy="6.31" r="6.31"/><path class="cls-2" d="M3,12.58A8.13,8.13,0,0,1,2.84.1l.82,1A6.87,6.87,0,0,0,3.8,11.6Z"/><path class="cls-2" d="M11.39,12.58A8.13,8.13,0,0,0,11.55.1l-.82,1a6.87,6.87,0,0,1-.14,10.55Z"/><path class="cls-3" d="M4.27,3.95a1.12,1.12,0,0,1,.44-.06,1.23,1.23,0,0,1,.45.06v4.7a1.2,1.2,0,0,1-.45.06,1.49,1.49,0,0,1-.46-.06V5.93c0-.35,0-.65,0-.89a2.82,2.82,0,0,1-1.11.52A.85.85,0,0,1,3,4.83,2.2,2.2,0,0,0,4.27,3.95Z"/><path class="cls-3" d="M7.1,8.65a1.43,1.43,0,0,1-.45.06,1.28,1.28,0,0,1-.45-.06V7.83a1.28,1.28,0,0,1,.45-.06,1.43,1.43,0,0,1,.45.06Z"/><path class="cls-3" d="M9.1,8.78a2.78,2.78,0,0,1-1.27-.26A.91.91,0,0,1,8,7.86,3.53,3.53,0,0,0,9,8c.62,0,1-.16,1-.74s-.26-.72-.85-.72h-.6a1,1,0,0,1,0-.71h.6c.52,0,.7-.26.7-.62S9.55,4.56,9,4.56a2.45,2.45,0,0,0-.87.15.67.67,0,0,1-.28-.64,2.69,2.69,0,0,1,1.23-.25c1,0,1.64.43,1.64,1.3a1.05,1.05,0,0,1-.57,1.06,1.17,1.17,0,0,1,.74,1.21C10.92,8.27,10.41,8.78,9.1,8.78Z"/></g></svg>