<svg xmlns="http://www.w3.org/2000/svg" viewBox="0 0 14.39 12.62"><defs><style>.cls-1{fill:#fff;opacity:0.9;}.cls-2{fill:#000d21;}.cls-3{fill:#00809e;}</style></defs><title>DOMUS стиль</title><g id="Layer_1" data-name="Layer 1"><circle class="cls-1" cx="7.2" cy="6.31" r="6.31"/><path class="cls-2" d="M3,12.58A8.13,8.13,0,0,1,2.84.1l.82,1A6.87,6.87,0,0,0,3.8,11.6Z"/><path class="cls-2" d="M11.39,12.58A8.13,8.13,0,0,0,11.55.1l-.82,1a6.87,6.87,0,0,1-.14,10.55Z"/><path class="cls-3" d="M6.07,3.84a1.46,1.46,0,0,1,0,.5C6,5.95,4.4,6.44,4.4,8.62a2,2,0,0,1-.43,0,2.09,2.09,0,0,1-.43,0c0-2.33,1.39-2.85,1.67-4H3.09A1.17,1.17,0,0,1,3,4.23a1,1,0,0,1,.06-.39Z"/><path class="cls-3" d="M7.18,8.61a1.43,1.43,0,0,1-.45.06,1.28,1.28,0,0,1-.45-.06V7.79a1.28,1.28,0,0,1,.45-.06,1.43,1.43,0,0,1,.45.06Z"/><path class="cls-3" d="M9.19,8.74a2.78,2.78,0,0,1-1.27-.26.91.91,0,0,1,.22-.66,3.53,3.53,0,0,0,1,.15c.62,0,1-.16,1-.74s-.26-.72-.85-.72h-.6a1,1,0,0,1,0-.71h.6c.52,0,.7-.26.7-.62s-.29-.66-.82-.66a2.45,2.45,0,0,0-.87.15A.67.67,0,0,1,8,4,2.69,2.69,0,0,1,9.2,3.77c1,0,1.64.43,1.64,1.3a1.05,1.05,0,0,1-.57,1.06A1.17,1.17,0,0,1,11,7.34C11,8.23,10.5,8.74,9.19,8.74Z"/></g></svg>