<svg xmlns="http://www.w3.org/2000/svg" viewBox="0 0 14.39 12.62"><defs><style>.cls-1{fill:#fff;opacity:0.9;}.cls-2{fill:#000d21;}.cls-3{fill:#00809e;}</style></defs><title>DOMUS стиль</title><g id="Layer_1" data-name="Layer 1"><circle class="cls-1" cx="7.2" cy="6.31" r="6.31"/><path class="cls-2" d="M3,12.58A8.13,8.13,0,0,1,2.84.1l.82,1A6.87,6.87,0,0,0,3.8,11.6Z"/><path class="cls-2" d="M11.39,12.58A8.13,8.13,0,0,0,11.55.1l-.82,1a6.87,6.87,0,0,1-.14,10.55Z"/><path class="cls-3" d="M5.47,4.56C4.51,4.66,4,5,3.74,5.81a3.05,3.05,0,0,1,.74-.09A1.36,1.36,0,0,1,6,7.23c0,1-.62,1.51-1.63,1.51S2.71,8.17,2.71,6.84a2.64,2.64,0,0,1,2.76-3A1,1,0,0,1,5.47,4.56ZM4.32,6.41a2.34,2.34,0,0,0-.7.11c0,.11,0,.23,0,.35,0,.87.28,1.18.72,1.18S5,7.81,5,7.23,4.74,6.41,4.32,6.41Z"/><path class="cls-3" d="M7.58,8.61a1.43,1.43,0,0,1-.45.06,1.28,1.28,0,0,1-.45-.06V7.79a1.28,1.28,0,0,1,.45-.06,1.43,1.43,0,0,1,.45.06Z"/><path class="cls-3" d="M8.5,4a3.61,3.61,0,0,1,1.33-.25c.89,0,1.62.38,1.62,1.34s-.51,1.23-1.36,1.74c-.39.24-.91.47-.91.91a.57.57,0,0,0,0,.11H11.3a.81.81,0,0,1,.08.4,1,1,0,0,1-.08.4H8.36a2.9,2.9,0,0,1,0-.48,2.29,2.29,0,0,1,1.37-2c.62-.43.84-.62.84-1.07s-.33-.62-.84-.62a3.19,3.19,0,0,0-.93.16A.7.7,0,0,1,8.5,4Z"/></g></svg>