<svg xmlns="http://www.w3.org/2000/svg" viewBox="0 0 14.39 12.62"><defs><style>.cls-1{fill:#fff;opacity:0.9;}.cls-2{fill:#000d21;}.cls-3{fill:#00809e;}</style></defs><title>DOMUS стиль</title><g id="Layer_1" data-name="Layer 1"><circle class="cls-1" cx="7.2" cy="6.31" r="6.31"/><path class="cls-2" d="M3,12.58A8.13,8.13,0,0,1,2.84.1l.82,1A6.87,6.87,0,0,0,3.8,11.6Z"/><path class="cls-2" d="M11.39,12.58A8.13,8.13,0,0,0,11.55.1l-.82,1a6.87,6.87,0,0,1-.14,10.55Z"/><path class="cls-3" d="M5,3.95a1.3,1.3,0,0,1,.45-.06,1.1,1.1,0,0,1,.43.06V6.83h.58a1,1,0,0,1,0,.71H5.85V8.64a1.18,1.18,0,0,1-.41.06A1.37,1.37,0,0,1,5,8.64V7.54H2.84a.92.92,0,0,1,0-.71ZM3.72,6.83H5V5.1Z"/><path class="cls-3" d="M8,8.65a1.43,1.43,0,0,1-.45.06,1.28,1.28,0,0,1-.45-.06V7.83a1.28,1.28,0,0,1,.45-.06A1.43,1.43,0,0,1,8,7.83Z"/><path class="cls-3" d="M9.63,3.95a1.12,1.12,0,0,1,.44-.06,1.23,1.23,0,0,1,.45.06v4.7a1.2,1.2,0,0,1-.45.06,1.49,1.49,0,0,1-.46-.06V5.93c0-.35,0-.65,0-.89a2.82,2.82,0,0,1-1.11.52.85.85,0,0,1-.21-.74A2.2,2.2,0,0,0,9.63,3.95Z"/></g></svg>