<svg xmlns="http://www.w3.org/2000/svg" viewBox="0 0 14.39 12.62"><defs><style>.cls-1{fill:#fff;opacity:0.9;}.cls-2{fill:#000d21;}.cls-3{fill:#00809e;}</style></defs><title>DOMUS стиль</title><g id="Layer_1" data-name="Layer 1"><circle class="cls-1" cx="7.2" cy="6.31" r="6.31"/><path class="cls-2" d="M3,12.58A8.13,8.13,0,0,1,2.84.1l.82,1A6.87,6.87,0,0,0,3.8,11.6Z"/><path class="cls-2" d="M11.39,12.58A8.13,8.13,0,0,0,11.55.1l-.82,1a6.87,6.87,0,0,1-.14,10.55Z"/><path class="cls-3" d="M3.37,4.07A3.61,3.61,0,0,1,4.7,3.81c.89,0,1.62.38,1.62,1.34S5.8,6.38,5,6.89c-.39.24-.91.47-.91.91a.57.57,0,0,0,0,.11H6.17a.81.81,0,0,1,.08.4,1,1,0,0,1-.08.4H3.23a2.9,2.9,0,0,1,0-.48,2.29,2.29,0,0,1,1.37-2c.62-.43.84-.62.84-1.07s-.33-.62-.84-.62a3.19,3.19,0,0,0-.93.16A.7.7,0,0,1,3.37,4.07Z"/><path class="cls-3" d="M8,8.65a1.43,1.43,0,0,1-.45.06,1.28,1.28,0,0,1-.45-.06V7.83a1.28,1.28,0,0,1,.45-.06A1.43,1.43,0,0,1,8,7.83Z"/><path class="cls-3" d="M9.59,3.95A1.12,1.12,0,0,1,10,3.88a1.23,1.23,0,0,1,.45.06v4.7a1.2,1.2,0,0,1-.45.06,1.49,1.49,0,0,1-.46-.06V5.93c0-.35,0-.65,0-.89a2.82,2.82,0,0,1-1.11.52.85.85,0,0,1-.21-.74A2.2,2.2,0,0,0,9.59,3.95Z"/></g></svg>